<svg width="147" height="136" viewBox="0 0 147 136" fill="none" xmlns="http://www.w3.org/2000/svg">
<path d="M69.2405 1.38738L21.3875 14.2095C3.9492 18.8821 -3.28385 31.4088 1.3883 48.8455L14.1971 96.6485C18.8692 114.085 31.3966 121.317 48.8349 116.644L96.6879 103.822C114.126 99.1496 121.314 86.6352 116.642 69.1985L103.833 21.3956C99.1606 3.95888 86.6788 -3.2852 69.2405 1.38738Z" fill="white"/>
<g opacity="0.5">
<path d="M66.2124 22.5609L34.5832 31.0359C23.057 34.1242 18.1918 42.0889 21.1309 53.0578L29.1885 83.1294C32.1277 94.0982 40.3235 98.5632 51.8496 95.4747L83.4788 86.9997C95.005 83.9114 99.8401 75.9548 96.901 64.9859L88.8433 34.9144C85.9042 23.9454 77.7385 19.4724 66.2124 22.5609Z" fill="url(#paint0_linear_747_15)"/>
</g>
<path d="M102.57 26.543H56.598C38.6227 26.543 26.5332 39.1627 26.5332 57.9332V101.254C26.5332 119.972 38.6227 132.591 56.598 132.591H102.57C120.545 132.591 132.582 119.972 132.582 101.254V57.9332C132.582 39.1627 120.545 26.543 102.57 26.543Z" fill="url(#paint1_linear_747_15)"/>
<path d="M102.57 25.8262H56.5978C47.4361 25.8262 39.7258 29.0461 34.3072 34.7034C28.8911 40.3578 25.8164 48.3926 25.8164 57.9331V101.254C25.8164 110.769 28.8914 118.79 34.3075 124.438C39.7259 130.088 47.4363 133.308 56.5978 133.308H102.57C111.731 133.308 119.429 130.088 124.834 124.437C130.237 118.789 133.298 110.768 133.298 101.254V57.9331C133.298 48.3934 130.237 40.3588 124.834 34.7039C119.429 29.0462 111.731 25.8262 102.57 25.8262Z" stroke="url(#paint2_linear_747_15)" stroke-width="3.70155" stroke-linecap="round" stroke-linejoin="round"/>
<path d="M138.21 18.752C133.906 18.752 130.418 22.2402 130.418 26.5433C130.418 30.8462 133.906 34.3346 138.21 34.3346C142.512 34.3346 146.001 30.8462 146.001 26.5433C146.001 24.4769 145.18 22.495 143.719 21.0339C142.257 19.5728 140.276 18.752 138.21 18.752Z" fill="white"/>
<path d="M107.298 70.1759L92.1445 89.7302C91.507 90.5802 90.5507 91.1347 89.4955 91.2663C88.4403 91.398 87.3768 91.0956 86.5493 90.4285L72.002 79.022L58.9001 95.969C57.9513 97.4755 56.1035 98.1525 54.404 97.6161C52.7045 97.0796 51.5822 95.465 51.6731 93.6876C51.6652 92.8082 51.9616 91.953 52.5123 91.2666L68.1788 71.0605C68.8086 70.2175 69.7521 69.6632 70.7961 69.523C71.8402 69.3828 72.8967 69.6685 73.7273 70.3156L88.2746 81.7688L101.05 65.3339C101.664 64.4865 102.596 63.9241 103.633 63.7749C104.67 63.6257 105.723 63.9026 106.552 64.5424C108.264 65.8816 108.595 68.3397 107.298 70.0829V70.1759Z" fill="url(#paint3_linear_747_15)"/>
<path d="M73.5509 70.5417C72.7812 69.9423 71.8022 69.6777 70.8348 69.8076C69.867 69.9376 68.9925 70.4513 68.4089 71.2326L68.4057 71.2366L52.7394 91.4428L52.7364 91.4465C52.2271 92.0813 51.953 92.8722 51.9603 93.6856L51.9598 93.7028C51.8757 95.3495 52.9156 96.8459 54.4908 97.3431C56.0661 97.8405 57.7788 97.2128 58.6581 95.8167L58.6654 95.805L58.6739 95.7941L71.7757 78.847L71.9523 78.6187L72.1795 78.7969L86.7267 90.2035L86.7298 90.2058C87.4967 90.8242 88.4824 91.1045 89.4606 90.9824C90.4387 90.8603 91.3249 90.3463 91.9157 89.5587L91.9184 89.5551L107.012 70.0783V69.9883L107.068 69.9122C108.273 68.294 107.966 66.0126 106.376 64.7691C105.609 64.1773 104.634 63.921 103.675 64.059C102.714 64.1972 101.851 64.7181 101.283 65.5026L101.277 65.5104L88.5014 81.9453L88.3244 82.173L88.0976 81.9946L73.5509 70.5417ZM73.5509 70.5417C73.5512 70.5419 73.5506 70.5416 73.5509 70.5417Z" stroke="url(#paint4_linear_747_15)" stroke-width="1.48062"/>
<defs>
<linearGradient id="paint0_linear_747_15" x1="59.0174" y1="21.6055" x2="59.0174" y2="96.431" gradientUnits="userSpaceOnUse">
<stop stop-color="#3D7FA1"/>
<stop offset="1" stop-color="#355F75"/>
</linearGradient>
<linearGradient id="paint1_linear_747_15" x1="79.5574" y1="26.543" x2="79.5574" y2="132.591" gradientUnits="userSpaceOnUse">
<stop stop-color="#3D7FA1"/>
<stop offset="1" stop-color="#355F75"/>
</linearGradient>
<linearGradient id="paint2_linear_747_15" x1="43.4143" y1="38.8976" x2="111.062" y2="122.681" gradientUnits="userSpaceOnUse">
<stop stop-color="white" stop-opacity="0.25"/>
<stop offset="1" stop-color="white" stop-opacity="0"/>
</linearGradient>
<linearGradient id="paint3_linear_747_15" x1="104.089" y1="69.8865" x2="41.3572" y2="73.2744" gradientUnits="userSpaceOnUse">
<stop stop-color="white"/>
<stop offset="1" stop-color="white" stop-opacity="0.2"/>
</linearGradient>
<linearGradient id="paint4_linear_747_15" x1="60.6498" y1="67.7042" x2="78.1592" y2="103.624" gradientUnits="userSpaceOnUse">
<stop stop-color="white" stop-opacity="0.25"/>
<stop offset="1" stop-color="white" stop-opacity="0"/>
</linearGradient>
</defs>
</svg>
