<svg width="20" height="21" viewBox="0 0 20 21" fill="none" xmlns="http://www.w3.org/2000/svg">
<path d="M14.1971 0H5.8129C2.17108 0 0 2.17108 0 5.8129V14.1871C0 17.8389 2.17108 20.01 5.8129 20.01H14.1871C17.8289 20.01 20 17.8389 20 14.1971V5.8129C20.01 2.17108 17.8389 0 14.1971 0ZM16.008 10.7554H10.7554V16.008C10.7554 16.4182 10.4152 16.7584 10.005 16.7584C9.59478 16.7584 9.25461 16.4182 9.25461 16.008V10.7554H4.00199C3.59179 10.7554 3.25162 10.4152 3.25162 10.005C3.25162 9.59478 3.59179 9.25461 4.00199 9.25461H9.25461V4.00199C9.25461 3.59179 9.59478 3.25162 10.005 3.25162C10.4152 3.25162 10.7554 3.59179 10.7554 4.00199V9.25461H16.008C16.4182 9.25461 16.7584 9.59478 16.7584 10.005C16.7584 10.4152 16.4182 10.7554 16.008 10.7554Z" fill="url(#paint0_linear_805_194)"/>
<defs>
<linearGradient id="paint0_linear_805_194" x1="10" y1="0" x2="10" y2="20.01" gradientUnits="userSpaceOnUse">
<stop stop-color="#3D7FA1"/>
<stop offset="1" stop-color="#355F75"/>
</linearGradient>
</defs>
</svg>
