<svg width="26" height="26" viewBox="0 0 26 26" fill="none" xmlns="http://www.w3.org/2000/svg">
<path d="M13 26C20.163 26 26 20.163 26 13C26 5.837 20.163 5.10287e-07 13 1.1365e-06C5.837 1.76271e-06 -1.76271e-06 5.837 -1.1365e-06 13C-5.10287e-07 20.163 5.837 26 13 26ZM9.373 12.311L13.962 7.722C14.157 7.527 14.404 7.436 14.651 7.436C14.898 7.436 15.145 7.527 15.34 7.722C15.717 8.099 15.717 8.723 15.34 9.1L11.44 13L15.34 16.9C15.717 17.277 15.717 17.901 15.34 18.278C14.963 18.655 14.339 18.655 13.962 18.278L9.373 13.689C8.983 13.312 8.983 12.688 9.373 12.311Z" fill="url(#paint0_linear_804_993)"/>
<defs>
<linearGradient id="paint0_linear_804_993" x1="13" y1="26" x2="13" y2="1.1365e-06" gradientUnits="userSpaceOnUse">
<stop stop-color="#3D7FA1"/>
<stop offset="1" stop-color="#355F75"/>
</linearGradient>
</defs>
</svg>
