<svg width="85" height="86" viewBox="0 0 85 86" fill="none" xmlns="http://www.w3.org/2000/svg">
<path d="M42.5 0.5C65.9175 0.5 85 19.5825 85 43C85 66.4175 65.9175 85.5 42.5 85.5C19.0825 85.5 0 66.4175 0 43C0 19.5825 19.0825 0.5 42.5 0.5ZM30.6425 45.2525L45.645 60.255C46.2825 60.8925 47.09 61.19 47.8975 61.19C48.705 61.19 49.5125 60.8925 50.15 60.255C51.3825 59.0225 51.3825 56.9825 50.15 55.75L37.4 43L50.15 30.25C51.3825 29.0175 51.3825 26.9775 50.15 25.745C48.9175 24.5125 46.8775 24.5125 45.645 25.745L30.6425 40.7475C29.3675 41.98 29.3675 44.02 30.6425 45.2525Z" fill="url(#paint0_linear_863_4)"/>
<defs>
<linearGradient id="paint0_linear_863_4" x1="42.5" y1="0.5" x2="42.5" y2="85.5" gradientUnits="userSpaceOnUse">
<stop stop-color="#3D7FA1"/>
<stop offset="1" stop-color="#355F75"/>
</linearGradient>
</defs>
</svg>
