<svg width="40" height="50" viewBox="0 0 40 50" fill="none" xmlns="http://www.w3.org/2000/svg">
<path d="M0.0124739 0C0.00497401 0 0 4.45996 0 9.99991V39.9996C0 45.5396 0.00497401 49.9995 0.0124739 49.9995H39.9871C39.9946 49.9995 39.9996 45.5396 39.9996 39.9996V14.9999L24.9998 0H0.0124739Z" fill="url(#paint0_linear_778_735)"/>
<path opacity="0.2" fill-rule="evenodd" clip-rule="evenodd" d="M29.9998 14.999V16.249H10L12.5 18.749H10L15 23.7489H10L11.6675 25.4164L10 26.2489L15 31.2489H10L12.5 33.7488H10L26.2498 49.9987H39.9872C39.9947 49.9987 39.9997 45.5387 39.9997 39.9988V24.9989L29.9998 14.999Z" fill="url(#paint1_linear_778_735)"/>
<path d="M0 48.749H39.9996V49.999H0V48.749Z" fill="#2E3132" fill-opacity="0.294"/>
<path d="M39.9866 12.4874C39.9941 12.4761 39.9991 9.70491 39.9991 6.24994C39.9991 2.78747 39.9941 0 39.9866 0H27.5117V0.0125121L39.9866 12.4874Z" fill="url(#paint2_radial_778_735)"/>
<path d="M10 14.999V16.249H29.9998V14.999H10ZM10 17.499V18.749H26.2498V17.499H10ZM10 22.499V23.7489H29.9998V22.499H10ZM10 24.9989V26.2489H12.5V24.9989H10ZM10 29.9989V31.2489H29.9998V29.9989H10ZM10 32.4989V33.7488H26.2498V32.4989H10ZM27.4998 33.7488V34.9988H29.9998V33.7488H27.4998Z" fill="white"/>
<defs>
<linearGradient id="paint0_linear_778_735" x1="19.9998" y1="0" x2="19.9998" y2="49.9995" gradientUnits="userSpaceOnUse">
<stop stop-color="#3D7FA1"/>
<stop offset="1" stop-color="#355F75"/>
</linearGradient>
<linearGradient id="paint1_linear_778_735" x1="10" y1="14.999" x2="29.9998" y2="34.9988" gradientUnits="userSpaceOnUse">
<stop stop-color="#383E51"/>
<stop offset="1" stop-color="#655C6F" stop-opacity="0"/>
</linearGradient>
<radialGradient id="paint2_radial_778_735" cx="0" cy="0" r="1" gradientUnits="userSpaceOnUse" gradientTransform="translate(33.7554 6.24369) rotate(90) scale(6.24369 6.2437)">
<stop stop-color="#1A2327"/>
<stop offset="1" stop-color="#0F0F0F"/>
</radialGradient>
</defs>
</svg>
