<svg width="32" height="33" viewBox="0 0 32 33" fill="none" xmlns="http://www.w3.org/2000/svg">
<path d="M20.512 32.8208C19.8392 32.8208 19.2812 32.2629 19.2812 31.5901V1.23078C19.2812 0.557954 19.8392 0 20.512 0C21.1849 0 21.7428 0.557954 21.7428 1.23078V31.5901C21.7428 32.2629 21.1849 32.8208 20.512 32.8208Z" fill="url(#paint0_linear_759_818)"/>
<path opacity="0.4" d="M6.56417 29.5389H16.4104V3.28223H6.56417C2.93747 3.28223 0 6.21969 0 9.84639V22.9747C0 26.6014 2.93747 29.5389 6.56417 29.5389Z" fill="url(#paint1_linear_759_818)"/>
<path opacity="0.4" d="M25.4358 29.5389H20.5127V3.28223H25.4358C29.0625 3.28223 32 6.21969 32 9.84639V22.9747C32 26.6014 29.0625 29.5389 25.4358 29.5389Z" fill="url(#paint2_linear_759_818)"/>
<path d="M5.33342 18.0511C5.12009 18.0511 4.90675 18.0019 4.70983 17.9198C4.5129 17.8378 4.33239 17.7229 4.16828 17.5752C4.02059 17.4111 3.90572 17.2306 3.80726 17.0337C3.7252 16.8367 3.69238 16.6234 3.69238 16.4101C3.69238 15.9834 3.8729 15.5567 4.16828 15.2449C4.25034 15.1793 4.33239 15.1136 4.41444 15.048C4.5129 14.9824 4.61137 14.9331 4.70983 14.9003C4.80829 14.8511 4.90675 14.8183 5.00522 14.8018C5.56317 14.687 6.12112 14.8675 6.49856 15.2449C6.79395 15.5567 6.97447 15.9834 6.97447 16.4101C6.97447 16.6234 6.92524 16.8367 6.84318 17.0337C6.76113 17.2306 6.64626 17.4111 6.49856 17.5752C6.33446 17.7229 6.15395 17.8378 5.95702 17.9198C5.7601 18.0019 5.54676 18.0511 5.33342 18.0511Z" fill="url(#paint3_linear_759_818)"/>
<path d="M11.0776 18.0516C10.8642 18.0516 10.6509 18.0024 10.454 17.9203C10.257 17.8383 10.0765 17.7234 9.91243 17.5757C9.60063 17.2639 9.43652 16.8536 9.43652 16.4106C9.43652 16.1972 9.48575 15.9839 9.56781 15.787C9.64986 15.5736 9.76473 15.4095 9.91243 15.2454C10.5196 14.6382 11.6191 14.6382 12.2427 15.2454C12.5381 15.5572 12.7186 15.9839 12.7186 16.4106C12.7186 16.6239 12.6694 16.8372 12.5873 17.0342C12.5053 17.2311 12.3904 17.4116 12.2427 17.5757C12.0786 17.7234 11.8981 17.8383 11.7012 17.9203C11.5042 18.0024 11.2909 18.0516 11.0776 18.0516Z" fill="url(#paint4_linear_759_818)"/>
<defs>
<linearGradient id="paint0_linear_759_818" x1="20.512" y1="0" x2="20.512" y2="32.8208" gradientUnits="userSpaceOnUse">
<stop stop-color="#3D7FA1"/>
<stop offset="1" stop-color="#355F75"/>
</linearGradient>
<linearGradient id="paint1_linear_759_818" x1="8.20521" y1="3.28223" x2="8.20521" y2="29.5389" gradientUnits="userSpaceOnUse">
<stop stop-color="#3D7FA1"/>
<stop offset="1" stop-color="#355F75"/>
</linearGradient>
<linearGradient id="paint2_linear_759_818" x1="26.2563" y1="3.28223" x2="26.2563" y2="29.5389" gradientUnits="userSpaceOnUse">
<stop stop-color="#3D7FA1"/>
<stop offset="1" stop-color="#355F75"/>
</linearGradient>
<linearGradient id="paint3_linear_759_818" x1="5.33342" y1="14.7676" x2="5.33342" y2="18.0511" gradientUnits="userSpaceOnUse">
<stop stop-color="#3D7FA1"/>
<stop offset="1" stop-color="#355F75"/>
</linearGradient>
<linearGradient id="paint4_linear_759_818" x1="11.0776" y1="14.79" x2="11.0776" y2="18.0516" gradientUnits="userSpaceOnUse">
<stop stop-color="#3D7FA1"/>
<stop offset="1" stop-color="#355F75"/>
</linearGradient>
</defs>
</svg>
