<svg width="146" height="145" viewBox="0 0 146 145" fill="none" xmlns="http://www.w3.org/2000/svg">
<path d="M24.1719 24.1641H40.283V40.2752H24.1719V24.1641Z" fill="white"/>
<path d="M0 64.4444V0H64.4444V64.4444H0ZM16.1111 16.1111V48.3333H48.3333V16.1111H16.1111Z" fill="white"/>
<path d="M80.5625 80.5547H104.729V96.6658H80.5625V80.5547Z" fill="white"/>
<path d="M104.729 96.6658H120.84V80.5547H145.007V104.721H120.84V112.777H128.896V120.832H145.007V144.999H128.896V128.888H112.785V144.999H80.5625V112.777H96.6736V128.888H104.729V96.6658Z" fill="white"/>
<path d="M120.83 24.1641H104.719V40.2752H120.83V24.1641Z" fill="white"/>
<path d="M80.5625 0V64.4444H145.007V0H80.5625ZM128.896 16.1111V48.3333H96.6736V16.1111H128.896Z" fill="url(#paint0_linear_749_98)"/>
<path d="M24.1719 104.719H40.283V120.83H24.1719V104.719Z" fill="white"/>
<path d="M0 144.999V80.5547H64.4444V144.999H0ZM16.1111 96.6658V128.888H48.3333V96.6658H16.1111Z" fill="white"/>
<defs>
<linearGradient id="paint0_linear_749_98" x1="112.785" y1="0" x2="112.785" y2="64.4444" gradientUnits="userSpaceOnUse">
<stop stop-color="#3D7FA1"/>
<stop offset="1" stop-color="#355F75"/>
</linearGradient>
</defs>
</svg>
