<svg width="38" height="38" viewBox="0 0 38 38" fill="none" xmlns="http://www.w3.org/2000/svg">
<path d="M19 38C8.50606 38 0 29.4939 0 19C0 8.50606 8.50606 0 19 0C29.4939 0 38 8.50606 38 19C38 29.4939 29.4939 38 19 38ZM11.9071 23.0137L12.7906 21.2562C12.8229 21.1883 12.8377 21.1134 12.8336 21.0383C12.8294 20.9632 12.8065 20.8903 12.7668 20.8264C12.726 20.7646 12.6707 20.7138 12.6057 20.6784C12.5407 20.643 12.468 20.6241 12.3939 20.6233H10.4916L15.4755 11.4131L19.9274 19.5118C20.0058 19.6484 20.1531 19.7386 20.3122 19.7386H22.3167C22.3927 19.7411 22.4679 19.7224 22.534 19.6847C22.6 19.647 22.6543 19.5916 22.6907 19.5249C22.729 19.4577 22.7501 19.3821 22.7521 19.3049C22.7542 19.2276 22.7372 19.1511 22.7026 19.0819L15.8484 6.75806C15.6904 6.47425 15.2368 6.47425 15.0789 6.75806L6.289 22.6052C6.25178 22.6734 6.23327 22.7501 6.23536 22.8277C6.23745 22.9053 6.26005 22.981 6.30088 23.047C6.37925 23.1824 6.5265 23.2619 6.67375 23.2619H11.5104C11.5933 23.2617 11.6744 23.2383 11.7445 23.1942C11.8147 23.1501 11.871 23.0883 11.9071 23.0137ZM31.7074 22.6052L22.9069 6.75688C22.8662 6.68785 22.8082 6.63062 22.7387 6.59084C22.6691 6.55107 22.5904 6.53012 22.5102 6.53006C22.4312 6.53347 22.3543 6.55709 22.2869 6.59867C22.2196 6.64025 22.164 6.69839 22.1255 6.76756L19.9286 11.1744C19.9006 11.2367 19.8861 11.3043 19.8861 11.3727C19.8861 11.4411 19.9006 11.5087 19.9286 11.571L20.8121 13.3261C20.9594 13.6206 21.4463 13.6206 21.6042 13.3261L22.5447 11.4463L27.5179 20.6221H18.1272C17.8897 20.6221 17.6854 20.8145 17.6854 21.0639V22.819C17.6854 23.0565 17.8778 23.2607 18.1272 23.2607H31.3239C31.4 23.2631 31.4753 23.2443 31.5414 23.2063C31.6074 23.1684 31.6616 23.1128 31.6979 23.0458C31.7413 22.9807 31.7654 22.9048 31.7675 22.8266C31.7696 22.7485 31.7496 22.6714 31.7098 22.6041L31.7074 22.6052ZM25.9873 24.3604C25.9481 24.2927 25.892 24.2364 25.8246 24.1969C25.7572 24.1573 25.6807 24.1359 25.6025 24.1347H23.4044C23.3263 24.1359 23.2498 24.1573 23.1823 24.1969C23.1149 24.2364 23.0589 24.2927 23.0197 24.3604C22.9799 24.4277 22.96 24.5048 22.9621 24.583C22.9642 24.6611 22.9882 24.7371 23.0316 24.8021L23.9483 26.3316H14.0481L18.5108 18.6295C18.5488 18.5666 18.5699 18.4949 18.572 18.4215C18.5741 18.348 18.557 18.2753 18.5226 18.2103L17.6391 16.454C17.6047 16.3813 17.5499 16.3202 17.4814 16.278C17.4129 16.2359 17.3336 16.2145 17.2532 16.2165C17.1725 16.2125 17.0923 16.2316 17.022 16.2716C16.9518 16.3115 16.8944 16.3707 16.8566 16.4421L13.3451 22.5934L9.823 28.3136C9.78218 28.3796 9.75957 28.4552 9.75748 28.5328C9.7554 28.6104 9.77391 28.6872 9.81113 28.7553C9.85017 28.8234 9.9063 28.8802 9.97399 28.9199C10.0417 28.9597 10.1186 28.9812 10.1971 28.9821H27.7994C27.8755 28.9845 27.9508 28.9657 28.0169 28.9277C28.0829 28.8897 28.1371 28.8342 28.1734 28.7672C28.2124 28.7001 28.233 28.6239 28.233 28.5463C28.233 28.4687 28.2124 28.3925 28.1734 28.3254L25.9873 24.3604Z" fill="url(#paint0_linear_804_974)"/>
<defs>
<linearGradient id="paint0_linear_804_974" x1="19" y1="0" x2="19" y2="38" gradientUnits="userSpaceOnUse">
<stop stop-color="#73D382"/>
<stop offset="1" stop-color="#3EA573"/>
</linearGradient>
</defs>
</svg>
