<svg width="30" height="30" viewBox="0 0 30 30" fill="none" xmlns="http://www.w3.org/2000/svg">
<path d="M15 30C6.71531 30 0 23.2847 0 15C0 6.71531 6.71531 0 15 0C23.2847 0 30 6.71531 30 15C30 23.2847 23.2847 30 15 30ZM9.40031 18.1687L10.0978 16.7813C10.1234 16.7276 10.1351 16.6685 10.1318 16.6092C10.1285 16.5499 10.1104 16.4923 10.0791 16.4419C10.0469 16.3931 10.0032 16.353 9.95185 16.325C9.90052 16.2971 9.84313 16.2822 9.78469 16.2816H8.28281L12.2175 9.01031L15.7322 15.4041C15.7941 15.5119 15.9103 15.5831 16.0359 15.5831H17.6184C17.6785 15.5851 17.7378 15.5704 17.79 15.5406C17.8421 15.5108 17.885 15.4671 17.9138 15.4144C17.9439 15.3613 17.9606 15.3017 17.9622 15.2407C17.9638 15.1797 17.9504 15.1193 17.9231 15.0647L12.5119 5.33531C12.3872 5.11125 12.0291 5.11125 11.9044 5.33531L4.965 17.8463C4.93562 17.9 4.92101 17.9606 4.92265 18.0219C4.9243 18.0831 4.94215 18.1429 4.97438 18.195C5.03625 18.3019 5.1525 18.3647 5.26875 18.3647H9.08719C9.15259 18.3645 9.21663 18.346 9.272 18.3112C9.32737 18.2764 9.37183 18.2276 9.40031 18.1687ZM25.0322 17.8463L18.0844 5.33438C18.0523 5.27988 18.0065 5.2347 17.9516 5.2033C17.8967 5.1719 17.8345 5.15536 17.7713 5.15531C17.7088 5.158 17.6481 5.17665 17.5949 5.20948C17.5418 5.2423 17.4979 5.28821 17.4675 5.34281L15.7331 8.82187C15.711 8.8711 15.6995 8.92446 15.6995 8.97844C15.6995 9.03241 15.711 9.08578 15.7331 9.135L16.4306 10.5206C16.5469 10.7531 16.9313 10.7531 17.0559 10.5206L17.7984 9.03656L21.7247 16.2806H14.3109C14.1234 16.2806 13.9622 16.4325 13.9622 16.6294V18.015C13.9622 18.2025 14.1141 18.3638 14.3109 18.3638H24.7294C24.7895 18.3656 24.8489 18.3507 24.9011 18.3208C24.9532 18.2908 24.996 18.2469 25.0247 18.1941C25.0589 18.1427 25.0779 18.0827 25.0796 18.021C25.0812 17.9593 25.0655 17.8984 25.0341 17.8453L25.0322 17.8463ZM20.5163 19.2319C20.4853 19.1785 20.4411 19.134 20.3879 19.1028C20.3346 19.0716 20.2742 19.0547 20.2125 19.0537H18.4772C18.4155 19.0547 18.3551 19.0716 18.3018 19.1028C18.2486 19.134 18.2044 19.1785 18.1734 19.2319C18.142 19.285 18.1263 19.3459 18.1279 19.4076C18.1296 19.4693 18.1486 19.5293 18.1828 19.5806L18.9066 20.7881H11.0906L14.6138 14.7075C14.6438 14.6579 14.6604 14.6013 14.6621 14.5433C14.6637 14.4853 14.6503 14.4278 14.6231 14.3766L13.9256 12.99C13.8984 12.9326 13.8552 12.8844 13.8011 12.8511C13.747 12.8178 13.6844 12.8009 13.6209 12.8025C13.5572 12.7994 13.4939 12.8144 13.4385 12.846C13.383 12.8775 13.3377 12.9242 13.3078 12.9806L10.5356 17.8369L7.755 22.3528C7.72277 22.4049 7.70492 22.4647 7.70328 22.5259C7.70163 22.5872 7.71624 22.6478 7.74563 22.7016C7.77645 22.7553 7.82076 22.8001 7.8742 22.8315C7.92763 22.8629 7.98834 22.8799 8.05031 22.8806H21.9469C22.007 22.8825 22.0664 22.8676 22.1186 22.8377C22.1707 22.8077 22.2135 22.7638 22.2422 22.7109C22.273 22.658 22.2892 22.5978 22.2892 22.5366C22.2892 22.4753 22.273 22.4151 22.2422 22.3622L20.5163 19.2319Z" fill="#5E5E5E"/>
</svg>