<svg width="104" height="104" viewBox="0 0 104 104" fill="none" xmlns="http://www.w3.org/2000/svg">
<path d="M98.8988 6.58664C95.3331 2.5257 90.0341 0 84.1903 0C78.6437 0 73.5922 2.27809 69.977 5.99236C67.897 8.12187 66.3123 10.6971 65.3713 13.5695C64.7275 15.5504 64.3809 17.6304 64.3809 19.8094C64.3809 23.5237 65.4209 27.0399 67.2532 30.0113C68.2437 31.6951 69.5313 33.2303 71.017 34.518C74.4837 37.6875 79.0894 39.6189 84.1903 39.6189C86.3693 39.6189 88.4493 39.2722 90.3808 38.5789C94.9369 37.1427 98.7503 34.0227 101.127 30.0113C102.167 28.3275 102.96 26.3961 103.405 24.4151C103.802 22.9294 104 21.3942 104 19.8094C104 14.758 102.068 10.1028 98.8988 6.58664ZM91.5693 23.4247H87.9046V27.2875C87.9046 29.318 86.2208 31.0018 84.1903 31.0018C82.1598 31.0018 80.476 29.318 80.476 27.2875V23.4247H76.8113C74.7808 23.4247 73.097 21.7409 73.097 19.7104C73.097 17.6799 74.7808 15.9961 76.8113 15.9961H80.476V12.48C80.476 10.4495 82.1598 8.76568 84.1903 8.76568C86.2208 8.76568 87.9046 10.4495 87.9046 12.48V15.9961H91.5693C93.5998 15.9961 95.2836 17.6799 95.2836 19.7104C95.2836 21.7409 93.6493 23.4247 91.5693 23.4247Z" fill="white"/>
<path d="M99.0472 54.4758C99.0472 47.9882 97.8092 41.7482 95.4815 36.053C93.9463 37.1425 92.213 37.9844 90.3806 38.5787C89.8358 38.7768 89.2911 38.9254 88.6968 39.0739C90.5787 43.8282 91.6187 49.0282 91.6187 54.4758C91.6187 65.9652 86.9635 76.4147 79.4359 84.0414C77.9997 82.209 76.1673 80.5252 73.9883 79.089C60.5674 70.0757 38.5789 70.0757 25.059 79.089C22.8799 80.5252 21.0971 82.209 19.6114 84.0414C12.0838 76.4147 7.42854 65.9652 7.42854 54.4758C7.42854 31.2492 26.297 12.3807 49.5236 12.3807C54.9217 12.3807 60.1217 13.4207 64.8759 15.3026C65.0245 14.7083 65.1731 14.1635 65.3712 13.5693C65.9655 11.7369 66.8074 10.0531 67.9464 8.51785C62.2512 6.19024 56.0112 4.95215 49.5236 4.95215C22.2361 4.95215 0 27.1883 0 54.4758C0 68.8376 6.19045 81.7633 15.9961 90.8261C15.9961 90.8756 15.9961 90.8756 15.9466 90.9252C16.4418 91.4204 17.0361 91.8166 17.5314 92.2623C17.8285 92.5099 18.0761 92.7575 18.3733 92.9556C19.2647 93.6985 20.2552 94.3918 21.1961 95.0851C21.5428 95.3328 21.8399 95.5309 22.1866 95.7785C23.1275 96.4223 24.118 97.0166 25.158 97.5613C25.5047 97.7594 25.9009 98.007 26.2475 98.2051C27.238 98.7499 28.278 99.2451 29.3675 99.6908C29.7637 99.8889 30.1599 100.087 30.5561 100.236C31.6456 100.681 32.7351 101.077 33.8246 101.424C34.2208 101.573 34.617 101.721 35.0132 101.82C36.2018 102.167 37.3903 102.464 38.5789 102.761C38.9256 102.86 39.2722 102.959 39.6684 103.009C41.0551 103.306 42.4417 103.504 43.8779 103.653C44.076 103.653 44.2741 103.702 44.4722 103.752C46.156 103.9 47.8398 103.999 49.5236 103.999C51.2074 103.999 52.8912 103.9 54.5255 103.752C54.7236 103.752 54.9217 103.702 55.1198 103.653C56.556 103.504 57.9426 103.306 59.3293 103.009C59.676 102.959 60.0226 102.811 60.4188 102.761C61.6074 102.464 62.8455 102.217 63.9845 101.82C64.3807 101.672 64.7769 101.523 65.1731 101.424C66.2626 101.028 67.4016 100.681 68.4416 100.236C68.8378 100.087 69.234 99.8889 69.6302 99.6908C70.6702 99.2451 71.7102 98.7499 72.7502 98.2051C73.1464 98.007 73.4931 97.7594 73.8397 97.5613C74.8302 96.967 75.8207 96.4223 76.8111 95.7785C77.1578 95.5804 77.4549 95.3328 77.8016 95.0851C78.7921 94.3918 79.733 93.6985 80.6245 92.9556C80.9216 92.708 81.1692 92.4604 81.4664 92.2623C82.0111 91.8166 82.5559 91.3709 83.0511 90.9252C83.0511 90.8756 83.0511 90.8756 83.0016 90.8261C92.8568 81.7633 99.0472 68.8376 99.0472 54.4758Z" fill="white"/>
<path d="M49.5245 29.3662C39.2731 29.3662 30.9531 37.6862 30.9531 47.9376C30.9531 57.9909 38.8274 66.1623 49.2769 66.4595H49.7226H50.0692H50.1683C60.1721 66.1128 68.0463 57.9909 68.0958 47.9376C68.0958 37.6862 59.7759 29.3662 49.5245 29.3662Z" fill="white"/>
</svg>
