<svg width="27" height="27" viewBox="0 0 27 27" fill="none" xmlns="http://www.w3.org/2000/svg">
<path d="M16.4178 0.574106C15.191 -0.0641694 13.7603 -0.174193 12.4568 0.26389L3.85802 2.56792C2.50091 2.84278 1.31693 3.65337 0.573585 4.81954C-0.0646884 6.04638 -0.174721 7.47703 0.265827 8.78973L2.56986 17.3885C2.84469 18.7456 3.65528 19.9296 4.82148 20.6729C6.04832 21.3111 7.47897 21.4212 8.7917 20.9806L17.3905 18.6766C18.7384 18.4042 19.9316 17.5911 20.6749 16.4249C21.304 15.2006 21.4232 13.7675 20.9827 12.4548L18.6787 3.85602C18.3946 2.50137 17.584 1.31742 16.4178 0.574106Z" fill="white"/>
<g opacity="0.5">
<path d="M12.0763 2.99774L5.59165 4.80654C3.23953 5.46264 2.20784 7.05565 2.78665 9.13069L4.74699 16.1586C5.33529 18.2677 7.03499 19.0695 9.38712 18.4134L15.8717 16.6046C18.2618 15.9379 19.2624 14.3829 18.6741 12.2739L16.7137 5.24594C16.1349 3.17087 14.4663 2.33107 12.0763 2.99774Z" fill="url(#paint0_linear_748_296)"/>
</g>
<path d="M25.0762 6.48295C23.9677 5.4677 22.4965 4.94971 21.0047 5.04294H11.3285C9.82628 4.94971 8.35517 5.4677 7.24665 6.48295C6.23137 7.59147 5.71338 9.06258 5.80662 10.5648V20.2409C5.71338 21.7431 6.23137 23.2142 7.24665 24.3227C8.35517 25.338 9.82628 25.856 11.3285 25.7627H21.0047C22.4965 25.856 23.978 25.338 25.0865 24.3227C26.0914 23.2142 26.6198 21.7431 26.5265 20.2409V10.5648C26.6094 9.06258 26.0914 7.59147 25.0762 6.48295Z" fill="url(#paint1_linear_748_296)"/>
<mask id="mask0_748_296" style="mask-type:luminance" maskUnits="userSpaceOnUse" x="5" y="4" width="22" height="23">
<path d="M5.51367 4.74902H27V26.2353H5.51367V4.74902Z" fill="white"/>
<path d="M25.0762 6.48197C23.9677 5.46672 22.4965 4.94873 21.0047 5.04197H11.3285C9.82628 4.94873 8.35517 5.46672 7.24665 6.48197C6.23137 7.5905 5.71338 9.0616 5.80662 10.5638V20.2399C5.71338 21.7421 6.23137 23.2132 7.24665 24.3217C8.35517 25.337 9.82628 25.855 11.3285 25.7617H21.0047C22.4965 25.855 23.978 25.337 25.0865 24.3217C26.0914 23.2132 26.6198 21.7421 26.5265 20.2399V10.5638C26.6094 9.0616 26.0914 7.5905 25.0762 6.48197Z" fill="black"/>
</mask>
<g mask="url(#mask0_748_296)">
<path d="M24.8857 6.69097C25.0009 6.79643 25.1797 6.78857 25.2851 6.67342C25.3906 6.5583 25.3828 6.37945 25.2676 6.274L24.8857 6.69097ZM21.0052 5.04247V5.32518C21.0111 5.32518 21.017 5.32498 21.0228 5.32462L21.0052 5.04247ZM11.329 5.04247L11.3115 5.32462C11.3173 5.32498 11.3231 5.32518 11.329 5.32518V5.04247ZM7.24715 6.48247L7.0562 6.274C7.0501 6.27957 7.04424 6.28542 7.03865 6.29153L7.24715 6.48247ZM5.80711 10.5643H6.08983C6.08983 10.5585 6.08963 10.5526 6.08929 10.5468L5.80711 10.5643ZM5.80711 20.2404L6.08929 20.2579C6.08963 20.2521 6.08983 20.2463 6.08983 20.2404H5.80711ZM7.24715 24.3222L7.03865 24.5132C7.04424 24.5193 7.0501 24.5251 7.0562 24.5307L7.24715 24.3222ZM11.329 25.7622V25.4795C11.3231 25.4795 11.3173 25.4797 11.3115 25.4801L11.329 25.7622ZM21.0052 25.7622L21.0228 25.4801C21.017 25.4797 21.0111 25.4795 21.0052 25.4795V25.7622ZM25.087 24.3222L25.278 24.5307C25.2844 24.5248 25.2906 24.5186 25.2965 24.5121L25.087 24.3222ZM26.527 20.2404H26.2443C26.2443 20.2463 26.2446 20.2521 26.2449 20.2579L26.527 20.2404ZM26.527 10.5643L26.2449 10.5487C26.2446 10.5539 26.2443 10.5591 26.2443 10.5643H26.527ZM25.2851 6.29153C25.1797 6.17638 25.0009 6.16855 24.8857 6.274C24.7706 6.37945 24.7627 6.5583 24.8682 6.67342L25.2851 6.29153ZM25.2676 6.274C24.1025 5.20687 22.5561 4.66227 20.9876 4.76029L21.0228 5.32462C22.438 5.23618 23.8338 5.72757 24.8857 6.69097L25.2676 6.274ZM21.0052 4.75975H11.329V5.32518H21.0052V4.75975ZM11.3465 4.76029C9.768 4.6623 8.22155 5.20667 7.0562 6.274L7.43809 6.69097C8.48976 5.72774 9.88555 5.23613 11.3115 5.32462L11.3465 4.76029ZM7.03865 6.29153C5.97131 7.45688 5.42695 9.00332 5.52494 10.5818L6.08929 10.5468C6.00077 9.12088 6.49241 7.72512 7.45562 6.67342L7.03865 6.29153ZM5.5244 10.5643V20.2404H6.08983V10.5643H5.5244ZM5.52494 20.2229C5.42695 21.8014 5.97131 23.3478 7.03865 24.5132L7.45562 24.1313C6.49241 23.0796 6.00077 21.6838 6.08929 20.2579L5.52494 20.2229ZM7.0562 24.5307C8.22155 25.598 9.768 26.1424 11.3465 26.0443L11.3115 25.4801C9.88555 25.5686 8.48976 25.077 7.43809 24.1137L7.0562 24.5307ZM11.329 26.0449H21.0052V25.4795H11.329V26.0449ZM20.9876 26.0443C22.5556 26.1424 24.1125 25.5982 25.278 24.5307L24.8961 24.1137C23.8445 25.0768 22.4385 25.5685 21.0228 25.4801L20.9876 26.0443ZM25.2965 24.5121C26.3517 23.3481 26.9073 21.8026 26.8092 20.2229L26.2449 20.2579C26.3334 21.6826 25.8321 23.0793 24.8776 24.1323L25.2965 24.5121ZM26.8097 20.2404V10.5643H26.2443V20.2404H26.8097ZM26.8095 10.5799C26.8962 9.00276 26.3526 7.4569 25.2851 6.29153L24.8682 6.67342C25.8313 7.72506 26.3235 9.12144 26.2449 10.5487L26.8095 10.5799Z" fill="url(#paint2_linear_748_296)"/>
</g>
<path d="M22.0818 13.4347L15.1095 20.4276C14.7469 20.7798 14.2703 20.9767 13.7731 20.9767H11.3385C11.2038 20.9767 11.0795 20.9249 10.9862 20.8316C10.893 20.7384 10.8516 20.6141 10.8516 20.4794L10.9137 18.0241C10.9241 17.5372 11.1209 17.0814 11.4628 16.7395L16.4045 11.7978C16.4874 11.7149 16.6324 11.7149 16.7153 11.7978L18.4454 13.5176C18.5594 13.6315 18.7252 13.704 18.9013 13.704C19.2846 13.704 19.585 13.3932 19.585 13.0203C19.585 12.8338 19.5125 12.668 19.3986 12.5437C19.3675 12.5023 17.7202 10.8654 17.7202 10.8654C17.6166 10.7618 17.6166 10.5857 17.7202 10.4821L18.4143 9.77762C19.0567 9.13532 20.0927 9.13532 20.735 9.77762L22.0818 11.1244C22.7137 11.7564 22.7137 12.7924 22.0818 13.4347Z" fill="url(#paint3_linear_748_296)"/>
<mask id="mask1_748_296" style="mask-type:luminance" maskUnits="userSpaceOnUse" x="10" y="9" width="13" height="12">
<path d="M22.0818 13.4347L15.1095 20.4276C14.7469 20.7798 14.2703 20.9767 13.7731 20.9767H11.3385C11.2038 20.9767 11.0795 20.9249 10.9862 20.8316C10.893 20.7384 10.8516 20.6141 10.8516 20.4794L10.9137 18.0241C10.9241 17.5372 11.1209 17.0814 11.4628 16.7395L16.4045 11.7978C16.4874 11.7149 16.6324 11.7149 16.7153 11.7978L18.4454 13.5176C18.5594 13.6315 18.7252 13.704 18.9013 13.704C19.2846 13.704 19.585 13.3932 19.585 13.0203C19.585 12.8338 19.5125 12.668 19.3986 12.5437C19.3675 12.5023 17.7202 10.8654 17.7202 10.8654C17.6166 10.7618 17.6166 10.5857 17.7202 10.4821L18.4143 9.77762C19.0567 9.13532 20.0927 9.13532 20.735 9.77762L22.0818 11.1244C22.7137 11.7564 22.7137 12.7924 22.0818 13.4347Z" fill="white" fill-opacity="0.5"/>
</mask>
<g mask="url(#mask1_748_296)">
<path d="M15.1094 20.4275L15.1488 20.4681L15.1495 20.4674L15.1094 20.4275ZM10.8515 20.4793L10.7949 20.4779V20.4793H10.8515ZM19.3985 12.5436L19.3532 12.5775L19.3549 12.5798L19.3568 12.5818L19.3985 12.5436ZM17.7201 10.482L17.7601 10.522L17.7604 10.5217L17.7201 10.482ZM18.4142 9.77752L18.3743 9.73754L18.374 9.73785L18.4142 9.77752ZM22.0416 13.3946L15.0694 20.3876L15.1495 20.4674L22.1217 13.4745L22.0416 13.3946ZM15.07 20.3869C14.7177 20.7292 14.2551 20.92 13.773 20.92V21.0331C14.2854 21.0331 14.7759 20.8303 15.1488 20.4681L15.07 20.3869ZM13.773 20.92H11.3384V21.0331H13.773V20.92ZM11.3384 20.92C11.2186 20.92 11.1087 20.8741 11.0261 20.7916L10.9462 20.8715C11.0501 20.9754 11.1888 21.0331 11.3384 21.0331V20.92ZM11.0261 20.7916C10.9456 20.711 10.908 20.6023 10.908 20.4793H10.7949C10.7949 20.6257 10.8402 20.7656 10.9462 20.8715L11.0261 20.7916ZM10.908 20.4807L10.9701 18.0254L10.8571 18.0226L10.7949 20.4779L10.908 20.4807ZM10.9701 18.0254C10.9802 17.5532 11.171 17.111 11.5027 16.7794L11.4227 16.6994C11.0706 17.0515 10.8678 17.521 10.8571 18.0226L10.9701 18.0254ZM11.5027 16.7794L16.4444 11.8377L16.3644 11.7577L11.4227 16.6994L11.5027 16.7794ZM16.4444 11.8377C16.5052 11.7769 16.6144 11.7769 16.6752 11.8377L16.7552 11.7577C16.6502 11.6528 16.4694 11.6528 16.3644 11.7577L16.4444 11.8377ZM16.6752 11.8377L18.4055 13.5575L18.4853 13.4775L16.7552 11.7577L16.6752 11.8377ZM18.4055 13.5575C18.5299 13.682 18.7099 13.7605 18.9012 13.7605V13.6474C18.7402 13.6474 18.5888 13.581 18.4853 13.4775L18.4055 13.5575ZM18.9012 13.7605C19.3163 13.7605 19.6415 13.4238 19.6415 13.0202H19.5284C19.5284 13.3625 19.2527 13.6474 18.9012 13.6474V13.7605ZM19.6415 13.0202C19.6415 12.8186 19.563 12.6394 19.4401 12.5054L19.3568 12.5818C19.4618 12.6965 19.5284 12.8488 19.5284 13.0202H19.6415ZM19.4437 12.5097C19.439 12.5035 19.4273 12.4912 19.4152 12.4787C19.4012 12.4642 19.3817 12.4443 19.3577 12.4199C19.3095 12.3711 19.2426 12.3037 19.1631 12.224C19.0043 12.0646 18.7954 11.8561 18.5875 11.6489C18.3797 11.4417 18.1728 11.2358 18.0179 11.0817C17.9404 11.0046 17.8759 10.9405 17.8308 10.8956C17.8083 10.8732 17.7906 10.8556 17.7785 10.8436C17.7725 10.8376 17.7678 10.833 17.7647 10.8299C17.7632 10.8284 17.762 10.8272 17.7612 10.8264C17.7608 10.826 17.7605 10.8257 17.7603 10.8255C17.7602 10.8254 17.7601 10.8253 17.7601 10.8253C17.76 10.8253 17.76 10.8252 17.7201 10.8653C17.6803 10.9054 17.6801 10.9053 17.6801 10.9053C17.6801 10.9053 17.6802 10.9053 17.6801 10.9053C17.6802 10.9054 17.6805 10.9056 17.6806 10.9057C17.6808 10.9059 17.6811 10.9062 17.6815 10.9066C17.6823 10.9074 17.6834 10.9086 17.685 10.9101C17.6881 10.9132 17.6927 10.9178 17.6988 10.9238C17.7109 10.9358 17.7285 10.9534 17.7511 10.9758C17.7962 11.0207 17.8607 11.0848 17.9381 11.1618C18.093 11.3159 18.2999 11.5218 18.5077 11.729C18.7156 11.9362 18.9243 12.1446 19.0831 12.3038C19.1624 12.3834 19.2292 12.4507 19.2771 12.4993C19.3011 12.5236 19.3202 12.5432 19.3338 12.5572C19.3492 12.5732 19.354 12.5786 19.3532 12.5775L19.4437 12.5097ZM17.7603 10.8255C17.6788 10.744 17.6786 10.6035 17.7601 10.522L17.6801 10.442C17.5545 10.5677 17.5545 10.7796 17.6801 10.9053L17.7603 10.8255ZM17.7604 10.5217L18.4545 9.81721L18.374 9.73785L17.6799 10.4423L17.7604 10.5217ZM18.4542 9.81752C19.0745 9.19727 20.0747 9.19727 20.6949 9.81752L20.7749 9.73754C20.1105 9.07316 19.0387 9.07316 18.3743 9.73754L18.4542 9.81752ZM20.6949 9.81752L22.0417 11.1643L22.1217 11.0843L20.7749 9.73754L20.6949 9.81752ZM22.0417 11.1643C22.6514 11.774 22.6519 12.7744 22.0414 13.3949L22.122 13.4742C22.7754 12.8101 22.7759 11.7385 22.1217 11.0843L22.0417 11.1643Z" fill="url(#paint4_linear_748_296)" fill-opacity="0.5"/>
</g>
<defs>
<linearGradient id="paint0_linear_748_296" x1="10.7338" y1="2.77344" x2="10.7338" y2="18.6366" gradientUnits="userSpaceOnUse">
<stop stop-color="#3D7FA1"/>
<stop offset="1" stop-color="#355F75"/>
</linearGradient>
<linearGradient id="paint1_linear_748_296" x1="16.1665" y1="5.03223" x2="16.1665" y2="25.7734" gradientUnits="userSpaceOnUse">
<stop stop-color="#3D7FA1"/>
<stop offset="1" stop-color="#355F75"/>
</linearGradient>
<linearGradient id="paint2_linear_748_296" x1="9.09805" y1="7.44811" x2="22.3287" y2="23.8347" gradientUnits="userSpaceOnUse">
<stop stop-color="white" stop-opacity="0.25"/>
<stop offset="1" stop-color="white" stop-opacity="0"/>
</linearGradient>
<linearGradient id="paint3_linear_748_296" x1="21.7259" y1="11.4052" x2="8.68863" y2="11.8311" gradientUnits="userSpaceOnUse">
<stop stop-color="white"/>
<stop offset="1" stop-color="white" stop-opacity="0.2"/>
</linearGradient>
<linearGradient id="paint4_linear_748_296" x1="12.1123" y1="13.2141" x2="22.0507" y2="13.2691" gradientUnits="userSpaceOnUse">
<stop stop-color="white"/>
<stop offset="1" stop-color="white" stop-opacity="0"/>
</linearGradient>
</defs>
</svg>
