<svg width="55" height="56" viewBox="0 0 55 56" fill="none" xmlns="http://www.w3.org/2000/svg">
<path d="M49.6846 55.0015H4.58345C2.05339 55.0015 0 52.9481 0 50.418V11.2708C0 8.63071 2.14047 6.49023 4.78054 6.49023H49.4829C52.123 6.49023 54.2635 8.63071 54.2635 11.2708V50.418C54.2681 52.9481 52.2147 55.0015 49.6846 55.0015Z" fill="url(#paint0_linear_1032_90)"/>
<path d="M54.2681 21.948H0V3.70582C0 1.67994 1.64088 0.0390625 3.66676 0.0390625H50.6013C52.6272 0.0390625 54.2681 1.67994 54.2681 3.70582V21.948Z" fill="url(#paint1_linear_1032_90)"/>
<path opacity="0.2" d="M50.3355 1.37504C51.7472 1.37504 52.893 2.5209 52.893 3.9326V50.0513C52.893 52.0038 51.3071 53.5897 49.3546 53.5897H4.91346C2.96091 53.5897 1.37504 52.0038 1.37504 50.0513V3.9326C1.37504 2.5209 2.5209 1.37504 3.9326 1.37504H50.3355ZM50.3355 0H3.9326C1.76005 0 0 1.76005 0 3.9326V50.0513C0 52.7647 2.20006 54.9647 4.91346 54.9647H49.3546C52.068 54.9647 54.2681 52.7647 54.2681 50.0513V3.9326C54.2681 1.76005 52.508 0 50.3355 0Z" fill="#424242"/>
<path d="M36.3981 37.0436H35.1193C34.8259 37.0436 34.583 36.8053 34.583 36.5073V35.3019C34.583 35.0086 34.8213 34.7656 35.1193 34.7656H36.3981C36.6914 34.7656 36.9343 35.004 36.9343 35.3019V36.5073C36.9343 36.8007 36.696 37.0436 36.3981 37.0436Z" fill="#9E9E9E"/>
<path d="M42.7965 37.0436H41.5177C41.2244 37.0436 40.9814 36.8053 40.9814 36.5073V35.3019C40.9814 35.0086 41.2198 34.7656 41.5177 34.7656H42.7965C43.0898 34.7656 43.3328 35.004 43.3328 35.3019V36.5073C43.3328 36.8007 43.0898 37.0436 42.7965 37.0436Z" fill="#9E9E9E"/>
<path d="M49.194 37.0436H47.9152C47.6218 37.0436 47.3789 36.8053 47.3789 36.5073V35.3019C47.3789 35.0086 47.6172 34.7656 47.9152 34.7656H49.194C49.4873 34.7656 49.7302 35.004 49.7302 35.3019V36.5073C49.7256 36.8007 49.4873 37.0436 49.194 37.0436Z" fill="#9E9E9E"/>
<path d="M36.3981 42.694H35.1193C34.8259 42.694 34.583 42.4557 34.583 42.1577V40.9523C34.583 40.6589 34.8213 40.416 35.1193 40.416H36.3981C36.6914 40.416 36.9343 40.6544 36.9343 40.9523V42.1577C36.9343 42.4511 36.696 42.694 36.3981 42.694Z" fill="#9E9E9E"/>
<path d="M42.7965 42.694H41.5177C41.2244 42.694 40.9814 42.4557 40.9814 42.1577V40.9523C40.9814 40.6589 41.2198 40.416 41.5177 40.416H42.7965C43.0898 40.416 43.3328 40.6544 43.3328 40.9523V42.1577C43.3328 42.4511 43.0898 42.694 42.7965 42.694Z" fill="#9E9E9E"/>
<path d="M49.194 42.694H47.9152C47.6218 42.694 47.3789 42.4557 47.3789 42.1577V40.9523C47.3789 40.6589 47.6172 40.416 47.9152 40.416H49.194C49.4873 40.416 49.7302 40.6544 49.7302 40.9523V42.1577C49.7256 42.4511 49.4873 42.694 49.194 42.694Z" fill="#9E9E9E"/>
<path d="M36.3981 48.3463H35.1193C34.8259 48.3463 34.583 48.108 34.583 47.8101V46.6046C34.583 46.3113 34.8213 46.0684 35.1193 46.0684H36.3981C36.6914 46.0684 36.9343 46.3067 36.9343 46.6046V47.8101C36.9343 48.1034 36.696 48.3463 36.3981 48.3463Z" fill="#9E9E9E"/>
<path d="M42.7965 48.3463H41.5177C41.2244 48.3463 40.9814 48.108 40.9814 47.8101V46.6046C40.9814 46.3113 41.2198 46.0684 41.5177 46.0684H42.7965C43.0898 46.0684 43.3328 46.3067 43.3328 46.6046V47.8101C43.3328 48.1034 43.0898 48.3463 42.7965 48.3463Z" fill="#9E9E9E"/>
<path d="M49.194 48.3463H47.9152C47.6218 48.3463 47.3789 48.108 47.3789 47.8101V46.6046C47.3789 46.3113 47.6172 46.0684 47.9152 46.0684H49.194C49.4873 46.0684 49.7302 46.3067 49.7302 46.6046V47.8101C49.7256 48.1034 49.4873 48.3463 49.194 48.3463Z" fill="#9E9E9E"/>
<path d="M18.3711 6.0957H20.2641V12.453C20.2641 13.0396 20.1357 13.553 19.8745 14.0022C19.6132 14.4513 19.2511 14.7951 18.779 15.038C18.3069 15.2809 17.7752 15.4047 17.184 15.4047C16.2123 15.4047 15.456 15.1572 14.9106 14.6622C14.3697 14.1672 14.0947 13.4705 14.0947 12.563H16.0014C16.0014 13.0121 16.0977 13.3467 16.2856 13.5576C16.4735 13.773 16.7715 13.8784 17.1794 13.8784C17.5415 13.8784 17.8302 13.7547 18.0457 13.5071C18.2611 13.2596 18.3665 12.9067 18.3665 12.4484V6.0957H18.3711Z" fill="white"/>
<path d="M25.8514 14.5897C25.4022 15.1351 24.7788 15.4101 23.9859 15.4101C23.2526 15.4101 22.698 15.1993 22.3129 14.7776C21.9279 14.3559 21.7308 13.7417 21.7217 12.9305V8.45703H23.5459V12.8709C23.5459 13.5813 23.8713 13.9388 24.5176 13.9388C25.1364 13.9388 25.5626 13.7234 25.7918 13.2926V8.45703H27.6206V15.2818H25.9064L25.8514 14.5897Z" fill="white"/>
<path d="M30.9186 15.2793H29.0898V5.58984H30.9186V15.2793Z" fill="white"/>
<path d="M34.967 12.7013L36.2274 8.45703H38.1846L35.4391 16.3452L35.2878 16.7027C34.8799 17.5964 34.2061 18.041 33.2711 18.041C33.0053 18.041 32.7348 17.9998 32.4644 17.9219V16.5422L32.744 16.5468C33.0878 16.5468 33.3444 16.4918 33.5186 16.391C33.6882 16.2856 33.8211 16.1114 33.9174 15.8685L34.1328 15.3047L31.7402 8.46161H33.702L34.967 12.7013Z" fill="white"/>
<path d="M13.7622 48.8347H10.3429V35.639L6.26367 36.8994V34.1448L13.3955 31.5918H13.7622V48.8347Z" fill="#2F2F2F"/>
<path d="M31.0652 33.5219L24.4054 48.8353H20.7982L27.4717 34.3699H18.9053V31.6152H31.0652V33.5219Z" fill="#2F2F2F"/>
<defs>
<linearGradient id="paint0_linear_1032_90" x1="27.134" y1="21.8324" x2="27.134" y2="54.8915" gradientUnits="userSpaceOnUse">
<stop stop-color="white"/>
<stop offset="1" stop-color="#C8C9CA"/>
</linearGradient>
<linearGradient id="paint1_linear_1032_90" x1="27.134" y1="0.0390625" x2="27.134" y2="21.948" gradientUnits="userSpaceOnUse">
<stop stop-color="#3D7FA1"/>
<stop offset="1" stop-color="#355F75"/>
</linearGradient>
</defs>
</svg>
