<svg width="65" height="48" viewBox="0 0 65 48" fill="none" xmlns="http://www.w3.org/2000/svg">
<path d="M17.7493 41.815L46.3164 1.00547C46.4798 0.756292 46.6915 0.542446 46.9391 0.376612C47.1866 0.210778 47.4649 0.0963319 47.7575 0.0400584C48.0501 -0.0162151 48.351 -0.013171 48.6424 0.0490112C48.9338 0.111193 49.2098 0.231248 49.4539 0.402057C49.6981 0.572866 49.9054 0.790953 50.0637 1.04339C50.222 1.29583 50.328 1.57747 50.3754 1.87164C50.4229 2.1658 50.4107 2.46649 50.3398 2.75588C50.2689 3.04527 50.1405 3.31747 49.9624 3.55635L20.0776 46.249C19.9067 46.494 19.6882 46.7021 19.4352 46.8609C19.1822 47.0197 18.8998 47.1259 18.6048 47.1733C18.3099 47.2206 18.0085 47.2081 17.7185 47.1365C17.4284 47.0649 17.1558 46.9357 16.9168 46.7565L0.890367 34.7367C0.65652 34.5613 0.459508 34.3416 0.310578 34.09C0.161649 33.8385 0.0637191 33.5601 0.0223805 33.2707C-0.0611068 32.6863 0.0909817 32.0927 0.445188 31.6204C0.799394 31.1482 1.3267 30.8359 1.91111 30.7524C2.49552 30.669 3.08916 30.821 3.56144 31.1752L17.7493 41.815ZM49.4149 20.5488C48.8245 20.5488 48.2584 20.3143 47.8409 19.8969C47.4235 19.4794 47.189 18.9133 47.189 18.3229C47.189 17.7326 47.4235 17.1664 47.8409 16.749C48.2584 16.3316 48.8245 16.097 49.4149 16.097H62.7702C63.3606 16.097 63.9267 16.3316 64.3442 16.749C64.7616 17.1664 64.9961 17.7326 64.9961 18.3229C64.9961 18.9133 64.7616 19.4794 64.3442 19.8969C63.9267 20.3143 63.3606 20.5488 62.7702 20.5488H49.4149ZM40.5113 33.9042C39.9209 33.9042 39.3548 33.6697 38.9373 33.2522C38.5199 32.8348 38.2854 32.2686 38.2854 31.6783C38.2854 31.088 38.5199 30.5218 38.9373 30.1044C39.3548 29.6869 39.9209 29.4524 40.5113 29.4524H62.7658C63.3561 29.4524 63.9223 29.6869 64.3397 30.1044C64.7572 30.5218 64.9917 31.088 64.9917 31.6783C64.9917 32.2686 64.7572 32.8348 64.3397 33.2522C63.9223 33.6697 63.3561 33.9042 62.7658 33.9042H40.5113ZM31.6077 47.2596C31.0174 47.2596 30.4512 47.025 30.0338 46.6076C29.6163 46.1902 29.3818 45.624 29.3818 45.0337C29.3818 44.4433 29.6163 43.8772 30.0338 43.4597C30.4512 43.0423 31.0174 42.8078 31.6077 42.8078H62.7658C63.3561 42.8078 63.9223 43.0423 64.3397 43.4597C64.7572 43.8772 64.9917 44.4433 64.9917 45.0337C64.9917 45.624 64.7572 46.1902 64.3397 46.6076C63.9223 47.025 63.3561 47.2596 62.7658 47.2596H31.6077Z" fill="url(#paint0_linear_1145_147)"/>
<defs>
<linearGradient id="paint0_linear_1145_147" x1="32.4981" y1="0" x2="32.4981" y2="47.2596" gradientUnits="userSpaceOnUse">
<stop stop-color="#3D7FA1"/>
<stop offset="1" stop-color="#355F75"/>
</linearGradient>
</defs>
</svg>
