<svg width="62" height="43" viewBox="0 0 62 43" fill="none" xmlns="http://www.w3.org/2000/svg">
<path d="M62 38.8044C61.9908 38.8214 61.9753 38.8333 61.9652 38.8497C61.121 41.0615 58.9951 42.6395 56.486 42.6395H5.53145C5.34021 42.6395 5.16278 42.5947 4.97627 42.5768H4.90215C4.88289 42.5745 4.86739 42.5645 4.84813 42.5622C3.62054 42.4177 2.51563 41.9113 1.63926 41.1298C1.62279 41.1151 1.60086 41.1084 1.58439 41.0937L1.59445 41.086C1.38771 40.8975 1.17273 40.7164 0.994333 40.5001C0.576253 39.9934 0.241498 39.4144 0.0110212 38.7854C0.00738786 38.7803 0.00278559 38.7767 0 38.7713L0.00545006 38.7667C-0.221394 38.14 26.73 17.7765 26.73 17.7765C30.0715 15.2437 31.8488 15.2829 35.2277 17.7765C35.2277 17.7765 62.2185 38.1565 61.9834 38.7918L62 38.8044Z" fill="url(#paint0_radial_737_89)"/>
<path d="M31.0162 15.4369L0.142578 38.592V5.78881C0.142578 2.59144 2.73402 0 5.93139 0H56.101C59.2984 0 61.8898 2.59144 61.8898 5.78881V38.592L31.0162 15.4369Z" fill="url(#paint1_radial_737_89)"/>
<path d="M0.478516 3.80717C0.487478 3.79046 0.502859 3.77883 0.51279 3.7626C1.34411 1.58488 3.43717 0.03125 5.9075 0.03125H56.0769C56.2651 0.03125 56.4398 0.0753343 56.6236 0.0928956H56.6965C56.7154 0.0951968 56.7308 0.105007 56.7497 0.107308C57.9582 0.249616 59.0463 0.748115 59.909 1.51766C59.9252 1.53208 59.9468 1.53886 59.963 1.55327L59.9531 1.5609C60.1567 1.74644 60.3683 1.92472 60.5439 2.13776C60.9554 2.63674 61.2851 3.20682 61.512 3.82594C61.5157 3.83091 61.5202 3.83454 61.5228 3.83987L61.5174 3.84435C61.7407 4.4613 35.2047 24.511 35.2047 24.511C31.9147 27.0048 30.1649 26.966 26.8379 24.511C26.8379 24.511 0.263178 4.44507 0.494624 3.81953L0.478516 3.80717Z" fill="url(#paint2_radial_737_89)"/>
<defs>
<radialGradient id="paint0_radial_737_89" cx="0" cy="0" r="1" gradientUnits="userSpaceOnUse" gradientTransform="translate(31 29.2655) rotate(90) scale(13.3739 31)">
<stop stop-color="#1A2327"/>
<stop offset="1" stop-color="#0F0F0F"/>
</radialGradient>
<radialGradient id="paint1_radial_737_89" cx="0" cy="0" r="1" gradientUnits="userSpaceOnUse" gradientTransform="translate(31.0162 19.296) rotate(90) scale(19.296 30.8736)">
<stop stop-color="#1A2327"/>
<stop offset="1" stop-color="#0F0F0F"/>
</radialGradient>
<radialGradient id="paint2_radial_737_89" cx="0" cy="0" r="1" gradientUnits="userSpaceOnUse" gradientTransform="translate(31.0007 13.199) rotate(90) scale(13.1678 30.5222)">
<stop stop-color="#1A2327"/>
<stop offset="1" stop-color="#0F0F0F"/>
</radialGradient>
</defs>
</svg>
