<svg width="30" height="30" viewBox="0 0 30 30" fill="none" xmlns="http://www.w3.org/2000/svg">
<path fill-rule="evenodd" clip-rule="evenodd" d="M0 15C0 6.71572 6.71572 0 15 0C23.2842 0 30 6.71572 30 15C30 23.2842 23.2842 30 15 30C6.71572 30 0 23.2842 0 15ZM9 12C9 11.1716 9.67158 10.5 10.5 10.5H19.5C20.3284 10.5 21 11.1716 21 12C21 12.8284 20.3284 13.5 19.5 13.5H10.5C9.67158 13.5 9 12.8284 9 12ZM9 18C9 17.1716 9.67158 16.5 10.5 16.5H19.5C20.3284 16.5 21 17.1716 21 18C21 18.8284 20.3284 19.5 19.5 19.5H10.5C9.67158 19.5 9 18.8284 9 18Z" fill="#5E5E5E"/>
</svg>