<svg width="30" height="28" viewBox="0 0 30 28" fill="none" xmlns="http://www.w3.org/2000/svg">
<path d="M18.8479 13.125L7 11V26.7021C7.00014 26.8727 7.03328 27.0416 7.09753 27.1991C7.16178 27.3567 7.25588 27.4998 7.37445 27.6203C7.49303 27.7408 7.63376 27.8364 7.78861 27.9015C7.94346 27.9667 8.10939 28.0001 8.27695 28H28.7209C28.8886 28.0004 29.0548 27.9672 29.2099 27.9022C29.365 27.8371 29.506 27.7416 29.6248 27.6211C29.7436 27.5005 29.8379 27.3573 29.9023 27.1996C29.9667 27.0419 29.9999 26.8729 30 26.7021V20.9167L18.8479 13.125Z" fill="#185C37"/>
<path d="M18.8479 4.49342e-07H8.27695C8.10939 -0.000140155 7.94346 0.032718 7.78861 0.0966991C7.63376 0.16068 7.49303 0.254531 7.37445 0.372893C7.25588 0.491255 7.16178 0.63181 7.09753 0.786534C7.03328 0.941258 7.00014 1.10712 7 1.27465V6.95652L18.8479 13.913L25.1213 16L30 13.913V6.95652L18.8479 4.49342e-07Z" fill="#21A366"/>
<path d="M7 7H19V14H7V7Z" fill="#107C41"/>
<path opacity="0.1" d="M15.6902 6H7V23H15.6902C16.0365 22.9984 16.3681 22.8667 16.6133 22.6334C16.8585 22.4002 16.9974 22.0843 17 21.754V7.24597C16.9974 6.91574 16.8585 6.59978 16.6133 6.36656C16.3681 6.13334 16.0365 6.00164 15.6902 6Z" fill="black"/>
<path opacity="0.2" d="M14.7305 6H7V24H14.7305C15.0662 23.9983 15.3876 23.8588 15.6252 23.6119C15.8628 23.3649 15.9975 23.0304 16 22.6807V7.31926C15.9975 6.96961 15.8628 6.63506 15.6252 6.38812C15.3876 6.14119 15.0662 6.00174 14.7305 6Z" fill="black"/>
<path opacity="0.2" d="M14.7305 6H7V22H14.7305C15.0662 21.9983 15.3876 21.8636 15.6252 21.625C15.8628 21.3864 15.9975 21.0632 16 20.7254V7.27465C15.9975 6.93682 15.8628 6.61359 15.6252 6.375C15.3876 6.13641 15.0662 6.00168 14.7305 6Z" fill="black"/>
<path opacity="0.2" d="M13.7776 6H7V22H13.7776C14.1008 21.9983 14.4103 21.8636 14.6391 21.625C14.8679 21.3864 14.9976 21.0632 15 20.7254V7.27465C14.9976 6.93682 14.8679 6.61359 14.6391 6.375C14.4103 6.13641 14.1008 6.00168 13.7776 6Z" fill="black"/>
<path d="M1.25017 6H13.7498C14.0809 5.99972 14.3986 6.13116 14.633 6.36541C14.8675 6.59967 14.9994 6.91759 15 7.2493V19.7507C14.9994 20.0824 14.8675 20.4003 14.633 20.6346C14.3986 20.8688 14.0809 21.0003 13.7498 21H1.25017C1.08619 21.0003 0.923751 20.9682 0.772154 20.9055C0.620556 20.8429 0.482768 20.7509 0.366665 20.6349C0.250561 20.5189 0.158419 20.3811 0.0955051 20.2293C0.0325907 20.0776 0.000137343 19.915 0 19.7507V7.2493C0.000137343 7.08502 0.0325907 6.92237 0.0955051 6.77065C0.158419 6.61894 0.250561 6.48113 0.366665 6.36511C0.482768 6.24909 0.620556 6.15712 0.772154 6.09448C0.923751 6.03183 1.08619 5.99973 1.25017 6Z" fill="url(#paint0_linear_0_1)"/>
<path d="M4 17.9965L6.53636 13.4855L4.21313 9H6.07879L7.34646 11.8722C7.46364 12.144 7.54849 12.3461 7.58687 12.4808H7.60404C7.68687 12.2625 7.77475 12.0523 7.86667 11.8467L9.22222 9.00465H10.9394L8.55657 13.4646L11 18H9.17273L7.70808 14.8513C7.64007 14.716 7.58229 14.5741 7.53535 14.4274H7.51111C7.4684 14.5704 7.41146 14.7072 7.34141 14.8351L5.83333 17.9965H4Z" fill="white"/>
<path d="M28.7394 1.80784e-06H19V7H30V1.28262C29.9999 1.11395 29.9671 0.946963 29.9037 0.791202C29.8403 0.635441 29.7474 0.49396 29.6303 0.374844C29.5132 0.255728 29.3743 0.161313 29.2214 0.0969954C29.0686 0.0326779 28.9048 -0.000281251 28.7394 1.80784e-06Z" fill="#33C481"/>
<path d="M19 14H30V21H19V14Z" fill="#107C41"/>
<defs>
<linearGradient id="paint0_linear_0_1" x1="2.61134" y1="5.01818" x2="12.4153" y2="21.9664" gradientUnits="userSpaceOnUse">
<stop stop-color="#18884F"/>
<stop offset="0.5" stop-color="#117E43"/>
<stop offset="1" stop-color="#0B6631"/>
</linearGradient>
</defs>
</svg>
