<svg width="24" height="24" viewBox="0 0 24 24" fill="none" xmlns="http://www.w3.org/2000/svg">
<path d="M15.2524 3.08691C12.5638 3.94805 10.7999 6.06494 9.96084 9.4376C8.70225 14.4966 7.14248 15.1417 2.06445 13.3423C3.88818 16.7108 7.58457 18.0614 9.96084 18.0614C12.3371 18.0614 18.4915 14.7529 17.7863 8.46406C17.1742 6.63242 16.3296 4.84004 15.2524 3.08691Z" fill="#D8D8D8"/>
<mask id="mask0_749_39" style="mask-type:luminance" maskUnits="userSpaceOnUse" x="2" y="3" width="16" height="16">
<path d="M15.2544 3.08594C12.5657 3.94707 10.8019 6.06396 9.96279 9.43662C8.7042 14.4956 7.14443 15.1407 2.06641 13.3413C3.89014 16.7099 7.58652 18.0604 9.96279 18.0604C12.3391 18.0604 18.4935 14.752 17.7883 8.46309C17.1762 6.63145 16.3315 4.83906 15.2544 3.08594Z" fill="white"/>
</mask>
<g mask="url(#mask0_749_39)">
<path fill-rule="evenodd" clip-rule="evenodd" d="M-2.39746 -2.40137H26.4025V26.3986H-2.39746V-2.40137Z" fill="white"/>
</g>
<path d="M17.015 15.3242L23.6521 21.9722C24.116 22.4361 24.116 23.1882 23.6521 23.6521C23.1882 24.116 22.4361 24.116 21.9722 23.6521L15.3364 17.0055C13.7262 18.2592 11.7018 19.006 9.50301 19.006C4.25464 19.006 0 14.7514 0 9.50301C0 4.25464 4.25464 0 9.50301 0C14.7514 0 19.006 4.25464 19.006 9.50301C19.006 11.6963 18.263 13.716 17.015 15.3242ZM9.50301 16.6303C13.4393 16.6303 16.6303 13.4393 16.6303 9.50301C16.6303 5.56673 13.4393 2.37575 9.50301 2.37575C5.56673 2.37575 2.37575 5.56673 2.37575 9.50301C2.37575 13.4393 5.56673 16.6303 9.50301 16.6303Z" fill="black"/>
<mask id="mask1_749_39" style="mask-type:luminance" maskUnits="userSpaceOnUse" x="0" y="0" width="24" height="24">
<path d="M17.015 15.3242L23.6521 21.9722C24.116 22.4361 24.116 23.1882 23.6521 23.6521C23.1882 24.116 22.4361 24.116 21.9722 23.6521L15.3364 17.0055C13.7262 18.2592 11.7018 19.006 9.50301 19.006C4.25464 19.006 0 14.7514 0 9.50301C0 4.25464 4.25464 0 9.50301 0C14.7514 0 19.006 4.25464 19.006 9.50301C19.006 11.6963 18.263 13.716 17.015 15.3242ZM9.50301 16.6303C13.4393 16.6303 16.6303 13.4393 16.6303 9.50301C16.6303 5.56673 13.4393 2.37575 9.50301 2.37575C5.56673 2.37575 2.37575 5.56673 2.37575 9.50301C2.37575 13.4393 5.56673 16.6303 9.50301 16.6303Z" fill="white"/>
</mask>
<g mask="url(#mask1_749_39)">
<path fill-rule="evenodd" clip-rule="evenodd" d="M-2.40039 -2.40039H26.3996V26.3996H-2.40039V-2.40039Z" fill="url(#paint0_linear_749_39)"/>
</g>
<defs>
<linearGradient id="paint0_linear_749_39" x1="11.9996" y1="-2.40039" x2="11.9996" y2="26.3996" gradientUnits="userSpaceOnUse">
<stop stop-color="#3D7FA1"/>
<stop offset="1" stop-color="#355F75"/>
</linearGradient>
</defs>
</svg>
