<svg width="58" height="58" viewBox="0 0 58 58" fill="none" xmlns="http://www.w3.org/2000/svg">
<path d="M42.2954 33.8342C41.5879 36.2954 40.1857 38.5004 38.2569 40.1849C36.3281 41.8694 33.9544 42.962 31.4204 43.3317C29.4388 43.6192 27.4195 43.5033 25.4838 42.991C23.5481 42.4787 21.7359 41.5806 20.156 40.3505C18.576 39.1204 17.2609 37.5837 16.2896 35.8327C15.3184 34.0817 14.7109 32.1525 14.5037 30.1609C14.3433 28.1615 14.5994 26.1505 15.2558 24.2551C15.9123 22.3598 16.9549 20.6212 18.3177 19.1494C19.6805 17.6776 21.3338 16.5045 23.1732 15.7044C25.0125 14.9043 26.9979 14.4945 29.0037 14.5009C30.8833 14.5035 32.7451 14.8644 34.4896 15.5642C34.7643 15.6875 35.0751 15.7039 35.3612 15.61C35.6473 15.5161 35.888 15.3188 36.0362 15.0567L39.5162 8.65256C39.5911 8.50505 39.6362 8.34421 39.6488 8.17925C39.6614 8.01429 39.6413 7.84847 39.5896 7.6913C39.538 7.53412 39.4558 7.3887 39.3478 7.26336C39.2399 7.13802 39.1082 7.03523 38.9604 6.9609C35.2235 5.26902 31.1175 4.55617 27.0291 4.88949C22.9406 5.22282 19.0043 6.59134 15.5909 8.86617C12.1774 11.141 9.39918 14.2473 7.51783 17.8924C5.63647 21.5375 4.71392 25.6016 4.83707 29.7017C5.07522 35.7915 7.57847 41.5729 11.8565 45.9135C16.1345 50.2541 21.8789 52.841 27.9646 53.1676C34.3395 53.4503 40.5676 51.2001 45.2898 46.9081C50.0119 42.616 52.8448 36.6305 53.1704 30.2576C53.1704 29.7742 53.1704 26.9951 53.1704 25.4242C53.1642 25.1057 53.0349 24.8019 52.8096 24.5767C52.5844 24.3514 52.2806 24.2221 51.9621 24.2159H30.2121C29.8916 24.2159 29.5842 24.3432 29.3576 24.5698C29.131 24.7964 29.0037 25.1038 29.0037 25.4242V32.6742C29.0037 32.9947 29.131 33.302 29.3576 33.5286C29.5842 33.7553 29.8916 33.8826 30.2121 33.8826H42.2954" fill="url(#paint0_radial_737_103)"/>
<defs>
<radialGradient id="paint0_radial_737_103" cx="0" cy="0" r="1" gradientUnits="userSpaceOnUse" gradientTransform="translate(28.9983 29.0004) rotate(90) scale(24.1909 24.1721)">
<stop stop-color="#1A2327"/>
<stop offset="1" stop-color="#0F0F0F"/>
</radialGradient>
</defs>
</svg>
