<svg width="160" height="128" viewBox="0 0 160 128" fill="none" xmlns="http://www.w3.org/2000/svg">
<path d="M79.9992 99.9996C61.0368 99.9996 45.6868 85.3223 44.2743 66.7225L18.0494 46.4552C14.6019 50.7801 11.4294 55.3526 8.86943 60.3525C8.29754 61.4838 7.99957 62.7337 7.99957 64.0013C7.99957 65.2689 8.29754 66.5187 8.86943 67.65C22.4269 94.1022 49.2668 112 79.9992 112C86.7267 112 93.2167 111 99.4717 109.385L86.4992 99.3472C84.3568 99.761 82.1812 99.9794 79.9992 99.9996ZM158.454 114.524L130.817 93.1647C139.212 86.0895 146.117 77.4156 151.129 67.6475C151.701 66.5162 151.999 65.2664 151.999 63.9988C151.999 62.7312 151.701 61.4813 151.129 60.35C137.572 33.8978 110.732 16.0005 79.9992 16.0005C67.128 16.0161 54.4658 19.2564 43.1693 25.4254L11.3644 0.843148C10.9497 0.52042 10.4754 0.282579 9.96871 0.143218C9.46201 0.00385566 8.93282 -0.034296 8.41137 0.0309428C7.88992 0.0961815 7.38644 0.263532 6.92969 0.523431C6.47295 0.78333 6.07189 1.13068 5.74944 1.54564L0.841957 7.86308C0.190955 8.70053 -0.100755 9.76226 0.0309852 10.8148C0.162725 11.8673 0.707126 12.8244 1.54445 13.4755L148.634 127.157C149.049 127.48 149.523 127.717 150.03 127.857C150.536 127.996 151.066 128.034 151.587 127.969C152.109 127.904 152.612 127.736 153.069 127.477C153.525 127.217 153.927 126.869 154.249 126.454L159.159 120.137C159.81 119.299 160.101 118.237 159.969 117.185C159.837 116.132 159.292 115.175 158.454 114.524ZM112.524 79.0249L102.699 71.4299C103.527 69.0386 103.965 66.5302 103.999 64C104.048 60.2957 103.227 56.6316 101.603 53.302C99.9789 49.9724 97.5964 47.0701 94.6471 44.8282C91.6977 42.5864 88.2637 41.0675 84.6209 40.3936C80.978 39.7197 77.2279 39.9094 73.6717 40.9477C75.1793 42.9905 75.9947 45.4614 75.9992 48.0002C75.9619 48.845 75.8328 49.6832 75.6142 50.5001L57.2118 36.2778C63.6042 30.9359 71.6686 28.0065 79.9992 28.0004C84.7275 27.9977 89.41 28.9271 93.7789 30.7353C98.1478 32.5435 102.117 35.1952 105.461 38.5386C108.804 41.882 111.456 45.8516 113.264 50.2204C115.072 54.5893 116.002 59.2717 115.999 64C115.999 69.4075 114.677 74.4474 112.524 79.0274V79.0249Z" fill="white"/>
</svg>
