<svg width="234" height="182" viewBox="0 0 234 182" fill="none" xmlns="http://www.w3.org/2000/svg">
<path d="M113.898 47.2156L39.0031 108.912V175.499C39.0031 177.223 39.6879 178.877 40.9067 180.096C42.1256 181.315 43.7788 182 45.5026 182L91.0234 181.882C92.7416 181.874 94.3864 181.185 95.5983 179.967C96.8102 178.749 97.4905 177.1 97.4905 175.381V136.495C97.4905 134.771 98.1752 133.117 99.3941 131.898C100.613 130.679 102.266 129.994 103.99 129.994H129.988C131.712 129.994 133.365 130.679 134.584 131.898C135.803 133.117 136.487 134.771 136.487 136.495V175.353C136.485 176.208 136.651 177.056 136.976 177.847C137.302 178.638 137.78 179.357 138.384 179.963C138.988 180.569 139.705 181.049 140.495 181.377C141.285 181.705 142.132 181.874 142.987 181.874L188.492 182C190.215 182 191.869 181.315 193.087 180.096C194.306 178.877 194.991 177.223 194.991 175.499V108.867L120.113 47.2156C119.232 46.5059 118.136 46.1189 117.005 46.1189C115.875 46.1189 114.778 46.5059 113.898 47.2156ZM232.201 89.1493L198.241 61.1515V4.87554C198.241 3.58247 197.727 2.34236 196.813 1.42801C195.899 0.513673 194.659 0 193.366 0H170.618C169.325 0 168.085 0.513673 167.171 1.42801C166.257 2.34236 165.743 3.58247 165.743 4.87554V34.3766L129.375 4.44893C125.884 1.57634 121.505 0.00574236 116.985 0.00574236C112.465 0.00574236 108.085 1.57634 104.595 4.44893L1.76908 89.1493C1.27547 89.5574 0.86709 90.0587 0.567268 90.6247C0.267446 91.1907 0.0820593 91.8102 0.0217008 92.4478C-0.0386576 93.0855 0.027195 93.7288 0.215496 94.341C0.403797 94.9532 0.710856 95.5223 1.11913 96.0157L11.4777 108.611C11.8849 109.106 12.3857 109.516 12.9515 109.817C13.5172 110.119 14.1369 110.306 14.7749 110.367C15.413 110.429 16.0569 110.364 16.6698 110.176C17.2827 109.988 17.8526 109.681 18.3469 109.273L113.898 30.5575C114.778 29.8478 115.875 29.4608 117.005 29.4608C118.136 29.4608 119.232 29.8478 120.113 30.5575L215.668 109.273C216.161 109.681 216.73 109.989 217.342 110.177C217.954 110.365 218.597 110.431 219.235 110.371C219.872 110.31 220.492 110.125 221.058 109.825C221.623 109.525 222.125 109.117 222.533 108.623L232.891 96.0279C233.299 95.5316 233.605 94.9596 233.791 94.3447C233.977 93.7298 234.04 93.0842 233.976 92.445C233.911 91.8058 233.722 91.1856 233.417 90.62C233.112 90.0544 232.699 89.5546 232.201 89.1493Z" fill="white"/>
</svg>
