<svg width="250" height="250" viewBox="0 0 250 250" fill="none" xmlns="http://www.w3.org/2000/svg">
<path d="M125 250C194.036 250 250 194.036 250 125C250 55.9644 194.036 0 125 0C55.9644 0 0 55.9644 0 125C0 194.036 55.9644 250 125 250Z" fill="url(#paint0_linear_735_21)"/>
<mask id="mask0_735_21" style="mask-type:luminance" maskUnits="userSpaceOnUse" x="0" y="0" width="250" height="250">
<path d="M125 250C194.036 250 250 194.036 250 125C250 55.9644 194.036 0 125 0C55.9644 0 0 55.9644 0 125C0 194.036 55.9644 250 125 250Z" fill="white"/>
</mask>
<g mask="url(#mask0_735_21)">
<g opacity="0.2">
<path d="M72.7095 36.457C73.9595 36.457 75.2094 37.082 76.0428 38.1237L84.1678 48.957C85.8345 51.2487 86.2511 54.1654 84.7928 56.8737C83.9594 58.332 82.7094 59.582 81.2511 60.4154L77.0844 62.4987C76.6678 62.707 76.2511 62.707 75.8345 62.707C74.3761 62.707 72.9178 61.457 72.9178 59.9987C72.9178 58.957 72.0844 58.332 71.2511 58.332C70.6261 58.332 70.0011 58.7487 69.5845 59.3737C69.3761 59.9987 68.7511 60.4154 68.1261 60.4154C67.7094 60.4154 67.5011 60.4154 67.0844 60.207L66.2511 59.582C63.5428 57.9154 62.7094 54.582 64.1678 51.6654L66.4595 47.2904C66.6678 46.8737 66.6678 46.6654 66.6678 46.2487L66.2511 43.332C66.0428 41.457 66.6678 39.7904 68.1261 38.7487L70.2094 37.2904C71.0428 36.8737 71.8761 36.457 72.7095 36.457ZM72.7095 30.207C70.6261 30.207 68.3344 30.832 66.6678 32.082L64.5844 33.5404C61.0428 36.0404 59.3761 39.9987 60.0011 44.1654L60.2095 45.4154L58.5428 48.332C55.6261 53.957 57.5011 60.832 62.7094 64.3737L63.5428 64.9987C64.7928 65.832 66.2511 66.2487 67.9178 66.2487C68.3344 66.2487 68.9594 66.2487 69.3761 66.0404C71.0428 67.707 73.3344 68.5404 75.6261 68.5404C77.0844 68.5404 78.3344 68.332 79.5844 67.707L83.7511 65.6237C86.4594 64.3737 88.7511 62.082 90.2094 59.1654C92.5011 54.582 92.0844 48.957 88.9594 44.7904L81.2511 34.582C79.1678 31.8737 76.0428 30.207 72.7095 30.207Z" fill="#5E5E5E"/>
<path d="M165.001 107.916L170.626 108.958H171.042C172.084 108.958 172.917 108.124 172.917 107.083C173.126 104.166 173.542 99.3744 173.126 98.7494C172.917 98.3327 170.834 95.8327 169.376 94.166C168.542 93.1244 168.959 91.666 170.001 91.2493L171.667 90.416C172.501 89.9994 172.917 88.9577 172.709 88.1243L172.501 87.0827C172.501 86.041 171.667 85.416 170.834 85.416C170.417 85.416 170.209 85.416 169.792 85.6243L161.876 90.2077C161.042 90.6243 160.626 91.8743 161.042 92.916L164.584 99.791C164.792 100.208 164.792 100.833 164.792 101.249L163.542 105.416C163.126 106.458 163.959 107.708 165.001 107.916Z" fill="#5E5E5E"/>
<path d="M258.334 185.624C258.126 185.416 258.126 185.416 257.918 185.207L242.918 168.124C242.501 167.707 242.501 166.874 242.918 166.249L243.126 166.041C243.334 165.832 243.751 165.624 243.959 165.624C244.168 165.624 244.376 165.624 244.584 165.832L250.209 169.166C250.418 169.374 250.626 169.374 250.834 169.374C251.668 169.374 252.501 168.332 252.084 167.499L248.959 161.457L248.751 161.041L247.501 151.041C247.293 149.791 246.251 149.166 245.209 149.166C245.001 149.166 244.793 149.166 244.376 149.374C243.959 149.582 243.751 149.582 243.543 149.582C242.709 149.582 241.668 149.166 241.251 148.124L236.668 137.707C236.251 136.874 235.626 136.457 234.793 136.457C234.376 136.457 233.959 136.666 233.543 136.874L225.209 142.916C221.876 145.416 219.584 149.166 219.168 153.332L218.959 155.207C218.751 156.249 218.334 157.082 217.709 157.707L215.834 159.374C215.209 159.999 214.168 160.207 213.334 160.207C211.668 160.207 210.209 159.166 209.584 157.499L206.043 146.457C205.209 143.957 203.959 141.666 202.293 139.791L196.668 133.332C195.418 131.874 193.751 131.041 192.084 130.624L181.459 128.957C177.084 128.332 173.126 125.832 169.793 122.916C169.168 122.499 168.543 122.082 167.709 122.082C166.876 122.082 166.043 122.499 165.418 123.124C164.584 123.957 164.376 125.416 165.001 126.666L167.709 132.916C168.126 133.541 168.751 134.166 169.584 134.166C170.001 134.166 170.418 133.957 170.626 133.749L172.293 132.499H172.501C174.376 132.499 180.001 140.832 176.459 142.916L164.168 149.999C162.918 150.832 161.459 151.041 160.001 151.041C157.084 151.041 154.168 149.374 152.709 146.666L143.751 128.124C143.334 127.499 142.709 127.082 142.084 127.082C140.626 127.082 139.584 128.541 140.209 129.791L150.418 152.499C151.876 155.832 155.001 157.499 158.334 157.499C159.793 157.499 161.043 157.291 162.501 156.666C162.918 156.457 163.334 156.457 163.751 156.457C165.626 156.457 167.293 158.332 166.876 160.416L166.251 163.749C165.626 167.291 163.751 170.416 161.251 172.707L155.001 178.541C152.293 181.041 150.834 184.791 151.251 188.541L150.834 199.374C150.834 201.666 149.793 203.749 148.126 205.416C145.418 207.916 143.543 210.624 141.668 213.749L133.751 227.707C131.251 232.291 126.876 235.624 121.876 236.874L119.376 237.499C118.751 237.707 118.334 237.707 117.709 237.707C115.001 237.707 112.501 236.041 111.459 233.332L104.168 214.166C102.501 209.582 101.876 204.791 102.709 199.999L102.918 198.541C103.543 194.999 103.334 191.249 102.293 187.707L98.751 175.207C97.7093 171.457 94.1676 168.749 90.4176 168.749H90.001L75.8343 169.374H75.2093C71.6676 169.374 68.3343 168.124 65.8343 165.624L59.376 159.582C55.8343 156.249 54.1676 151.666 54.5843 146.874L55.001 141.457C55.626 134.374 58.5426 127.707 63.126 122.291L65.4176 119.791C69.376 115.207 74.7926 112.082 80.626 111.041L95.8343 108.124H96.6676C98.751 108.124 100.834 109.791 100.834 112.082C100.834 113.541 101.459 115.207 102.709 116.041L111.668 122.916C112.084 123.124 112.501 123.332 112.918 123.332C113.543 123.332 113.959 123.124 114.376 122.707L118.126 118.124C118.543 117.707 119.168 117.499 119.584 117.499H120.209L136.668 122.291H137.293C138.126 122.291 138.959 121.874 139.168 121.041L141.459 114.791C141.876 113.541 141.043 112.291 139.793 112.082L131.876 111.457C131.251 111.457 130.626 111.041 130.418 110.416L130.001 109.791C129.584 109.166 129.584 108.124 130.001 107.291C131.043 105.624 132.293 103.957 133.543 102.291C133.959 101.666 134.793 101.457 135.418 101.457H135.626C140.834 101.874 149.584 102.707 151.251 102.707H151.459C151.459 102.499 154.584 96.249 154.168 96.0407C153.751 95.8324 141.043 89.374 136.668 87.2907C136.459 87.0824 136.043 87.0824 135.834 87.0824C135.209 87.0824 134.584 87.2907 134.168 87.9157L128.751 95.4157C128.334 96.249 128.334 97.0824 128.959 97.9157L129.584 98.749C130.001 99.1657 130.001 99.7907 129.793 100.207C129.168 101.457 128.543 102.707 127.709 103.957C127.501 104.374 126.876 104.582 126.459 104.582C126.251 104.582 126.043 104.582 126.043 104.582C125.209 104.166 124.584 104.166 124.168 104.166C123.543 104.166 123.126 104.374 122.918 104.791L122.293 107.082C122.084 107.916 121.251 108.541 120.418 108.541C120.001 108.541 119.376 108.332 118.959 107.916L115.418 104.166C115.001 103.749 114.793 103.124 115.001 102.499C115.626 99.7907 114.793 97.0824 112.709 95.2074L108.543 91.874C108.126 91.4574 107.501 91.249 106.876 91.249C106.459 91.249 105.834 91.4574 105.418 91.6657C104.168 92.7074 104.168 94.1657 105.209 94.999L110.834 99.374C112.501 100.624 112.084 103.749 108.959 104.166H108.334C106.876 104.166 105.418 103.332 104.584 102.082L100.418 96.4574C99.1676 94.7907 97.0843 93.749 95.001 93.749C94.1676 93.749 93.3343 93.9574 92.501 94.1657L91.251 94.5824C88.751 95.624 86.6676 97.2907 85.4176 99.374L82.2926 104.166C80.626 106.666 78.126 107.916 75.2093 107.916H73.9593L69.376 107.291C66.876 106.874 65.2093 104.791 65.4176 102.082V100.832C65.626 96.6657 68.9593 93.5407 72.9176 93.5407H73.751H74.1676C77.0843 93.5407 78.9593 90.4157 77.7093 87.9157L76.0426 84.7907C74.7926 82.2907 76.0426 79.5824 78.3343 78.5407L84.376 76.0407C86.4593 75.2074 88.126 73.3324 88.5426 71.0407C88.751 69.5824 90.001 68.5407 91.4593 68.5407H92.2926C94.376 68.5407 95.626 66.6657 95.001 64.7907C94.5843 63.749 95.001 62.7074 96.0426 62.0824C96.4593 61.874 96.876 61.6657 97.2926 61.6657C98.3343 61.6657 99.1676 62.2907 99.5843 63.3324L100.418 65.2074C100.834 66.0407 101.459 66.4574 102.293 66.6657L113.126 67.9157H113.334C114.168 67.9157 114.793 67.499 115.209 66.6657L118.126 59.5824C118.543 58.749 119.168 58.3324 120.001 58.3324C120.418 58.3324 120.626 58.3324 120.834 58.5407L122.709 59.5824C122.918 59.7907 123.126 59.7907 123.334 59.7907C123.751 59.7907 124.168 59.5824 124.376 59.1657C124.584 58.749 124.584 57.9157 124.168 57.499L122.918 56.249C122.293 55.624 122.084 54.7907 122.501 54.1657L122.918 52.0824C123.126 51.4574 123.751 51.0407 124.376 50.8324L127.293 50.4157C128.959 50.2074 129.584 47.7074 128.126 46.874L127.709 46.6657C127.293 46.4574 127.084 46.4574 126.668 46.4574H126.459C126.251 46.4574 126.043 46.4574 126.043 46.4574C122.709 46.4574 119.584 44.5824 118.126 41.4574L117.501 39.999C117.084 38.9574 117.501 37.7074 118.543 37.2907H118.751C119.376 37.0824 119.793 36.6657 120.001 36.0407L122.501 29.374C122.709 28.749 122.501 28.124 121.876 27.7074L121.043 27.2907C120.834 27.2907 120.626 27.2907 120.626 27.2907C120.209 27.2907 119.793 27.499 119.584 27.9157L112.709 40.624C112.293 41.6657 112.501 42.7074 113.334 43.5407C115.418 45.2074 115.834 48.3324 115.001 50.8324L112.084 58.749C111.876 59.1657 111.668 59.5824 111.251 59.7907C110.418 60.2074 109.584 60.4157 108.751 60.4157C106.459 60.4157 104.168 58.9574 103.334 56.4574L102.084 53.124C101.876 52.2907 101.043 51.874 100.209 51.874C99.7926 51.874 99.1676 52.0824 98.751 52.499L96.251 54.374C95.626 54.7907 94.7926 55.2074 94.1676 55.2074C93.751 55.2074 93.5426 55.2074 93.126 54.999C91.876 54.5824 91.0426 53.3324 90.8343 52.0824L90.626 46.0407C90.626 43.5407 91.6676 41.0407 93.5426 39.374C96.0426 37.2907 97.9176 34.7907 98.751 31.6657L100.418 26.249C101.251 23.5407 103.126 21.4574 105.626 20.2074L113.751 16.249C115.209 15.4157 116.876 15.2074 118.543 15.2074C119.168 15.2074 120.001 15.2074 120.626 15.4157L145.834 20.2074C147.293 20.4157 148.751 20.624 150.209 20.624C150.834 20.624 151.668 20.624 152.293 20.4157L201.876 21.4574H203.126C208.126 21.4574 213.126 20.8324 217.918 19.7907L258.334 10.2074V3.74902C258.126 3.74902 258.126 3.74902 257.918 3.95736L216.668 13.749C212.293 14.7907 207.709 15.4157 203.334 15.4157H202.293L152.709 14.374H150.209C149.168 14.374 147.918 14.1657 146.876 14.1657L121.043 8.95736C120.001 8.74902 118.959 8.74902 117.709 8.74902C115.001 8.74902 112.501 9.37402 110.001 10.624L101.876 14.5824C97.9176 16.4574 94.7926 20.2074 93.5426 24.5824L91.876 29.999C91.4593 31.6657 90.2093 33.124 88.5426 34.5824C85.2093 37.2907 83.3343 41.6657 83.3343 46.249L83.5426 52.2907C83.751 56.0407 85.8343 59.1657 89.1676 60.624C88.9593 61.249 88.751 62.0824 88.5426 62.7074C85.4176 63.749 82.7093 66.4574 82.0843 69.7907C82.0843 69.999 81.876 70.2074 81.6676 70.2074L75.626 72.7074C72.9176 73.749 70.626 76.0407 69.5843 78.9574C68.5426 81.874 68.751 84.7907 70.001 87.499C63.751 88.5407 59.1676 93.9574 58.751 100.624V101.874C58.5426 106.249 60.626 109.999 63.9593 112.082C62.7093 113.124 61.4593 114.374 60.4176 115.624L58.126 118.124C52.501 124.582 49.1676 132.499 48.3343 140.832L47.9176 146.249C47.2926 152.916 49.7926 159.582 54.7926 164.166L61.251 170.207C65.001 173.749 69.7926 175.624 74.7926 175.624H75.626L89.7926 174.999C90.8343 174.999 91.876 175.624 92.0843 176.874L95.626 189.374C96.4593 192.082 96.4593 194.791 96.0426 197.499L95.8343 198.957C94.7926 204.791 95.4176 210.832 97.7093 216.249L105.001 235.416C106.876 240.416 111.668 243.749 117.084 243.749C118.126 243.749 119.376 243.541 120.418 243.332L122.918 242.707C129.584 241.041 135.418 236.457 138.751 230.624L146.668 216.666C148.543 213.541 150.001 211.457 151.876 209.791C154.793 207.082 156.668 203.332 156.668 199.374L157.084 188.749V187.916C156.876 186.041 157.501 184.374 158.959 183.124L165.209 177.291C168.751 173.957 171.251 169.791 172.084 164.999L172.709 161.666C173.334 158.749 172.501 155.832 170.834 153.749L170.626 153.541L179.793 148.124C182.501 146.457 185.209 142.707 183.543 137.291C183.334 136.874 183.126 136.249 182.918 135.624L191.043 136.874C191.459 136.874 191.668 137.082 191.876 137.291L197.918 143.749C199.168 145.207 200.001 146.666 200.418 148.332L203.959 159.374C205.209 163.541 209.168 166.457 213.543 166.457C215.834 166.457 218.126 165.624 220.001 163.957L221.876 162.291C223.751 160.624 225.209 158.332 225.418 155.624L225.626 153.749C225.834 151.249 227.084 149.166 229.168 147.707L233.126 144.791L235.626 150.207C236.668 152.707 239.168 154.582 241.668 155.207L242.084 159.582C240.626 159.999 239.376 160.624 238.334 161.666L238.126 161.874C235.418 164.582 235.209 169.166 237.709 172.291L252.709 189.374C254.376 191.249 256.251 192.499 258.334 193.541V185.624ZM137.084 94.374C137.709 94.7907 138.334 94.999 138.959 95.4157C138.126 95.2074 137.293 95.2074 136.459 95.2074L137.084 94.374ZM108.334 110.207H109.793C110.626 110.207 111.251 109.999 111.876 109.582L114.168 112.082L114.584 112.499C113.959 112.916 113.543 113.332 113.126 113.957L112.084 115.416L107.084 111.666C107.084 111.249 107.084 110.832 106.876 110.416C107.293 110.207 107.918 110.207 108.334 110.207ZM93.5426 100.416L94.7926 99.999H95.001C95.001 99.999 95.4176 99.999 95.4176 100.207L96.4593 101.666C95.8343 101.666 95.4176 101.666 94.7926 101.874L90.8343 102.499C91.4593 101.457 92.501 100.832 93.5426 100.416Z" fill="#5E5E5E"/>
<path d="M164.376 198.541C165.21 198.541 166.251 199.166 166.668 199.999L168.335 204.791C168.751 205.833 168.751 207.083 168.335 208.124L164.376 218.124C163.751 219.583 162.501 220.416 160.835 220.416C160.626 220.416 160.626 220.416 160.418 220.416C156.876 219.999 154.376 216.666 154.793 213.333L155.418 208.749C155.835 206.249 157.085 204.166 158.751 202.499L162.501 199.166C163.335 198.749 163.96 198.541 164.376 198.541ZM164.376 192.291C162.293 192.291 160.21 193.124 158.751 194.374L155.001 197.708C152.085 200.208 150.21 203.749 149.585 207.708L148.96 212.291C148.543 215.624 149.376 219.166 151.46 221.874C153.543 224.583 156.668 226.249 160.001 226.666H161.043C165.21 226.666 168.96 224.166 170.418 220.208L174.376 210.208C175.418 207.708 175.418 204.999 174.376 202.499L172.501 197.916C171.251 194.583 168.126 192.291 164.376 192.291Z" fill="#5E5E5E"/>
</g>
</g>
<mask id="mask1_735_21" style="mask-type:luminance" maskUnits="userSpaceOnUse" x="0" y="0" width="250" height="250">
<path d="M125 250C194.036 250 250 194.036 250 125C250 55.9644 194.036 0 125 0C55.9644 0 0 55.9644 0 125C0 194.036 55.9644 250 125 250Z" fill="white"/>
</mask>
<g mask="url(#mask1_735_21)">
<path d="M69.7908 59.3753C70.6241 57.7087 73.1241 58.1253 73.1241 60.0003C73.1241 62.0837 75.4158 63.3337 77.2908 62.5003L81.4575 60.417C82.9158 59.792 84.1658 58.542 84.9991 56.8753C86.2491 54.3753 86.0408 51.2503 84.3741 48.9587L76.2491 38.1253C74.7908 36.2503 72.2908 35.8337 70.4158 37.0837L68.3325 38.542C66.8741 39.5837 66.0408 41.4587 66.4575 43.1253L66.8741 46.042C66.8741 46.4587 66.8741 46.8753 66.6658 47.0837L64.3741 51.4587C62.9158 54.167 63.7491 57.7087 66.4575 59.3753L67.2908 60.0003C68.1241 60.6253 69.3741 60.2087 69.7908 59.3753Z" fill="url(#paint1_radial_735_21)"/>
<path d="M258.333 167.502C255.833 164.793 251.666 159.793 251.875 159.585C251.875 159.377 252.083 158.335 252.083 157.085C252.083 155.21 254.375 154.585 255.625 155.835L258.333 158.752V10.21L218.125 19.7933C212.916 21.0433 207.5 21.6683 202.083 21.46L152.5 20.4183C150.208 20.835 147.916 20.6266 145.833 20.21L119.791 15.21C117.5 14.7933 115 15.0016 112.916 16.0433L104.791 20.0016C102.291 21.2516 100.416 23.335 99.5829 26.0433L97.9162 31.6683C97.0829 34.7933 94.9996 37.2933 92.7079 39.3766C90.6246 41.0433 89.5829 43.5433 89.7912 46.0433L89.9996 52.085C89.9996 53.335 90.8329 54.585 92.2912 55.0016C93.3329 55.4183 94.3746 55.0016 95.4162 54.3766L97.9162 52.5016C99.1662 51.46 100.833 51.8766 101.25 53.1266L102.5 56.46C103.75 59.7933 107.5 61.2516 110.625 59.7933C111.041 59.585 111.25 59.1683 111.458 58.7516L114.375 50.835C115.416 48.335 115 45.21 112.708 43.5433C111.875 42.9183 111.666 41.6683 112.083 40.6266L118.958 27.9183C119.375 27.2933 120 27.085 120.625 27.2933L121.458 27.71C122.083 27.9183 122.5 28.7516 122.083 29.3766L119.583 36.0433C119.375 36.6683 118.958 37.085 118.333 37.2933H118.125C117.083 37.71 116.458 38.96 117.083 40.0016L117.708 41.46C119.166 44.585 122.5 46.6683 126.041 46.46C126.458 46.46 126.875 46.46 127.291 46.6683L127.708 46.8766C129.166 47.9183 128.75 50.21 126.875 50.4183L124.166 50.835C123.541 51.0433 122.916 51.46 122.708 52.085L122.083 53.7516C121.875 54.585 122.083 55.4183 122.5 55.835L123.75 57.085C124.166 57.5016 124.375 58.1266 123.958 58.7516C123.541 59.3766 122.916 59.585 122.291 59.1683L120.625 58.335C119.583 57.71 118.333 58.335 117.916 59.3766L115 66.46C114.583 67.2933 113.75 67.71 112.916 67.71L102.083 66.46C101.25 66.46 100.416 65.835 100.208 65.0016L99.3746 63.1266C98.7496 61.6683 97.0829 61.0433 95.8329 61.8766C94.9996 62.5016 94.5829 63.5433 94.7912 64.585C95.4162 66.46 93.9579 68.335 92.0829 68.335H91.2496C89.7912 68.335 88.5412 69.3766 88.3329 70.835C87.9162 73.1266 86.2496 75.0016 84.1662 75.835L78.1246 78.335C75.6246 79.3766 74.5829 82.2933 75.8329 84.585L77.4996 87.71C78.9579 90.4183 76.6662 93.5433 73.5412 93.335C69.1662 92.9183 65.4162 96.2516 65.2079 100.627V101.877C64.9996 104.585 66.8746 106.668 69.1662 107.085L73.7496 107.71C77.0829 108.127 80.4162 106.668 82.0829 103.96L85.2079 99.1683C86.6662 97.085 88.7496 95.21 91.0412 94.3766L92.2912 93.96C95.2079 92.9183 98.3329 93.7516 100.208 96.2516L104.375 101.877C105.416 103.335 107.083 104.168 108.75 103.96C111.875 103.543 112.291 100.418 110.625 99.1683L105 94.7933C103.958 93.96 103.958 92.5016 105.208 91.46C106.25 90.835 107.5 90.835 108.333 91.6683L112.5 95.0016C114.583 96.6683 115.416 99.585 114.791 102.293C114.583 102.918 114.791 103.543 115.208 103.96L118.75 107.71C119.791 108.752 121.666 108.335 122.083 106.877L122.708 104.585C123.125 103.543 124.375 103.752 125.416 104.168C126.041 104.377 126.875 104.168 127.291 103.543C128.125 102.293 128.75 101.043 129.375 99.7933C129.583 99.3766 129.583 98.7516 129.166 98.335L128.541 97.5016C127.916 96.8766 127.916 95.835 128.333 95.0016L133.75 87.5016C134.375 86.6683 135.416 86.46 136.25 86.8766C140.625 89.1683 153.541 95.6266 153.75 95.6266C154.166 95.835 151.041 101.877 151.041 102.293C151.041 102.502 140.833 101.668 135.208 101.043C134.375 101.043 133.541 101.252 133.125 101.877C131.875 103.543 130.625 105.002 129.583 106.877C129.166 107.502 129.166 108.543 129.583 109.377L130 110.002C130.416 110.627 130.833 110.835 131.458 111.043L139.375 111.668C140.625 111.668 141.458 113.127 141.041 114.377L138.75 120.627C138.333 121.668 137.291 122.085 136.25 121.877L119.791 117.085C118.958 116.877 118.125 117.085 117.708 117.71L113.958 122.293C113.333 123.127 112.083 123.335 111.25 122.71L102.291 115.835C101.041 114.793 100.625 113.335 100.416 111.877C100.416 109.377 98.1246 107.502 95.6246 107.918L80.4162 110.835C74.5829 111.877 69.1662 115.002 65.2079 119.585L62.9162 122.085C58.3329 127.502 55.4162 134.168 54.5829 141.252L54.1662 146.668C53.7496 151.46 55.4162 156.043 58.9579 159.377L65.4162 165.418C68.1246 167.918 71.6662 169.168 75.4162 169.168L89.5829 168.543C93.5412 168.335 97.2912 171.043 98.3329 175.002L101.875 187.502C102.916 191.043 103.125 194.793 102.5 198.335L102.291 199.793C101.458 204.585 102.083 209.377 103.75 213.96L111.041 233.127C112.291 236.252 115.625 238.127 118.958 237.293L121.458 236.668C126.458 235.418 130.833 232.085 133.333 227.502L141.25 213.543C143.125 210.418 145 207.502 147.708 205.21C149.375 203.752 150.416 201.46 150.416 199.168L150.833 188.335C150.416 184.585 151.875 180.835 154.583 178.335L160.833 172.502C163.333 170.21 165.208 167.085 165.833 163.543L166.458 160.21C166.875 157.71 164.375 155.418 162.083 156.46C157.291 158.543 152.083 156.877 150 152.293L139.791 129.585C139.583 128.543 140.625 127.085 142.083 127.085C142.708 127.085 143.541 127.502 143.75 128.127L153.333 146.46C155.416 150.627 160.625 152.085 164.791 149.793L177.083 142.71C180.833 140.418 174.375 131.252 172.916 132.293L171.25 133.543C170.208 134.168 168.75 133.752 168.333 132.71L165.625 126.46C165 125.21 165.208 123.96 166.041 122.918C167.291 121.668 168.958 121.668 170.208 122.71C173.541 125.627 177.5 128.127 181.875 128.752L192.5 130.418C194.375 130.627 196.041 131.668 197.083 133.127L202.708 139.793C204.375 141.668 205.625 144.168 206.458 146.46L210 157.502C210.833 160.002 213.958 161.043 216.041 159.168L217.916 157.502C218.75 156.877 219.166 156.043 219.166 155.002L219.375 153.127C219.791 148.96 222.083 145.21 225.416 142.71L233.75 136.668C234.791 136.043 236.25 136.252 236.666 137.502L241.25 147.918C241.875 149.168 243.125 149.585 244.375 149.168C245.625 148.752 247.291 149.585 247.291 151.043L248.541 161.043L248.75 161.46L251.875 167.502C252.5 168.752 251.25 169.793 250 169.168L244.375 165.835C243.958 165.418 243.125 165.627 242.708 166.043L242.5 166.252C242.083 166.668 242.083 167.502 242.5 168.127L257.5 185.21C257.708 185.418 258.125 185.835 258.333 186.043V167.502ZM173.125 107.085C172.916 108.127 171.875 108.96 170.833 108.752L165.208 107.71C163.958 107.502 163.333 106.252 163.75 105.21L165 101.043C165.208 100.627 165.208 100.002 164.791 99.585L161.25 92.71C160.833 91.6683 161.041 90.6266 162.083 90.0016L170 85.4183C171.041 84.7933 172.5 85.4183 172.916 86.6683L173.125 87.71C173.333 88.5433 172.916 89.585 172.083 90.0016L170.416 90.835C169.375 91.46 168.958 92.9183 169.791 93.7516C171.25 95.4183 173.125 97.9183 173.541 98.335C173.541 99.3766 173.333 104.168 173.125 107.085Z" fill="url(#paint2_radial_735_21)"/>
<path d="M155.834 208.751L155.209 213.334C154.584 216.876 157.084 220.001 160.834 220.417C162.501 220.626 164.167 219.584 164.792 218.126L168.751 208.126C169.167 207.084 169.167 205.834 168.751 204.792L167.084 200.001C166.459 198.542 164.584 197.917 163.334 199.167L159.584 202.501C157.501 204.167 156.251 206.251 155.834 208.751Z" fill="url(#paint3_radial_735_21)"/>
</g>
<path opacity="0.2" d="M125 6.25C190.417 6.25 243.75 59.5833 243.75 125C243.75 190.417 190.417 243.75 125 243.75C59.5833 243.75 6.25 190.417 6.25 125C6.25 59.5833 59.5833 6.25 125 6.25ZM125 0C56.0417 0 0 56.0417 0 125C0 193.958 56.0417 250 125 250C193.958 250 250 193.958 250 125C250 56.0417 193.958 0 125 0Z" fill="#5E5E5E"/>
<defs>
<linearGradient id="paint0_linear_735_21" x1="125" y1="0" x2="125" y2="250" gradientUnits="userSpaceOnUse">
<stop stop-color="#3D7FA1"/>
<stop offset="1" stop-color="#355F75"/>
</linearGradient>
<radialGradient id="paint1_radial_735_21" cx="0" cy="0" r="1" gradientUnits="userSpaceOnUse" gradientTransform="translate(74.7334 49.5652) rotate(90) scale(13.1961 11.0693)">
<stop stop-color="#1A2327"/>
<stop offset="1" stop-color="#0F0F0F"/>
</radialGradient>
<radialGradient id="paint2_radial_735_21" cx="0" cy="0" r="1" gradientUnits="userSpaceOnUse" gradientTransform="translate(156.218 123.851) rotate(90) scale(113.641 102.115)">
<stop stop-color="#1A2327"/>
<stop offset="1" stop-color="#0F0F0F"/>
</radialGradient>
<radialGradient id="paint3_radial_735_21" cx="0" cy="0" r="1" gradientUnits="userSpaceOnUse" gradientTransform="translate(162.088 209.47) rotate(90) scale(10.9734 6.97494)">
<stop stop-color="#1A2327"/>
<stop offset="1" stop-color="#0F0F0F"/>
</radialGradient>
</defs>
</svg>
