<svg width="160" height="178" viewBox="0 0 160 178" fill="none" xmlns="http://www.w3.org/2000/svg">
<path opacity="0.5" d="M53.7956 22.2227C53.3333 27.3571 53.3333 33.8098 53.3333 41.9723V135.806C53.3333 143.968 53.3333 150.422 53.7956 155.556H44.4444C23.4932 155.556 13.0175 155.556 6.50871 149.048C-5.29819e-07 142.538 0 132.063 0 111.112V66.6671C0 45.7158 -5.29819e-07 35.2402 6.50871 28.7314C13.0175 22.2227 23.4932 22.2227 44.4444 22.2227H53.7956Z" fill="url(#paint0_linear_747_20)"/>
<path fill-rule="evenodd" clip-rule="evenodd" d="M59.6206 3.63285C53.334 9.20609 53.334 19.4008 53.334 39.7902V137.988C53.334 158.377 53.334 168.572 59.6206 174.145C65.9073 179.718 75.5162 178.042 94.7349 174.69L115.435 171.08C136.72 167.367 147.362 165.511 153.682 157.704C160.001 149.898 160.001 138.607 160.001 116.026V61.7521C160.001 39.1708 160.001 27.8801 153.682 20.0734C147.362 12.2665 136.72 10.4104 115.435 6.69809L94.7349 3.0876C75.5162 -0.264397 65.9073 -1.9404 59.6206 3.63285ZM86.6673 79.5866C86.6673 75.7333 83.6824 72.6097 80.0006 72.6097C76.3189 72.6097 73.334 75.7333 73.334 79.5866V98.1911C73.334 102.044 76.3189 105.168 80.0006 105.168C83.6824 105.168 86.6673 102.044 86.6673 98.1911V79.5866Z" fill="url(#paint1_linear_747_20)"/>
<defs>
<linearGradient id="paint0_linear_747_20" x1="26.8978" y1="22.2227" x2="26.8978" y2="155.556" gradientUnits="userSpaceOnUse">
<stop stop-color="#F05C5C"/>
<stop offset="1" stop-color="#A53E3E"/>
</linearGradient>
<linearGradient id="paint1_linear_747_20" x1="106.667" y1="0" x2="106.667" y2="177.778" gradientUnits="userSpaceOnUse">
<stop stop-color="#F05C5C"/>
<stop offset="1" stop-color="#A53E3E"/>
</linearGradient>
</defs>
</svg>
