<svg width="26" height="26" viewBox="0 0 26 26" fill="none" xmlns="http://www.w3.org/2000/svg">
<path d="M13 0C5.837 0 0 5.837 0 13C0 20.163 5.837 26 13 26C20.163 26 26 20.163 26 13C26 5.837 20.163 0 13 0ZM16.627 13.689L12.038 18.278C11.843 18.473 11.596 18.564 11.349 18.564C11.102 18.564 10.855 18.473 10.66 18.278C10.283 17.901 10.283 17.277 10.66 16.9L14.56 13L10.66 9.1C10.283 8.723 10.283 8.099 10.66 7.722C11.037 7.345 11.661 7.345 12.038 7.722L16.627 12.311C17.017 12.688 17.017 13.312 16.627 13.689Z" fill="url(#paint0_linear_805_242)"/>
<defs>
<linearGradient id="paint0_linear_805_242" x1="13" y1="0" x2="13" y2="26" gradientUnits="userSpaceOnUse">
<stop stop-color="#3D7FA1"/>
<stop offset="1" stop-color="#355F75"/>
</linearGradient>
</defs>
</svg>
