<svg width="234" height="192" viewBox="0 0 234 192" fill="none" xmlns="http://www.w3.org/2000/svg">
<path d="M233.6 162.043H10.4272C10.3211 162.043 10.2194 162.001 10.1445 161.926C10.0695 161.851 10.0273 161.749 10.0273 161.643C10.0273 161.537 10.0695 161.435 10.1445 161.36C10.2194 161.285 10.3211 161.243 10.4272 161.243H233.6C233.706 161.243 233.808 161.285 233.883 161.36C233.958 161.435 234 161.537 234 161.643C234 161.749 233.958 161.851 233.883 161.926C233.808 162.001 233.706 162.043 233.6 162.043Z" fill="#D1D3D4"/>
<path d="M57.7877 88.2468C89.4991 88.2468 115.206 68.5798 115.206 44.3192C115.206 20.0587 89.4991 0.391602 57.7877 0.391602C26.0763 0.391602 0.369141 20.0587 0.369141 44.3192C0.369141 68.5798 26.0763 88.2468 57.7877 88.2468Z" fill="white"/>
<path d="M57.8104 88.647C25.9343 88.647 0 68.7664 0 44.3195C0 19.8726 25.9103 0 57.8104 0C89.7105 0 115.629 19.8806 115.629 44.3195C115.629 68.7584 89.6706 88.647 57.8104 88.647ZM57.8104 0.799702C26.3742 0.799702 0.799702 20.3204 0.799702 44.3195C0.799702 68.3185 26.3902 87.8472 57.8104 87.8472C89.2307 87.8472 114.829 68.3265 114.829 44.3195C114.829 20.3124 89.2307 0.799702 57.8104 0.799702Z" fill="#D1D3D4"/>
<path d="M121.594 25.4226C121.324 25.4306 121.056 25.4682 120.795 25.5345C117.796 26.3342 116.956 30.4447 120.323 31.5483C120.788 31.6743 121.274 31.7008 121.75 31.6259C122.226 31.5511 122.681 31.3766 123.085 31.1139C123.488 30.8512 123.832 30.5062 124.094 30.1015C124.355 29.6968 124.528 29.2415 124.601 28.7653C124.655 28.342 124.618 27.9119 124.49 27.5045C124.363 27.0971 124.149 26.7219 123.864 26.4046C123.579 26.0873 123.228 25.8353 122.836 25.6658C122.445 25.4963 122.021 25.4134 121.594 25.4226Z" fill="white"/>
<path d="M121.21 32.0923C120.863 32.0919 120.518 32.0379 120.187 31.9324C119.47 31.7509 118.835 31.3303 118.389 30.7401C117.943 30.1499 117.711 29.4252 117.732 28.6856C117.779 27.8567 118.091 27.0648 118.622 26.4269C119.153 25.789 119.876 25.3388 120.683 25.1429C120.98 25.0664 121.287 25.0287 121.594 25.0309C122.076 25.0213 122.554 25.1156 122.995 25.3073C123.437 25.499 123.832 25.7836 124.154 26.1418C124.476 26.5 124.717 26.9234 124.86 27.3831C125.003 27.8427 125.046 28.3279 124.985 28.8055C124.919 29.3456 124.732 29.8639 124.439 30.322C124.145 30.7802 123.753 31.1666 123.29 31.4525C122.673 31.8618 121.951 32.084 121.21 32.0923ZM121.594 25.8306C121.354 25.8283 121.115 25.8579 120.883 25.9186C120.243 26.0701 119.669 26.4231 119.246 26.9257C118.823 27.4283 118.572 28.0537 118.531 28.7096C118.518 29.2761 118.7 29.83 119.047 30.2785C119.393 30.7269 119.883 31.0426 120.435 31.1727C120.843 31.2795 121.269 31.2997 121.685 31.2321C122.101 31.1645 122.499 31.0105 122.852 30.78C123.205 30.5495 123.507 30.2477 123.736 29.8939C123.966 29.54 124.119 29.1421 124.185 28.7256C124.234 28.3604 124.203 27.9891 124.094 27.637C123.986 27.2849 123.803 26.9604 123.558 26.6855C123.313 26.4107 123.011 26.192 122.674 26.0445C122.336 25.8969 121.971 25.824 121.602 25.8306H121.594Z" fill="#D1D3D4"/>
<path d="M191.457 107.336L207.987 103.146C207.363 101.963 197.319 71.8217 188.107 65.9599C180.198 59.3864 164.316 58.7626 146.33 58.0429C140.573 57.706 134.799 58.2699 129.217 59.7143C108.24 65.5121 93.502 95.261 93.502 95.261L114.166 99.3475C114.166 99.3475 110.879 130.072 108.001 167.53C108.001 167.53 140.932 174.943 192.385 172.056C192.385 172.056 190.97 112.663 191.457 107.336Z" fill="url(#paint0_linear_868_50)"/>
<path d="M141.156 68.494L124.059 171.168L158.806 173.679L166.339 62.6162L141.156 68.494Z" fill="#1C1C1C"/>
<path d="M158.806 174.079L124.067 171.568C124.011 171.563 123.957 171.547 123.907 171.521C123.858 171.495 123.814 171.459 123.779 171.416C123.713 171.326 123.684 171.214 123.699 171.104L140.797 68.4303C140.808 68.3533 140.842 68.2814 140.895 68.2243C140.948 68.1672 141.017 68.1274 141.093 68.1104L166.283 62.2246C166.343 62.2091 166.406 62.209 166.466 62.2244C166.527 62.2397 166.582 62.2701 166.627 62.3126C166.675 62.3518 166.714 62.4021 166.739 62.4591C166.764 62.5161 166.775 62.5783 166.771 62.6404L159.238 173.703C159.234 173.755 159.221 173.806 159.197 173.853C159.174 173.899 159.141 173.941 159.102 173.975C159.062 174.011 159.015 174.039 158.964 174.056C158.913 174.074 158.86 174.082 158.806 174.079ZM124.531 170.84L158.438 173.295L165.907 63.1602L141.5 68.8621L124.531 170.84Z" fill="#1C1C1C"/>
<path d="M143.443 53.4918L140.244 66.9028C140.244 66.9028 142.987 75.9474 152.08 75.2517C154.769 75.0233 157.374 74.1986 159.705 72.8374C162.036 71.4762 164.034 69.6128 165.555 67.3826L169.465 42.6718C169.465 42.6718 163.539 38.1535 167.738 24.3747C160.078 26.2863 152.046 26.1012 144.482 23.8389C144.482 23.8389 138.029 38.4734 137.981 45.4308C137.933 52.3882 143.443 53.4918 143.443 53.4918Z" fill="white"/>
<path d="M151.129 75.6763C142.612 75.6763 139.933 67.0955 139.877 66.9995C139.861 66.9312 139.861 66.86 139.877 66.7916L142.98 53.7485C141.66 53.3246 137.566 51.4853 137.606 45.4076C137.654 38.4502 143.875 24.2635 144.147 23.6637C144.185 23.5749 144.253 23.503 144.34 23.4617C144.428 23.4204 144.527 23.4126 144.619 23.4398C152.112 25.6615 160.062 25.8464 167.651 23.9756C167.72 23.9566 167.794 23.9561 167.864 23.9744C167.934 23.9926 167.999 24.0289 168.05 24.0795C168.102 24.1308 168.138 24.1953 168.155 24.2659C168.172 24.3365 168.169 24.4104 168.146 24.4794C166.027 31.4448 166.547 35.9391 167.411 38.4822C167.832 39.9645 168.647 41.3049 169.77 42.3607C169.826 42.4041 169.87 42.4619 169.897 42.528C169.924 42.594 169.932 42.6661 169.922 42.7366L166.003 67.4474C165.998 67.4995 165.979 67.5493 165.947 67.5913C164.387 69.8784 162.337 71.7902 159.947 73.1885C157.557 74.5867 154.887 75.4365 152.128 75.6763C151.784 75.6763 151.449 75.6763 151.129 75.6763ZM140.677 66.8796C141.012 67.8952 143.803 75.4684 152.072 74.8766C154.682 74.644 157.209 73.8417 159.475 72.5263C161.741 71.2109 163.691 69.4144 165.187 67.2634L169.058 42.8565C168.05 41.9449 163.684 37.1227 167.171 24.9672C159.756 26.6355 152.042 26.4211 144.731 24.3434C143.787 26.5266 138.437 39.2259 138.397 45.4556C138.349 51.9731 143.316 53.0767 143.524 53.1247C143.577 53.1319 143.628 53.1516 143.673 53.1821C143.717 53.2127 143.754 53.2533 143.779 53.3006C143.81 53.3444 143.83 53.3942 143.84 53.4466C143.85 53.499 143.848 53.5528 143.835 53.6045L140.677 66.8796Z" fill="#1C1C1C"/>
<path d="M164.427 41.408C164.911 40.2596 165.752 39.2977 166.826 38.665C167.865 38.1315 168.987 37.7799 170.145 37.6254C170.771 37.4816 171.422 37.4816 172.048 37.6254C172.477 37.764 172.874 37.9869 173.215 38.2811C174.087 38.8963 174.709 39.8046 174.967 40.8402C175.076 41.6888 174.974 42.5512 174.671 43.3512C174.418 44.2493 174.047 45.1099 173.567 45.9103C173.069 46.6962 172.42 47.3753 171.657 47.9081C170.895 48.4409 170.034 48.8168 169.124 49.014C168.215 49.2112 167.276 49.2257 166.361 49.0567C165.446 48.8877 164.574 48.5385 163.795 48.0295" fill="white"/>
<path d="M167.68 49.5337C166.235 49.5358 164.822 49.1191 163.609 48.3342C163.522 48.2755 163.461 48.1847 163.44 48.0813C163.419 47.978 163.439 47.8705 163.497 47.7824C163.525 47.7375 163.561 47.6986 163.604 47.6682C163.647 47.6377 163.696 47.6162 163.748 47.605C163.799 47.5938 163.852 47.5931 163.904 47.603C163.956 47.6128 164.005 47.6331 164.049 47.6624C164.783 48.1419 165.606 48.4707 166.468 48.6298C167.331 48.7888 168.216 48.7749 169.073 48.5889C169.93 48.4029 170.742 48.0485 171.461 47.5463C172.18 47.044 172.792 46.4039 173.262 45.6632C173.723 44.8951 174.08 44.0696 174.325 43.2081C174.603 42.4657 174.698 41.6679 174.605 40.8809C174.361 39.9442 173.794 39.1233 173.006 38.5618C172.703 38.3022 172.353 38.104 171.974 37.978C171.408 37.851 170.821 37.851 170.255 37.978C169.139 38.1272 168.058 38.4652 167.056 38.9776C166.042 39.557 165.247 40.4533 164.793 41.5287C164.75 41.6263 164.671 41.703 164.572 41.742C164.473 41.781 164.363 41.779 164.265 41.7366C164.167 41.6942 164.091 41.6148 164.052 41.5158C164.013 41.4168 164.015 41.3064 164.057 41.2088C164.586 39.9762 165.501 38.9489 166.664 38.2819C167.741 37.7209 168.907 37.3528 170.111 37.1943C170.794 37.0303 171.507 37.0303 172.19 37.1943C172.669 37.3471 173.112 37.5946 173.494 37.922C174.436 38.6003 175.101 39.5977 175.365 40.729C175.487 41.6439 175.382 42.5747 175.061 43.44C174.807 44.3696 174.428 45.2602 173.933 46.087C173.405 46.9166 172.719 47.6339 171.914 48.1979C171.108 48.7619 170.199 49.1615 169.239 49.3738C168.727 49.4827 168.204 49.5363 167.68 49.5337Z" fill="#1C1C1C"/>
<path d="M142.178 60.2008C143.763 60.6467 145.426 60.7475 147.054 60.4964C148.682 60.2453 150.237 59.6483 151.614 58.7454C156.077 55.6585 156.093 53.4434 156.093 53.4434C156.093 53.4434 149.319 55.8425 143.769 53.7552L142.178 60.2008Z" fill="#1C1C1C"/>
<path d="M145.377 61.0406C144.252 61.0498 143.131 60.8963 142.05 60.5847C141.955 60.5534 141.875 60.4876 141.826 60.4002C141.777 60.3128 141.763 60.2103 141.786 60.1129L143.386 53.6593C143.419 53.5503 143.494 53.4585 143.593 53.4034C143.644 53.3819 143.698 53.3708 143.753 53.3708C143.808 53.3708 143.863 53.3819 143.913 53.4034C149.263 55.4107 155.909 53.1075 155.965 53.0835C156.026 53.063 156.092 53.0574 156.156 53.0671C156.22 53.0769 156.28 53.1017 156.333 53.1395C156.386 53.1756 156.428 53.2247 156.456 53.2822C156.484 53.3397 156.497 53.4036 156.493 53.4674C156.493 53.5634 156.421 55.9145 151.846 59.0653C149.945 60.3751 147.685 61.065 145.377 61.0406ZM142.658 59.921C144.136 60.2794 145.673 60.3308 147.172 60.0722C148.671 59.8137 150.101 59.2505 151.375 58.4176C154.222 56.4503 155.189 54.8589 155.517 54.0432C153.678 54.579 148.576 55.7945 144.041 54.2831L142.658 59.921Z" fill="#1C1C1C"/>
<path d="M153.079 34.0908C153.079 34.0908 147.169 39.9846 148.017 41.3841C148.864 42.7836 152.015 42.5996 152.015 42.5996" fill="white"/>
<path d="M151.638 42.9677C150.67 42.9677 148.439 42.8237 147.64 41.5522C146.704 40.0008 151.326 35.2026 152.766 33.7631C152.841 33.6878 152.943 33.6455 153.05 33.6455C153.156 33.6455 153.258 33.6878 153.333 33.7631C153.409 33.8384 153.451 33.9405 153.451 34.047C153.451 34.1535 153.409 34.2556 153.333 34.3309C150.247 37.4097 147.951 40.5206 148.327 41.1363C148.919 42.112 151.174 42.2079 151.99 42.16C152.042 42.1567 152.095 42.1639 152.145 42.181C152.195 42.1982 152.241 42.225 152.28 42.2599C152.319 42.2948 152.351 42.3372 152.374 42.3845C152.397 42.4319 152.411 42.4833 152.414 42.5358C152.418 42.5886 152.412 42.6417 152.395 42.6919C152.378 42.7422 152.352 42.7885 152.316 42.8281C152.281 42.8677 152.239 42.8998 152.191 42.9224C152.143 42.945 152.091 42.9577 152.038 42.9597L151.638 42.9677Z" fill="#1C1C1C"/>
<path d="M159.793 34.7857C159.892 33.8991 159.46 33.123 158.828 33.0522C158.196 32.9814 157.603 33.6428 157.504 34.5294C157.405 35.416 157.837 36.1921 158.469 36.2629C159.101 36.3337 159.694 35.6723 159.793 34.7857Z" fill="#1C1C1C"/>
<path d="M149.057 33.0683C149.414 32.2503 149.23 31.3814 148.646 31.1275C148.063 30.8736 147.302 31.3308 146.946 32.1488C146.59 32.9668 146.773 33.8357 147.357 34.0896C147.94 34.3435 148.701 33.8863 149.057 33.0683Z" fill="#1C1C1C"/>
<path d="M157.542 49.8457C157.438 49.8447 157.338 49.8048 157.262 49.7338C153.711 46.327 144.115 44.2318 144.019 44.2078C143.968 44.1974 143.919 44.1768 143.876 44.1473C143.833 44.1178 143.796 44.08 143.767 44.036C143.739 43.992 143.72 43.9428 143.711 43.8913C143.702 43.8398 143.703 43.787 143.715 43.736C143.726 43.6845 143.746 43.6356 143.775 43.5921C143.805 43.5486 143.843 43.5113 143.886 43.4823C143.93 43.4533 143.979 43.4333 144.031 43.4233C144.082 43.4133 144.135 43.4136 144.187 43.4241C144.587 43.5121 154.095 45.5913 157.782 49.158C157.839 49.213 157.878 49.2837 157.895 49.3611C157.912 49.4385 157.905 49.5192 157.876 49.5929C157.847 49.6666 157.797 49.73 157.731 49.775C157.666 49.82 157.589 49.8446 157.51 49.8457H157.542Z" fill="#1C1C1C"/>
<path d="M195.4 126.368L207.204 135.421Z" fill="white"/>
<path d="M207.195 135.821C207.108 135.822 207.024 135.793 206.955 135.741L195.16 126.688C195.076 126.622 195.021 126.526 195.006 126.42C194.991 126.315 195.017 126.207 195.08 126.121C195.146 126.039 195.241 125.985 195.345 125.972C195.449 125.959 195.555 125.986 195.639 126.049L207.443 135.109C207.507 135.161 207.554 135.231 207.577 135.311C207.6 135.39 207.597 135.475 207.57 135.553C207.543 135.631 207.492 135.698 207.425 135.746C207.358 135.794 207.278 135.82 207.195 135.821Z" fill="#1C1C1C"/>
<path d="M174.703 36.3868H174.599C174.497 36.3588 174.411 36.2918 174.358 36.2005C174.306 36.1091 174.292 36.0008 174.319 35.899C175.51 31.4687 176.67 26.9584 177.765 22.48L177.885 22.0082C178.437 20.1255 178.743 18.1795 178.797 16.2184C178.749 14.8109 178.109 14.619 176.094 14.619C176.041 14.6208 175.988 14.6118 175.939 14.5925C175.889 14.5733 175.844 14.5442 175.806 14.507C175.731 14.4327 175.688 14.3324 175.686 14.2271C175.67 13.2415 175.427 12.2728 174.978 11.3953C174.529 10.5178 173.885 9.75485 173.095 9.165C170.424 7.20573 166.514 6.76589 162.355 8.0694L162.147 8.13338C158.005 9.39691 154.43 10.4845 149.904 10.6524C149.032 10.6524 148.128 10.6524 147.257 10.6524C145.289 10.5655 143.318 10.697 141.379 11.0443C140.169 11.3442 138.98 11.7235 137.82 12.1799C136.825 12.4783 135.89 12.9522 135.061 13.5794C134.235 14.3831 133.594 15.3574 133.182 16.4343C132.714 17.3755 132.378 18.3764 132.182 19.4092C131.719 22.608 133.782 25.4149 135.085 26.8304C135.885 27.7101 137.101 28.6937 138.284 28.3738C138.337 28.3597 138.391 28.356 138.445 28.363C138.499 28.37 138.551 28.3875 138.598 28.4146C138.646 28.4417 138.687 28.4778 138.72 28.5209C138.753 28.564 138.778 28.6132 138.792 28.6657C138.806 28.7182 138.81 28.773 138.803 28.827C138.796 28.8809 138.778 28.9329 138.751 28.9801C138.724 29.0272 138.688 29.0686 138.645 29.1018C138.602 29.135 138.553 29.1594 138.5 29.1735C137.252 29.5174 135.869 28.9016 134.502 27.3982C133.134 25.8948 130.887 22.8159 131.407 19.3212C131.609 18.2102 131.967 17.1333 132.47 16.1224C132.941 14.9356 133.661 13.8638 134.581 12.9796C135.483 12.2929 136.498 11.7705 137.58 11.4361C138.773 10.9647 139.997 10.5773 141.243 10.2766C143.242 9.91072 145.275 9.77123 147.305 9.86074H149.92C154.334 9.6928 157.869 8.6212 161.955 7.37367L162.163 7.30969C166.562 5.97419 170.728 6.42202 173.607 8.52523C174.441 9.1512 175.131 9.94808 175.631 10.8625C176.132 11.7769 176.432 12.7877 176.51 13.8273C177.949 13.8273 179.565 13.9872 179.637 16.2264C179.587 18.2604 179.273 20.2794 178.701 22.2321L178.581 22.704C177.485 27.1823 176.318 31.7006 175.126 36.1389C175.093 36.2215 175.034 36.2907 174.957 36.3356C174.88 36.3805 174.791 36.3985 174.703 36.3868Z" fill="#1C1C1C"/>
<path d="M161.54 69.6859C161.54 69.6859 157.021 65.3515 155.822 60.0495C154.622 54.7474 155.086 53.6039 154.262 53.4199C153.439 53.236 152.047 53.7958 151.015 55.6031C149.984 57.4105 150.264 63.7681 151.943 66.3271C153.622 68.8862 161.54 69.6859 161.54 69.6859Z" fill="white"/>
<path d="M161.54 70.0778H161.5C161.172 70.0378 153.375 69.2221 151.608 66.5351C149.841 63.8481 149.537 57.3625 150.672 55.3953C151.808 53.428 153.311 52.7962 154.343 52.9962C155.087 53.1561 155.143 53.7959 155.359 55.1474C155.495 56.139 155.695 57.6424 156.214 59.9456C157.374 65.0637 161.772 69.3421 161.812 69.382C161.87 69.4412 161.909 69.5159 161.924 69.5968C161.94 69.6778 161.931 69.7616 161.9 69.8379C161.869 69.9076 161.818 69.967 161.755 70.0095C161.691 70.0519 161.617 70.0756 161.54 70.0778ZM153.959 53.7879C153.311 53.7879 152.224 54.2837 151.36 55.7871C150.496 57.2905 150.64 63.6082 152.28 66.0953C153.383 67.7826 157.878 68.7583 160.477 69.1421C159.101 67.6227 156.35 64.176 155.439 60.1295C154.911 57.8104 154.703 56.2829 154.567 55.2753C154.407 54.1157 154.351 53.8438 154.175 53.8039C154.104 53.7926 154.031 53.79 153.959 53.7959V53.7879Z" fill="#1C1C1C"/>
<path d="M94.7554 95.8203C94.7554 95.8203 74.6668 145.25 82.2 160.284C89.7332 175.319 163.826 182.036 163.826 182.036C163.826 182.036 173.246 186.035 176.173 186.642C179.1 187.25 190.2 187.898 190.2 187.898C190.2 187.898 186.009 188.698 187.473 189.985C188.936 191.273 197.069 191.241 197.941 188.314C198.813 185.387 196.477 173.663 193.942 171.776C191.407 169.889 162.962 162.979 160.875 162.779C158.787 162.579 111.901 146.313 111.901 146.313L117.971 100.411" fill="white"/>
<path d="M191.48 191.2C189.617 191.2 187.897 190.888 187.218 190.304C187.05 190.191 186.92 190.03 186.844 189.842C186.769 189.653 186.751 189.447 186.794 189.249C186.91 188.998 187.076 188.773 187.283 188.589C187.489 188.404 187.731 188.264 187.993 188.177C184.595 187.961 178.245 187.505 176.094 187.042C173.247 186.434 164.594 182.803 163.731 182.443C159.908 182.092 89.3582 175.47 81.841 160.46C78.6422 154.118 79.8258 141.267 85.2717 122.29C89.2703 108.199 94.3404 95.7957 94.3884 95.6677C94.4287 95.5691 94.5065 95.4905 94.6047 95.4493C94.7029 95.408 94.8135 95.4075 94.9122 95.4478C95.0108 95.4881 95.0894 95.5659 95.1306 95.6642C95.1718 95.7624 95.1724 95.873 95.1321 95.9716C94.9321 96.4674 75.1955 145.369 82.5608 160.108C89.926 174.846 163.123 181.588 163.866 181.652C163.903 181.644 163.942 181.644 163.978 181.652C164.074 181.692 173.399 185.65 176.262 186.234C179.125 186.818 190.113 187.473 190.225 187.481C190.321 187.487 190.412 187.527 190.482 187.595C190.551 187.663 190.593 187.753 190.6 187.849C190.605 187.946 190.575 188.042 190.517 188.119C190.459 188.196 190.375 188.251 190.281 188.273C189.073 188.513 187.666 189.073 187.57 189.425C187.57 189.481 187.642 189.585 187.738 189.665C188.537 190.352 192.376 190.736 195.239 189.881C196.15 189.601 197.302 189.081 197.558 188.185C198.406 185.226 195.958 173.791 193.727 172.079C191.496 170.368 163.395 163.41 160.86 163.163C158.74 162.947 113.677 147.336 111.79 146.673C111.703 146.644 111.63 146.586 111.582 146.508C111.534 146.431 111.514 146.339 111.526 146.249L117.596 100.338C117.603 100.285 117.62 100.235 117.646 100.189C117.672 100.143 117.708 100.103 117.75 100.07C117.792 100.038 117.839 100.014 117.891 100.001C117.942 99.9869 117.995 99.9833 118.048 99.9901C118.1 99.9969 118.151 100.014 118.197 100.04C118.242 100.067 118.283 100.102 118.315 100.144C118.347 100.186 118.371 100.234 118.385 100.285C118.399 100.336 118.402 100.389 118.395 100.442L112.366 146.025C128.656 151.671 159.34 162.203 160.948 162.363C162.555 162.523 191.472 169.384 194.215 171.439C196.958 173.495 199.189 185.41 198.334 188.409C198.054 189.393 197.062 190.168 195.479 190.648C194.178 191.018 192.832 191.203 191.48 191.2Z" fill="#1C1C1C"/>
<path d="M179.732 110.263C179.732 110.263 166.241 75.7155 162.451 70.0296C158.66 64.3437 142.026 50.4609 139.955 51.8444C137.884 53.2279 138.492 54.7713 139.355 55.8429C140.219 56.9145 145.041 60.2333 145.041 60.2333C145.041 60.2333 139.611 57.7382 139.443 61.033C139.275 64.3277 143.442 66.295 143.442 66.295C143.442 66.295 138.875 62.9282 138.699 66.5509C138.677 67.6074 138.969 68.6467 139.538 69.5367C140.108 70.4268 140.929 71.1272 141.898 71.549C141.898 71.549 137.036 67.4226 137.5 71.725C138.3 78.7943 152.502 87.2392 152.502 87.2392L158.532 145.993C158.532 145.993 160.691 180.069 182.435 179.037C210.337 177.709 218.422 137.452 204.475 103.409" fill="white"/>
<path d="M181.428 179.405C160.444 179.405 158.109 146.298 158.085 145.962L152.079 87.4238C150.368 86.3842 137.812 78.5471 137.061 71.7096C136.933 70.5421 137.173 69.7904 137.772 69.4705C138.137 69.2965 138.552 69.2624 138.94 69.3745C138.436 68.4963 138.2 67.4902 138.26 66.4796C138.232 66.1016 138.311 65.7233 138.487 65.3881C138.664 65.0528 138.932 64.7742 139.26 64.5843C139.615 64.4308 140.006 64.3809 140.388 64.4404C139.495 63.5048 139.009 62.2542 139.036 60.9617C139.034 60.6202 139.117 60.2836 139.28 59.9831C139.442 59.6826 139.677 59.4278 139.964 59.2423C140.821 58.85 141.79 58.7736 142.699 59.0264C141.406 58.1355 140.184 57.1463 139.044 56.0675C138.711 55.7582 138.459 55.3725 138.309 54.9436C138.159 54.5148 138.117 54.0559 138.184 53.6067C138.252 53.1576 138.428 52.7317 138.698 52.3662C138.968 52.0007 139.323 51.7065 139.732 51.5092C141.251 50.4936 147.329 55.1238 150.808 57.9788C155.294 61.6494 160.732 66.7355 162.803 69.8064C166.57 75.4682 179.597 108.704 180.125 110.119C180.161 110.218 180.157 110.327 180.114 110.423C180.07 110.519 179.991 110.593 179.893 110.631C179.845 110.652 179.793 110.662 179.741 110.662C179.688 110.662 179.636 110.651 179.589 110.63C179.541 110.609 179.497 110.578 179.462 110.54C179.426 110.502 179.399 110.456 179.381 110.407C179.245 110.063 165.858 75.8441 162.131 70.2542C160.396 67.6472 155.654 62.9609 150.32 58.5945C143.866 53.3085 140.723 51.8451 140.196 52.1969C139.895 52.3564 139.632 52.578 139.424 52.8468C139.216 53.1156 139.067 53.4257 138.988 53.7563C138.974 54.0897 139.028 54.4224 139.146 54.7344C139.264 55.0464 139.445 55.3312 139.676 55.5717C140.356 56.3714 143.954 58.9624 145.274 59.8901C145.355 59.9482 145.411 60.0346 145.432 60.1322C145.453 60.2299 145.436 60.3318 145.386 60.4179C145.338 60.506 145.258 60.5725 145.163 60.6037C145.068 60.6349 144.964 60.6285 144.874 60.5858C143.994 60.1779 141.475 59.2823 140.38 59.946C140.204 60.0628 140.062 60.2227 139.967 60.4105C139.872 60.5982 139.827 60.8073 139.836 61.0176C139.74 62.8729 141.195 64.2964 142.323 65.1201C142.782 65.3528 143.223 65.6201 143.642 65.9198C143.718 65.9802 143.769 66.0661 143.787 66.1614C143.804 66.2568 143.786 66.3552 143.736 66.4383C143.686 66.5214 143.608 66.5835 143.516 66.6132C143.423 66.6429 143.323 66.638 143.234 66.5996C142.763 66.3694 142.311 66.102 141.883 65.7999C141.083 65.376 140.132 65.0881 139.604 65.336C139.276 65.488 139.092 65.8958 139.06 66.5436C139.022 67.1737 139.117 67.8048 139.339 68.3958C139.561 68.9869 139.904 69.5247 140.348 69.9743C140.97 70.3376 141.561 70.7522 142.115 71.2138C142.187 71.2758 142.234 71.3613 142.249 71.455C142.264 71.5488 142.244 71.6447 142.195 71.7256C142.145 71.8072 142.068 71.8681 141.977 71.8974C141.886 71.9268 141.787 71.9226 141.699 71.8856C141.039 71.5862 140.438 71.1719 139.924 70.662C139.196 70.2542 138.508 70.0063 138.148 70.1982C137.788 70.3901 137.764 70.862 137.852 71.6457C138.596 78.4351 152.519 86.776 152.655 86.84C152.71 86.8717 152.756 86.9157 152.791 86.9684C152.825 87.0212 152.847 87.0812 152.855 87.1439L158.885 145.898C158.885 146.25 161.236 179.605 182.364 178.582C191.121 178.166 198.398 173.784 203.428 165.883C212.96 150.92 213.216 125.849 204.06 103.506C204.022 103.408 204.023 103.299 204.064 103.203C204.104 103.106 204.18 103.028 204.276 102.986C204.375 102.948 204.484 102.949 204.582 102.989C204.681 103.029 204.76 103.105 204.803 103.202C214.048 125.777 213.768 151.136 204.1 166.314C198.934 174.431 191.424 178.95 182.404 179.381L181.428 179.405Z" fill="#1C1C1C"/>
<path d="M179.037 108.936C179.037 108.936 189.921 138.525 192.712 148.281Z" fill="white"/>
<path d="M192.711 148.68C192.625 148.681 192.54 148.654 192.47 148.602C192.401 148.55 192.351 148.476 192.328 148.392C189.569 138.756 178.773 109.367 178.661 109.071C178.641 109.021 178.632 108.968 178.633 108.915C178.634 108.861 178.646 108.808 178.668 108.76C178.69 108.711 178.722 108.667 178.761 108.631C178.8 108.595 178.846 108.566 178.897 108.548C178.947 108.53 179 108.522 179.054 108.525C179.107 108.528 179.159 108.541 179.207 108.565C179.256 108.588 179.298 108.621 179.334 108.661C179.369 108.701 179.396 108.748 179.412 108.799C179.516 109.095 190.328 138.508 193.095 148.176C193.123 148.278 193.11 148.387 193.059 148.479C193.009 148.571 192.924 148.641 192.823 148.672L192.711 148.68Z" fill="#1C1C1C"/>
<path d="M119.74 80.4746C119.74 81.3143 118.061 96.9405 118.061 96.9405Z" fill="#1C1C1C"/>
<path d="M118.058 97.3318H118.018C117.913 97.3197 117.818 97.2667 117.752 97.1843C117.686 97.102 117.655 96.9969 117.666 96.8919C118.13 92.5576 119.338 81.1458 119.338 80.4741C119.338 80.368 119.38 80.2663 119.455 80.1913C119.53 80.1164 119.632 80.0742 119.738 80.0742C119.844 80.0742 119.945 80.1164 120.02 80.1913C120.095 80.2663 120.137 80.368 120.137 80.4741C120.137 81.3218 118.538 96.3402 118.466 96.9799C118.454 97.0788 118.406 97.1697 118.33 97.2348C118.255 97.2999 118.158 97.3345 118.058 97.3318Z" fill="#1C1C1C"/>
<path d="M47.798 50.8376C47.3342 44.8638 49.6853 40.9373 56.3148 36.1871C62.2886 31.9806 63.992 29.7895 63.7361 26.4547C63.4242 22.4562 59.8095 20.257 54.4195 20.6729C47.758 21.1927 43.9834 25.8149 44.0874 33.4681L29.5088 33.5161C28.8691 18.8895 38.4095 8.58937 53.4999 7.4218C66.9189 6.38219 77.339 13.7474 78.1947 24.8153C78.7225 31.5728 75.7956 36.6269 68.3023 42.0329C62.2486 46.5432 60.9131 48.3186 61.177 51.7493L61.4409 55.18L48.2138 56.2276L47.798 50.8376ZM47.798 63.0571L63.4082 61.8415L64.5837 77.0358L48.9336 78.2354L47.798 63.0571Z" fill="url(#paint1_radial_868_50)"/>
<path d="M129.665 35.2673C131.96 35.7311 132.208 31.8046 129.785 32.2444C129.427 32.2923 129.097 32.4651 128.853 32.7324C128.61 32.9996 128.469 33.3442 128.454 33.7054C128.44 34.0666 128.554 34.4213 128.775 34.707C128.997 34.9927 129.312 35.1911 129.665 35.2673Z" fill="white"/>
<path d="M130.033 35.6914C129.882 35.6908 129.732 35.6747 129.585 35.6434C129.148 35.5739 128.751 35.3486 128.467 35.009C128.183 34.6694 128.032 34.2385 128.041 33.7961C128.044 33.3249 128.214 32.87 128.52 32.5115C128.825 32.153 129.248 31.9141 129.713 31.8368C130.059 31.748 130.425 31.7679 130.759 31.8938C131.094 32.0197 131.382 32.2455 131.584 32.5406C131.808 32.9033 131.921 33.3235 131.91 33.7497C131.898 34.1758 131.763 34.5893 131.52 34.9397C131.355 35.1792 131.132 35.3735 130.872 35.5048C130.612 35.6361 130.324 35.7002 130.033 35.6914ZM129.785 34.8917C129.991 34.9516 130.21 34.9443 130.411 34.871C130.613 34.7976 130.785 34.662 130.904 34.4838C131.046 34.265 131.126 34.0115 131.134 33.7508C131.143 33.4901 131.08 33.232 130.952 33.0044C130.835 32.8433 130.67 32.7229 130.481 32.6598C130.292 32.5968 130.087 32.5942 129.897 32.6525C129.616 32.7008 129.361 32.8455 129.176 33.0615C128.991 33.2776 128.886 33.5515 128.881 33.8361C128.873 34.093 128.961 34.3436 129.129 34.5389C129.296 34.7341 129.53 34.8599 129.785 34.8917Z" fill="#D1D3D4"/>
<path d="M51.3501 137.254C51.4519 135.903 51.1274 134.555 50.4224 133.399C49.7309 132.617 49.0796 131.8 48.4712 130.952C47.6715 129.352 48.2233 127.537 48.0313 125.818C47.8389 124.336 47.1142 122.974 45.9921 121.987C44.9765 121.076 43.673 120.452 42.6973 119.5C41.0979 117.949 40.6501 115.758 39.7464 113.814C38.3729 110.978 36.1322 108.654 33.3488 107.177C35.0842 110.272 31.1336 114.206 32.925 117.277C33.4928 118.245 34.5724 118.956 34.9882 119.988C35.9958 122.475 32.6531 125.17 33.7167 127.641C34.2525 128.873 35.7479 129.584 36.4357 130.752C37.3713 132.351 36.6356 134.239 36.7156 136.022C36.8195 138.477 38.5069 140.668 40.5061 142.372C41.7537 143.427 43.1372 144.347 44.5046 145.299C46.1041 146.442 46.7998 147.65 48.2153 145.81C50.1462 143.366 51.2447 140.367 51.3501 137.254Z" fill="#D1D3D4"/>
<path d="M54.9486 138.413C54.4288 136.51 54.061 134.455 54.9486 132.663C55.9403 130.632 58.3954 129.201 58.6832 127.01C58.8752 125.57 58.0515 124.115 58.3714 122.699C58.6912 121.284 59.9708 120.3 61.0824 119.268C63.5151 116.953 65.005 113.82 65.2648 110.472C66.9083 112.186 68.2592 114.158 69.2633 116.31C69.7398 117.366 69.9363 118.527 69.8341 119.681C69.7318 120.835 69.3342 121.943 68.6795 122.899C68.2736 123.335 67.9341 123.828 67.6719 124.363C67.1841 125.762 68.5356 127.066 69.2713 128.361C69.684 129.11 69.8584 129.966 69.7713 130.816C69.6841 131.667 69.3395 132.47 68.7835 133.119C67.368 134.719 64.641 135.294 63.9853 137.198C63.8104 137.907 63.7271 138.635 63.7374 139.365C63.5301 140.688 62.9272 141.917 62.0079 142.89C61.0886 143.864 59.8961 144.536 58.5873 144.819C56.9079 145.171 56.9879 144.587 56.644 143.339C56.1322 141.708 55.4125 140.085 54.9486 138.413Z" fill="#D1D3D4"/>
<path d="M49.6221 124.753C48.4305 121.107 47.9507 117.292 46.7031 113.661C45.6259 110.806 44.3236 108.041 42.8086 105.393L47.9107 107.296C49.5101 107.912 51.3174 108.631 52.0931 110.047C53.4366 112.518 51.0215 115.685 52.429 118.124C53.045 118.923 53.7214 119.675 54.4523 120.371C55.9557 122.242 55.7238 124.817 54.9001 126.993C54.5482 127.928 52.9968 132.774 51.6133 131.431C51.0615 130.887 51.0135 128.88 50.8136 128.144C50.4298 127.009 49.9899 125.889 49.6221 124.753Z" fill="#D1D3D4"/>
<path d="M48.8853 158.502C47.9897 151.905 47.2139 146.179 47.206 146.083L46.4062 146.187C46.4062 146.283 47.206 151.945 48.0696 158.502H48.8853Z" fill="#D1D3D4"/>
<path d="M55.7802 158.501C56.8758 149.976 58.0113 143.651 58.6511 142.947L58.0593 142.411C57.1717 143.387 55.9721 150.784 54.9805 158.501H55.7802Z" fill="#D1D3D4"/>
<path d="M54.8043 158.501C53.9326 143.091 52.4052 127.801 52.4052 127.601L51.6055 127.681C51.6055 127.88 53.2049 143.131 54.0046 158.501H54.8043Z" fill="#D1D3D4"/>
<path d="M40.9531 149.345H63.5687L61.9693 166.346C61.6974 169.289 58.4026 171.576 54.4361 171.576H50.0617C46.0632 171.576 42.8004 169.289 42.5205 166.346L40.9531 149.345Z" fill="#D1D3D4"/>
<defs>
<linearGradient id="paint0_linear_868_50" x1="150.745" y1="57.9482" x2="150.745" y2="172.724" gradientUnits="userSpaceOnUse">
<stop stop-color="#3D7FA1"/>
<stop offset="1" stop-color="#355F75"/>
</linearGradient>
<radialGradient id="paint1_radial_868_50" cx="0" cy="0" r="1" gradientUnits="userSpaceOnUse" gradientTransform="translate(53.8666 42.7798) rotate(90) scale(35.4556 24.3881)">
<stop stop-color="#1A2327"/>
<stop offset="1" stop-color="#0F0F0F"/>
</radialGradient>
</defs>
</svg>
