<svg width="25" height="25" viewBox="0 0 25 25" fill="none" xmlns="http://www.w3.org/2000/svg">
<path d="M24.52 10.9509L17.9766 8.52882L15.5331 0.520597C15.439 0.211768 15.153 0 14.8302 0C14.5074 0 14.2213 0.211768 14.1272 0.520597L11.6845 8.52882L5.14031 10.9509C4.85134 11.0583 4.66016 11.3325 4.66016 11.6406C4.66016 11.948 4.85134 12.2237 5.14031 12.3304L11.6809 14.7517L14.125 23.0041C14.2177 23.3158 14.5044 23.5298 14.8302 23.5298C15.1552 23.5298 15.4427 23.3158 15.5353 23.0033L17.9795 14.751L24.5208 12.3296C24.8083 12.2237 25.0002 11.9487 25.0002 11.6406C25.0002 11.3333 24.8083 11.0583 24.52 10.9509Z" fill="url(#paint0_linear_805_198)"/>
<path d="M9.81413 19.0395L8.11263 18.4101L7.45086 15.9836C7.36409 15.663 7.07364 15.4409 6.74202 15.4409C6.4104 15.4409 6.11995 15.663 6.03245 15.9829L5.37068 18.4094L3.66991 19.0388C3.38094 19.1454 3.18976 19.4212 3.18976 19.7285C3.18976 20.0359 3.38094 20.3116 3.66991 20.4182L5.36185 21.0454L6.02878 23.7087C6.11113 24.0352 6.40452 24.2646 6.74202 24.2646C7.07953 24.2646 7.37291 24.0352 7.45527 23.708L8.12219 21.0447L9.81413 20.4175C10.1031 20.3116 10.2943 20.0359 10.2943 19.7285C10.2943 19.4212 10.1031 19.1454 9.81413 19.0395ZM6.62437 3.11059L4.88611 2.4672L4.24198 0.728202C4.13536 0.439226 3.86036 0.248047 3.55226 0.248047C3.24491 0.248047 2.9699 0.439226 2.86255 0.728202L2.21915 2.4672L0.480155 3.11059C0.19118 3.21795 0 3.49295 0 3.80031C0 4.10767 0.19118 4.38341 0.480155 4.49003L2.21915 5.13342L2.86255 6.87242C2.9699 7.1614 3.24491 7.35257 3.55226 7.35257C3.85962 7.35257 4.13463 7.1614 4.24198 6.87242L4.88537 5.13342L6.62437 4.49003C6.91335 4.38267 7.10453 4.10767 7.10453 3.80031C7.10453 3.49295 6.91335 3.21795 6.62437 3.11059Z" fill="url(#paint1_linear_805_198)"/>
<defs>
<linearGradient id="paint0_linear_805_198" x1="14.8302" y1="0" x2="14.8302" y2="23.5298" gradientUnits="userSpaceOnUse">
<stop stop-color="#3D7FA1"/>
<stop offset="1" stop-color="#355F75"/>
</linearGradient>
<linearGradient id="paint1_linear_805_198" x1="5.14714" y1="0.248047" x2="5.14714" y2="24.2646" gradientUnits="userSpaceOnUse">
<stop stop-color="#73D382"/>
<stop offset="1" stop-color="#3EA573"/>
</linearGradient>
</defs>
</svg>
