<svg width="26" height="26" viewBox="0 0 26 26" fill="none" xmlns="http://www.w3.org/2000/svg">
<path opacity="0.4" d="M18.2 9.08595V23.854C18.2 25.739 16.848 26.532 15.197 25.622L10.088 22.775C9.54201 22.476 8.65798 22.476 8.11198 22.775L3.003 25.622C1.352 26.532 0 25.739 0 23.854V9.08595C0 6.86295 1.81999 5.04297 4.04298 5.04297H14.157C16.38 5.04297 18.2 6.86295 18.2 9.08595Z" fill="url(#paint0_linear_804_1006)"/>
<path d="M25.9998 4.04299V18.811C25.9998 20.696 24.6478 21.489 22.9968 20.579L18.1998 17.901V9.08698C18.1998 6.86398 16.3798 5.044 14.1568 5.044H7.7998V4.04299C7.7998 1.81999 9.61979 0 11.8428 0H21.9568C24.1798 0 25.9998 1.81999 25.9998 4.04299Z" fill="url(#paint1_linear_804_1006)"/>
<path d="M11.6994 12.0238H10.0744V10.3988C10.0744 9.86583 9.63241 9.42383 9.09941 9.42383C8.56641 9.42383 8.12441 9.86583 8.12441 10.3988V12.0238H6.49941C5.96641 12.0238 5.52441 12.4658 5.52441 12.9988C5.52441 13.5318 5.96641 13.9738 6.49941 13.9738H8.12441V15.5988C8.12441 16.1318 8.56641 16.5738 9.09941 16.5738C9.63241 16.5738 10.0744 16.1318 10.0744 15.5988V13.9738H11.6994C12.2324 13.9738 12.6744 13.5318 12.6744 12.9988C12.6744 12.4658 12.2324 12.0238 11.6994 12.0238Z" fill="url(#paint2_linear_804_1006)"/>
<defs>
<linearGradient id="paint0_linear_804_1006" x1="9.1" y1="5.04297" x2="9.1" y2="25.9993" gradientUnits="userSpaceOnUse">
<stop stop-color="#3D7FA1"/>
<stop offset="1" stop-color="#355F75"/>
</linearGradient>
<linearGradient id="paint1_linear_804_1006" x1="16.8998" y1="0" x2="16.8998" y2="20.9563" gradientUnits="userSpaceOnUse">
<stop stop-color="#3D7FA1"/>
<stop offset="1" stop-color="#355F75"/>
</linearGradient>
<linearGradient id="paint2_linear_804_1006" x1="9.09941" y1="9.42383" x2="9.09941" y2="16.5738" gradientUnits="userSpaceOnUse">
<stop stop-color="#3D7FA1"/>
<stop offset="1" stop-color="#355F75"/>
</linearGradient>
</defs>
</svg>
