<svg width="47" height="49" viewBox="0 0 47 49" fill="none" xmlns="http://www.w3.org/2000/svg">
<path d="M30.093 24.5488C31.494 25.9836 32.2868 27.7219 32.8611 30.1257L33.1099 31.267L33.558 33.6353C33.7808 34.7484 33.9532 35.3666 34.1942 35.9069C34.9467 37.593 36.2714 39.3208 38.1868 41.0767C38.9508 41.7771 39.0024 42.9643 38.302 43.7284C37.6015 44.4925 36.4143 44.5441 35.6502 43.8436C33.3797 41.7621 31.7456 39.6309 30.7664 37.4365C30.3939 36.6018 30.1671 35.8087 29.8994 34.4839L29.373 31.7298L29.3412 31.5792C28.8891 29.4545 28.3303 28.1164 27.4073 27.1712C25.6239 25.3446 21.5099 25.8274 20.409 27.5682C19.0031 29.7912 18.6444 33.5637 19.7608 37.3667C20.6233 40.3049 21.7678 43.1963 23.1951 46.0418C23.6598 46.9683 23.2855 48.0961 22.3589 48.5609C21.4324 49.0256 20.3046 48.6513 19.8399 47.7248C18.3128 44.6803 17.0855 41.5797 16.1591 38.4239C14.7541 33.6375 15.2184 28.7528 17.2365 25.5618C19.6215 21.7908 26.6004 20.9718 30.093 24.5488ZM24.1732 30.3428C25.2092 30.3083 26.0769 31.1202 26.1113 32.1562C26.2401 36.0279 27.4995 39.7708 29.725 42.9268L30.2167 43.5939L30.9679 44.57C31.6001 45.3914 31.4467 46.5698 30.6253 47.202C29.8786 47.7767 28.8368 47.7022 28.1786 47.0668L27.9933 46.8594L27.2421 45.8834C24.2314 41.9718 22.5238 37.2142 22.3597 32.2809C22.3253 31.2449 23.1372 30.3772 24.1732 30.3428ZM14.8909 17.6239C20.1756 13.7111 27.0885 13.9234 31.7385 16.9124C34.0656 18.4082 35.8279 20.1524 36.9995 22.1509C37.5237 23.0451 37.2238 24.1949 36.3296 24.7192C35.4354 25.2434 34.2856 24.9435 33.7613 24.0493C32.9063 22.5909 31.5642 21.2625 29.7089 20.07C26.2993 17.8784 21.0721 17.7178 17.1245 20.6407C13.0241 23.6766 11.2978 28.8767 11.8119 34.3585C12.0998 37.4287 13.025 40.5326 14.5976 43.6772C15.0612 44.6043 14.6855 45.7317 13.7584 46.1953C12.8314 46.6589 11.704 46.2832 11.2404 45.3561C9.46594 41.8079 8.40736 38.2565 8.07467 34.709C7.44827 28.0296 9.60296 21.5391 14.8909 17.6239ZM37.8625 28.3869C38.8977 28.3337 39.78 29.1297 39.8333 30.1648C39.9109 31.6739 40.2839 32.908 40.9379 33.9006C41.4872 34.7342 41.9753 35.2157 42.348 35.4014L42.5004 35.463C43.4926 35.763 44.0537 36.8105 43.7537 37.8027C43.4537 38.7949 42.4062 39.356 41.4141 39.056C40.0465 38.6425 38.87 37.5844 37.8036 35.966C36.7635 34.3875 36.1952 32.5069 36.0846 30.3577C36.0314 29.3225 36.8274 28.4402 37.8625 28.3869ZM19.2141 9.39492C19.6396 10.3401 19.2182 11.4513 18.273 11.8767C13.6681 13.9493 10.2798 16.9029 8.05392 20.757C5.26813 25.5806 4.51669 31.2194 5.14038 35.9718C5.27526 36.9995 4.55146 37.942 3.52374 38.0769C2.49602 38.2118 1.55354 37.488 1.41867 36.4602C0.695948 30.9533 1.55544 24.5037 4.80344 18.8797C7.43552 14.3222 11.4299 10.8404 16.7324 8.45378C17.6776 8.02835 18.7887 8.44972 19.2141 9.39492ZM25.079 7.42528C29.6582 7.51913 34.2164 9.62332 38.739 13.6472C43.3007 17.7059 46.0497 23.223 46.9828 30.1136C47.1219 31.1408 46.402 32.0862 45.3748 32.2253C44.3477 32.3644 43.4022 31.6445 43.2631 30.6173C42.4459 24.5825 40.1072 19.8888 36.2439 16.4515C32.3415 12.9794 28.5991 11.2518 25.0021 11.1781C23.9658 11.1569 23.1429 10.2996 23.1641 9.26325C23.1854 8.22693 24.0427 7.40405 25.079 7.42528ZM7.88365 7.46132C8.57304 8.23537 8.50441 9.42172 7.73036 10.1111C7.05939 10.7087 6.35534 11.422 5.62017 12.2507C4.92865 13.0302 4.22025 14.0422 3.50233 15.2851C2.9839 16.1827 1.836 16.49 0.938429 15.9716C0.0408551 15.4532 -0.266502 14.3053 0.251927 13.4077C1.08891 11.9586 1.93987 10.7431 2.81218 9.75974C3.64085 8.82561 4.44742 8.00846 5.23386 7.30803C6.00791 6.61864 7.19426 6.68727 7.88365 7.46132ZM24.3635 0.0393259C29.8505 0.296346 34.4462 1.79653 38.2012 4.69613C39.0216 5.32965 39.1731 6.50828 38.5396 7.32869C37.9061 8.14909 36.7274 8.30059 35.907 7.66707C32.7908 5.26068 28.9366 4.01128 24.1879 3.78885C19.4253 3.56576 15.5254 4.49974 12.3899 6.23879C11.429 6.7717 10.3509 6.50503 9.80837 5.62178C9.26589 4.73854 9.5097 3.5789 10.4254 3.04028C14.2684 0.779727 18.8903 -0.217047 24.3635 0.0393259Z" fill="url(#paint0_linear_759_777)"/>
<defs>
<linearGradient id="paint0_linear_759_777" x1="23.5" y1="0" x2="23.5" y2="48.7605" gradientUnits="userSpaceOnUse">
<stop stop-color="#3D7FA1"/>
<stop offset="1" stop-color="#355F75"/>
</linearGradient>
</defs>
</svg>
