<svg width="121" height="121" viewBox="0 0 121 121" fill="none" xmlns="http://www.w3.org/2000/svg">
<path d="M60.4565 120.913C93.8456 120.913 120.913 93.8456 120.913 60.4565C120.913 27.0673 93.8456 0 60.4565 0C27.0673 0 0 27.0673 0 60.4565C0 93.8456 27.0673 120.913 60.4565 120.913Z" fill="white"/>
<path d="M79.5285 94.1853H52.2094C47.0281 94.1853 42.8278 89.985 42.8278 84.8037C42.8278 79.6224 47.0281 75.4222 52.2094 75.4222H54.7387L32.9096 53.2816C31.1697 51.5771 30.091 49.2034 30.091 46.5777C30.091 44.4177 30.8209 42.4282 32.0476 40.8425L32.0316 40.8642L32.0765 40.8079C33.7598 38.8321 36.25 37.5871 39.0311 37.5871C41.5314 37.5871 43.7967 38.5935 45.4441 40.2233L59.5157 54.2948L73.5243 43.7874C75.0185 42.6654 76.9047 41.9906 78.9483 41.9906C81.451 41.9906 83.7172 43.0025 85.3604 44.6395L85.3601 44.6392C92.4474 51.7583 97.9379 60.4734 101.245 70.1978L101.384 70.6675V70.69L101.609 71.403L98.0289 72.5288L97.8075 71.8269C94.5556 62.2136 89.3766 53.9949 82.6897 47.2788L82.6919 47.281C81.7317 46.3277 80.4088 45.7384 78.9483 45.7384C77.7529 45.7384 76.6498 46.1332 75.762 46.7993L75.7757 46.7894L59.1629 59.2482L42.7749 42.8644C41.8576 41.9367 40.5847 41.3622 39.1776 41.3622C39.1415 41.3622 39.1055 41.3627 39.0695 41.3634H39.0748H39.0149C38.9884 41.3629 38.9573 41.3626 38.9261 41.3626C37.3486 41.3626 35.9365 42.0711 34.9908 43.1871L34.9845 43.1947C34.274 44.1269 33.8461 45.3079 33.8461 46.5888C33.8461 48.1673 34.4958 49.5942 35.5424 50.6163L35.5436 50.6173L35.5698 50.6436L63.7145 79.1635H52.2089C49.1003 79.1635 46.5801 81.6837 46.5801 84.7925C46.5801 87.9012 49.1003 90.4214 52.209 90.4214H79.5284L79.5285 94.1853ZM38.8125 65.6279C27.8703 65.6272 19 56.7565 19 45.8139C19 34.8709 27.871 26 38.8139 26C49.6802 26 58.5037 34.7474 58.6265 45.5846L58.6267 45.5963C58.6304 45.7381 58.6325 45.905 58.6325 46.0724C58.6325 48.817 58.0658 51.4292 57.0432 53.7985L57.0918 53.672L53.6357 52.2159C54.422 50.405 54.8794 48.2956 54.8794 46.0796C54.8794 45.9361 54.8774 45.793 54.8736 45.6503L54.8741 45.6713V45.6451C54.7782 36.848 47.6245 29.7534 38.8137 29.7534C29.9433 29.7534 22.7525 36.9441 22.7525 45.8145C22.7525 54.6849 29.9432 61.8757 38.8135 61.8757C38.8608 61.8757 38.9078 61.8756 38.955 61.8752H38.9478H38.9703C38.9858 61.8753 39.0042 61.8753 39.0226 61.8753C40.8646 61.8753 42.6322 61.5563 44.273 60.9706L44.164 61.0046L45.3985 64.547C43.4985 65.232 41.306 65.6279 39.021 65.6279H38.9636H38.9666L38.8125 65.6279Z" fill="url(#paint0_radial_1043_11)"/>
<defs>
<radialGradient id="paint0_radial_1043_11" cx="0" cy="0" r="1" gradientUnits="userSpaceOnUse" gradientTransform="translate(60.3044 60.0927) rotate(90) scale(34.0927 41.3044)">
<stop stop-color="#1A2327"/>
<stop offset="1" stop-color="#0F0F0F"/>
</radialGradient>
</defs>
</svg>
