<svg width="148" height="99" viewBox="0 0 148 99" fill="none" xmlns="http://www.w3.org/2000/svg">
<path d="M146.609 45.428C132.722 18.3325 105.229 0 73.7499 0C42.2704 0 14.7704 18.3453 0.891006 45.4305C0.30521 46.5893 0 47.8695 0 49.168C0 50.4664 0.30521 51.7466 0.891006 52.9054C14.778 80.0008 42.2704 98.3334 73.7499 98.3334C105.229 98.3334 132.729 79.988 146.609 52.9028C147.195 51.7441 147.5 50.4638 147.5 49.1654C147.5 47.867 147.195 46.5867 146.609 45.428ZM73.7499 86.0417C66.4567 86.0417 59.3273 83.879 53.2632 79.8271C47.1992 75.7753 42.4728 70.0162 39.6818 63.2781C36.8908 56.5401 36.1606 49.1258 37.5834 41.9727C39.0062 34.8197 42.5182 28.2492 47.6753 23.0921C52.8324 17.935 59.4029 14.423 66.5559 13.0002C73.709 11.5774 81.1233 12.3076 87.8613 15.0986C94.5994 17.8896 100.358 22.616 104.41 28.68C108.462 34.7441 110.625 41.8735 110.625 49.1667C110.627 54.0098 109.675 58.806 107.823 63.2809C105.97 67.7559 103.254 71.8219 99.8297 75.2465C96.4051 78.6711 92.3391 81.3872 87.8641 83.2395C83.3892 85.0919 78.593 86.044 73.7499 86.0417ZM73.7499 24.5833C71.5556 24.614 69.3756 24.9405 67.2686 25.5539C69.0053 27.9141 69.8388 30.8185 69.6177 33.7405C69.3967 36.6625 68.1358 39.4085 66.0637 41.4805C63.9917 43.5526 61.2457 44.8135 58.3237 45.0345C55.4017 45.2556 52.4973 44.4221 50.1371 42.6854C48.7931 47.6368 49.0357 52.8851 50.8307 57.6915C52.6258 62.4978 55.8829 66.6203 60.1435 69.4786C64.4042 72.3368 69.454 73.787 74.582 73.625C79.7101 73.4631 84.6583 71.697 88.73 68.5755C92.8018 65.454 95.7922 61.1342 97.2803 56.2241C98.7684 51.314 98.6793 46.0609 97.0254 41.2042C95.3716 36.3474 92.2364 32.1315 88.061 29.15C83.8857 26.1684 78.8805 24.5713 73.7499 24.5833Z" fill="white"/>
</svg>
