<svg width="14" height="12" viewBox="0 0 14 12" fill="none" xmlns="http://www.w3.org/2000/svg">
<path d="M3.00019 0.205352C3.13162 0.0739613 3.30985 0.00014972 3.49569 0.00014972C3.68154 0.00014972 3.85977 0.0739613 3.9912 0.205352L6.79465 3.0088C6.92232 3.14098 6.99296 3.31802 6.99136 3.50178C6.98976 3.68555 6.91606 3.86133 6.78611 3.99128C6.65616 4.12122 6.48038 4.19493 6.29662 4.19653C6.11285 4.19813 5.93581 4.12748 5.80363 3.99981L4.19656 2.39274V10.5129C4.19656 10.6988 4.12271 10.8771 3.99128 11.0085C3.85984 11.1399 3.68157 11.2138 3.49569 11.2138C3.30981 11.2138 3.13155 11.1399 3.00011 11.0085C2.86867 10.8771 2.79483 10.6988 2.79483 10.5129V2.39274L1.18776 3.99981C1.05557 4.12748 0.878535 4.19813 0.694771 4.19653C0.511007 4.19493 0.335223 4.12122 0.205278 3.99128C0.0753322 3.86133 0.00162335 3.68555 2.64944e-05 3.50178C-0.00157036 3.31802 0.0690725 3.14098 0.19674 3.0088L3.00019 0.205352ZM9.80344 8.82104V0.700861C9.80344 0.514981 9.87729 0.336715 10.0087 0.205278C10.1402 0.0738407 10.3184 0 10.5043 0C10.6902 0 10.8685 0.0738407 10.9999 0.205278C11.1313 0.336715 11.2052 0.514981 11.2052 0.700861V8.82104L12.8122 7.21396C12.9444 7.0863 13.1215 7.01565 13.3052 7.01725C13.489 7.01885 13.6648 7.09256 13.7947 7.2225C13.9247 7.35245 13.9984 7.52823 14 7.712C14.0016 7.89576 13.9309 8.0728 13.8033 8.20498L10.9998 11.0084C10.8684 11.1398 10.6901 11.2136 10.5043 11.2136C10.3185 11.2136 10.1402 11.1398 10.0088 11.0084L7.20535 8.20498C7.07768 8.0728 7.00704 7.89576 7.00864 7.712C7.01024 7.52823 7.08394 7.35245 7.21389 7.2225C7.34384 7.09256 7.51962 7.01885 7.70338 7.01725C7.88715 7.01565 8.06419 7.0863 8.19637 7.21396L9.80344 8.82104Z" fill="#C8C8C8"/>
</svg>
