<svg width="252" height="227" viewBox="0 0 252 227" fill="none" xmlns="http://www.w3.org/2000/svg">
<path d="M99.4192 50.6055C99.4192 50.6055 53.9433 129.94 51.8926 167.829C51.0124 184.648 70.2607 184.393 70.2607 184.393L70.516 173.136C70.516 173.136 109.585 173.515 132.345 175.257C174.238 178.479 212.665 149.734 212.665 149.734C212.665 149.734 187.449 133.311 174.238 120.76C161.028 108.21 145.538 66.6325 145.538 66.6325L99.4192 50.6055Z" fill="url(#paint0_linear_870_110)"/>
<path d="M84.5196 8.19359C84.2028 7.02303 81.7912 5.65884 81.7912 5.65884C81.7912 5.65884 83.5515 2.62242 82.7858 1.8215C82.0201 1.02059 74.9879 -0.281989 74.1078 0.941381C73.4213 1.91832 71.5906 10.7019 70.8425 14.4073C67.4892 20.9114 59.7441 39.5788 59.7441 49.4273C59.7441 56.6884 74.0549 59.1703 74.0549 59.1703L80.4094 13.1311C81.888 11.8021 84.7484 9.07372 84.5196 8.19359Z" fill="white"/>
<path d="M74.1063 59.6188H74.0359C73.4374 59.5132 59.3555 56.9785 59.3555 49.4358C59.3555 39.1032 67.479 20.1101 70.4714 14.2749C71.6244 8.58931 73.1118 1.64514 73.7983 0.703405C74.0711 0.30735 74.6784 0.0873199 75.6113 0.0169101C77.9965 -0.132711 82.4323 0.73861 83.1452 1.52192C83.8581 2.30523 82.9075 4.46153 82.3795 5.50007C83.1188 5.95774 84.659 7.03149 84.9406 8.08764C85.0286 8.42208 85.2663 9.31101 80.8305 13.3684L74.5024 59.258C74.4949 59.3172 74.4754 59.3742 74.4451 59.4257C74.4149 59.4771 74.3745 59.5219 74.3264 59.5572C74.2593 59.5957 74.1836 59.6168 74.1063 59.6188ZM76.2538 0.87943C76.0367 0.87943 75.8255 0.87943 75.6201 0.87943C74.74 0.941039 74.5376 1.15227 74.52 1.17867C74.0799 1.79476 72.8565 6.89067 71.3251 14.4773C71.3338 14.515 71.3338 14.5541 71.3251 14.5917C67.5934 21.844 60.2796 40.1153 60.2796 49.4094C60.2796 55.5175 71.3867 58.1402 73.7807 58.6331L80.0648 13.0515C80.0771 12.949 80.1273 12.8548 80.2056 12.7875C83.4004 9.88309 84.2013 8.5717 84.1749 8.28126C83.9813 7.55076 82.5291 6.52102 81.6578 6.01055C81.5579 5.95176 81.4852 5.85593 81.4555 5.74387C81.4259 5.63181 81.4416 5.51258 81.4993 5.41206C82.3179 3.96866 82.8195 2.38444 82.5467 2.094C82.2739 1.80356 78.6126 0.87943 76.2098 0.87943H76.2538Z" fill="#1C1C1C"/>
<path d="M137.369 164.785C137.589 165.78 155.042 221.676 155.042 221.676C155.042 221.676 179.518 226.957 180.979 223.296C182.106 220.471 168.191 217.02 168.191 217.02L154.734 169.802" fill="white"/>
<path d="M175.823 225.011C168.931 225.011 157.851 222.732 154.946 222.107C154.87 222.091 154.799 222.055 154.742 222.002C154.685 221.949 154.643 221.882 154.621 221.808C153.908 219.519 137.168 165.885 136.939 164.881C136.926 164.825 136.924 164.766 136.934 164.709C136.944 164.651 136.965 164.597 136.996 164.548C137.027 164.498 137.068 164.456 137.115 164.423C137.163 164.389 137.217 164.366 137.273 164.353C137.388 164.329 137.507 164.351 137.605 164.413C137.704 164.476 137.774 164.574 137.801 164.688C137.995 165.568 149.34 201.934 155.404 221.297C172.786 225.02 180.047 224.404 180.584 223.137C180.619 223.064 180.637 222.984 180.637 222.903C180.637 222.823 180.619 222.743 180.584 222.67C179.546 220.663 171.255 218.217 168.148 217.451C168.073 217.431 168.005 217.393 167.949 217.339C167.894 217.285 167.853 217.217 167.831 217.143L154.312 169.924C154.283 169.812 154.298 169.693 154.356 169.593C154.414 169.492 154.509 169.418 154.621 169.388C154.675 169.37 154.733 169.364 154.791 169.37C154.848 169.376 154.903 169.393 154.953 169.421C155.004 169.449 155.048 169.487 155.083 169.533C155.118 169.579 155.143 169.631 155.157 169.687L168.544 216.659C170.516 217.161 179.986 219.678 181.306 222.265C181.405 222.447 181.463 222.648 181.477 222.855C181.49 223.062 181.459 223.269 181.385 223.462C180.936 224.598 178.753 225.011 175.823 225.011Z" fill="#1C1C1C"/>
<path d="M111.221 159.627L110.535 217.037C110.535 217.037 88.2591 224.078 83.3656 222.098C78.4721 220.118 97.3244 213.182 97.3244 213.182L94.684 163.341" fill="white"/>
<path d="M85.8736 222.882C84.9786 222.915 84.0848 222.79 83.2332 222.512C82.3531 222.143 82.1418 221.632 82.1507 221.227C82.1595 220.823 82.9076 218.068 96.9015 212.884L94.2611 163.368C94.2576 163.31 94.2654 163.252 94.2843 163.198C94.3032 163.143 94.3327 163.092 94.3711 163.049C94.4095 163.006 94.4562 162.97 94.5083 162.945C94.5604 162.92 94.617 162.905 94.6748 162.902C94.7331 162.896 94.7921 162.902 94.8479 162.92C94.9038 162.937 94.9553 162.967 94.9991 163.006C95.043 163.045 95.0783 163.092 95.1028 163.146C95.1273 163.199 95.1404 163.257 95.1413 163.315L97.7816 213.165C97.7873 213.258 97.763 213.35 97.7123 213.428C97.6615 213.505 97.5871 213.565 97.5 213.597C91.4976 215.806 83.0396 219.634 83.0132 221.236C83.0132 221.447 83.3476 221.615 83.55 221.694C87.9507 223.454 107.445 217.54 110.121 216.712L110.799 159.628C110.799 159.511 110.845 159.399 110.928 159.316C111.01 159.234 111.122 159.188 111.239 159.188C111.356 159.19 111.468 159.238 111.55 159.322C111.633 159.406 111.679 159.519 111.679 159.636L110.992 217.038C110.994 217.131 110.964 217.222 110.909 217.297C110.853 217.372 110.774 217.426 110.684 217.452C109.875 217.707 93.4074 222.882 85.8736 222.882Z" fill="#1C1C1C"/>
<path d="M152.763 119.292C152.763 119.292 161.925 117.928 162.664 119.292C163.404 120.656 163.782 126.72 163.782 126.72L161.054 127.468C161.054 127.468 161.802 121.519 160.684 121.307C159.566 121.096 150.404 122.055 150.404 122.055L152.763 119.292Z" fill="white"/>
<path d="M161.055 127.907C160.948 127.904 160.846 127.863 160.765 127.793C160.712 127.744 160.672 127.684 160.647 127.617C160.623 127.549 160.615 127.477 160.624 127.406C160.958 124.669 160.932 122.002 160.554 121.685C159.832 121.527 153.97 122.072 150.459 122.451C150.371 122.461 150.282 122.445 150.204 122.404C150.125 122.363 150.061 122.3 150.019 122.222C149.977 122.144 149.96 122.055 149.969 121.967C149.979 121.879 150.014 121.796 150.071 121.729L152.43 119.001C152.496 118.921 152.591 118.87 152.694 118.86C155.546 118.437 162.252 117.61 163.053 119.08C163.854 120.55 164.18 126.068 164.224 126.693C164.229 126.794 164.2 126.893 164.14 126.975C164.081 127.057 163.996 127.116 163.898 127.142L161.17 127.89L161.055 127.907ZM160.043 120.796C160.289 120.777 160.536 120.777 160.782 120.796C161.935 121.051 161.874 124.079 161.574 126.825L163.335 126.35C163.203 124.475 162.833 120.435 162.296 119.458C161.927 118.877 157.693 118.974 153.002 119.661L151.488 121.421C153.627 121.236 158.142 120.796 160.043 120.796Z" fill="#1C1C1C"/>
<path d="M122.689 130.187L179.8 123.833L183.224 168.297L122.328 172.398L122.689 130.187Z" fill="white"/>
<path d="M122.327 172.838C122.271 172.838 122.216 172.827 122.165 172.806C122.114 172.785 122.067 172.753 122.028 172.714C121.982 172.675 121.946 172.627 121.922 172.572C121.897 172.517 121.885 172.457 121.887 172.397L122.248 130.152C122.249 130.045 122.289 129.942 122.36 129.863C122.432 129.784 122.529 129.733 122.635 129.72L179.755 123.366C179.813 123.36 179.872 123.365 179.927 123.382C179.983 123.398 180.035 123.426 180.081 123.463C180.127 123.5 180.166 123.547 180.193 123.6C180.22 123.653 180.236 123.711 180.239 123.771L183.663 168.234C183.668 168.293 183.662 168.352 183.644 168.408C183.625 168.464 183.596 168.516 183.557 168.56C183.478 168.649 183.367 168.703 183.249 168.71L122.353 172.811L122.327 172.838ZM123.128 130.592L122.767 171.957L182.747 167.926L179.394 124.352L123.128 130.592Z" fill="#1C1C1C"/>
<path d="M164.758 185.767L140.115 94.463L96.0204 89.4199C96.0204 89.4199 91.1533 150.65 90.4492 187.184L164.758 185.767Z" fill="#1C1C1C"/>
<path d="M90.4851 187.624C90.4274 187.624 90.3702 187.613 90.3171 187.59C90.2641 187.568 90.2163 187.534 90.1771 187.492C90.1341 187.451 90.1002 187.402 90.0774 187.347C90.0547 187.293 90.0436 187.234 90.045 187.175C90.7491 151.09 95.5722 90.0005 95.6162 89.3844C95.6266 89.2649 95.6835 89.1543 95.7746 89.0764C95.8673 88.9957 95.9863 88.9519 96.1091 88.9532L140.203 93.9963C140.291 94.007 140.375 94.0436 140.442 94.1016C140.509 94.1596 140.558 94.2363 140.582 94.3219L165.225 185.626C165.242 185.69 165.245 185.758 165.233 185.823C165.22 185.888 165.194 185.95 165.155 186.004C165.113 186.056 165.06 186.098 165.001 186.128C164.942 186.158 164.878 186.176 164.811 186.18L90.5027 187.597L90.4851 187.624ZM96.4611 89.9301C96.0123 95.5981 91.6293 152.26 90.934 186.744L164.222 185.344L139.807 94.8676L96.4611 89.9301Z" fill="#1C1C1C"/>
<path d="M92.4228 214.099L95.9433 218.922L111.882 215.278L111.724 220.215C111.724 220.215 77.3991 226.702 79.5202 222.328C81.6413 217.954 92.4228 214.099 92.4228 214.099Z" fill="#1C1C1C"/>
<path d="M83.9724 224.263C81.4904 224.263 79.7126 223.999 79.1933 223.313C79.0651 223.146 78.9891 222.945 78.9751 222.735C78.961 222.525 79.0093 222.316 79.1141 222.133C81.2968 217.645 91.8231 213.843 92.2719 213.684C92.3617 213.65 92.4601 213.646 92.5523 213.673C92.6445 213.7 92.7253 213.756 92.7824 213.834L96.1181 218.428L111.775 214.811C111.841 214.794 111.91 214.793 111.975 214.809C112.041 214.824 112.102 214.855 112.154 214.899C112.206 214.941 112.247 214.995 112.275 215.056C112.302 215.117 112.315 215.184 112.312 215.251L112.154 220.188C112.15 220.289 112.112 220.385 112.047 220.462C111.981 220.539 111.892 220.591 111.793 220.611C107.921 221.376 92.1399 224.263 83.9724 224.263ZM92.2631 214.626C90.5029 215.286 81.7017 218.754 79.9414 222.547C79.8534 222.723 79.8974 222.776 79.9414 222.811C81.3848 224.694 99.8146 222.036 111.335 219.871L111.467 215.858L96.0917 219.378C96.0065 219.398 95.9175 219.391 95.836 219.36C95.7545 219.329 95.6842 219.274 95.634 219.202L92.2631 214.626Z" fill="#1C1C1C"/>
<path d="M171.378 216.104L167.602 220.725L151.892 216.184L151.777 221.121C151.777 221.121 185.68 229.544 183.805 225.055C181.93 220.567 171.378 216.104 171.378 216.104Z" fill="#1C1C1C"/>
<path d="M180.742 226.78C173.191 226.78 155.747 222.564 151.698 221.499C151.6 221.478 151.513 221.424 151.452 221.345C151.391 221.266 151.359 221.167 151.364 221.068L151.478 216.13C151.479 216.063 151.495 215.997 151.526 215.938C151.556 215.878 151.6 215.827 151.654 215.787C151.709 215.746 151.772 215.718 151.839 215.706C151.907 215.694 151.976 215.697 152.041 215.717L167.47 220.179L171.061 215.778C171.122 215.703 171.205 215.65 171.299 215.626C171.392 215.602 171.491 215.609 171.58 215.646C172.011 215.831 182.318 220.223 184.236 224.835C184.33 225.022 184.366 225.233 184.341 225.441C184.316 225.649 184.231 225.845 184.095 226.005C183.629 226.568 182.432 226.78 180.742 226.78ZM152.226 220.777C163.606 223.594 181.851 227.29 183.4 225.486C183.4 225.486 183.471 225.398 183.4 225.222C181.79 221.367 173.226 217.406 171.51 216.641L167.936 221.041C167.881 221.106 167.809 221.153 167.728 221.178C167.647 221.203 167.561 221.204 167.479 221.182L152.314 216.781L152.226 220.777Z" fill="#1C1C1C"/>
<path d="M160.545 83.1263C156.144 90.5281 151.796 98.15 146.674 105.129C142.273 111.088 145.327 118.076 149.006 123.762C149.684 124.8 150.52 125.891 151.735 126.164C152.949 126.437 155.801 125.971 156.514 124.809C157.015 123.982 156.628 122.917 156.391 122.081L155.361 118.446C156.317 118.137 157.302 117.928 158.3 117.821C157.095 116.835 156.056 115.744 154.921 114.688C154.129 113.939 152.65 112.637 152.835 111.396C153.02 110.155 156.637 107.444 157.57 106.643C159.618 104.883 161.604 103.038 163.528 101.107C167.77 96.8826 172.55 92.0684 174.759 86.3828C175.051 85.6564 175.267 84.9011 175.401 84.1296C177.012 74.3427 172.928 70.875 172.928 70.875L160.545 83.1263Z" fill="white"/>
<path d="M152.536 126.649C152.24 126.652 151.946 126.626 151.656 126.57C150.309 126.271 149.42 125.144 148.663 123.93C145.363 118.834 141.534 111.317 146.34 104.796C150.661 98.9254 154.481 92.4741 158.169 86.2516L160.184 82.8543C160.202 82.8213 160.226 82.7916 160.254 82.7663L172.638 70.4974C172.718 70.4225 172.823 70.3809 172.933 70.3809C173.042 70.3809 173.148 70.4225 173.227 70.4974C173.403 70.647 177.487 74.2379 175.868 84.1569C175.722 84.9572 175.498 85.7413 175.199 86.498C172.919 92.3596 167.903 97.3587 163.863 101.381C161.944 103.3 159.929 105.165 157.878 106.934L157.236 107.471C156.188 108.351 153.407 110.631 153.293 111.414C153.152 112.365 154.393 113.518 155.132 114.204L155.247 114.319L156.25 115.278C157.033 116.044 157.772 116.757 158.609 117.434C158.674 117.49 158.723 117.564 158.748 117.647C158.773 117.73 158.773 117.818 158.749 117.901C158.725 117.983 158.677 118.056 158.612 118.111C158.546 118.166 158.465 118.2 158.38 118.209C157.552 118.304 156.734 118.466 155.933 118.693L156.91 122.134C157.109 122.583 157.212 123.069 157.212 123.56C157.212 124.051 157.109 124.537 156.91 124.986C156.206 126.139 154.023 126.649 152.536 126.649ZM160.897 83.4C160.228 84.5089 159.565 85.6238 158.908 86.7445C155.203 92.9933 151.383 99.4534 147.026 105.359C142.546 111.441 146.225 118.623 149.376 123.49C149.882 124.515 150.76 125.309 151.832 125.707C152.932 125.963 155.581 125.461 156.135 124.555C156.388 123.851 156.353 123.076 156.039 122.398L154.938 118.534C154.908 118.425 154.921 118.308 154.975 118.208C155.03 118.107 155.12 118.032 155.229 117.998C155.897 117.783 156.579 117.615 157.271 117.496C156.699 116.977 156.144 116.449 155.607 115.929L154.622 114.979L154.498 114.873C153.618 114.063 152.192 112.717 152.395 111.353C152.536 110.411 154.155 108.932 156.655 106.855L157.28 106.327C159.313 104.567 161.311 102.719 163.22 100.818C167.199 96.8571 172.145 91.9284 174.345 86.2428C174.629 85.5451 174.838 84.8193 174.97 84.0777C176.264 76.2182 173.782 72.5305 172.919 71.5271L160.897 83.4Z" fill="#1C1C1C"/>
<path d="M108.195 10.7637C109.832 9.27167 111.672 8.01833 113.66 7.04078C115.482 6.22765 117.501 5.96113 119.471 6.27361C121.441 6.5861 123.278 7.46414 124.759 8.80103C125.261 8.36101 125.859 8.04372 126.505 7.87419C127.151 7.70466 127.828 7.6875 128.482 7.82409C132.979 8.56339 135.752 12.832 137.406 16.7397C138.735 19.8818 138.876 23.2614 139.932 26.4211C140.812 29.1319 142.705 31.4026 144.095 33.9725C147.331 39.6985 149.241 46.0777 149.684 52.6399C150.15 61.8196 146.85 71.3866 139.888 77.3802C137.035 79.8164 133.645 81.54 129.995 82.4091C126.346 83.2783 122.542 83.268 118.897 82.3793C110.439 80.223 107.394 75.6552 104.138 67.6988C101.33 60.8251 100.908 53.3264 99.9218 46.0566C98.4872 35.5744 99.8337 18.3768 108.195 10.7637Z" fill="white"/>
<path d="M124.443 83.558C122.538 83.5601 120.64 83.3266 118.792 82.8627C110.343 80.7064 107.095 76.1386 103.724 67.9007C101.445 62.3207 100.714 56.2654 100.019 50.4126C99.8431 48.9868 99.6759 47.5698 99.4823 46.1528C98.1181 36.1194 99.2358 18.3233 107.905 10.4286C109.575 8.90908 111.45 7.63212 113.476 6.63531C115.316 5.81118 117.351 5.52347 119.347 5.8053C121.344 6.08713 123.22 6.92705 124.759 8.22833C125.304 7.84067 125.922 7.56815 126.576 7.42742C127.23 7.28669 127.905 7.2807 128.562 7.40981C132.39 8.0347 135.497 11.1239 137.812 16.5807C138.503 18.376 139.01 20.2367 139.325 22.1343C139.583 23.5532 139.927 24.9552 140.355 26.3325C141.01 28.0519 141.87 29.686 142.916 31.1995C143.444 32.0797 143.999 32.907 144.483 33.8399C147.758 39.6225 149.687 46.0696 150.125 52.7009C150.626 62.6199 146.912 72.002 140.17 77.7932C135.778 81.5202 130.203 83.5635 124.443 83.558ZM117.815 6.5825C116.447 6.58603 115.096 6.88631 113.855 7.46262C111.904 8.4208 110.1 9.65053 108.495 11.1151C100.081 18.781 99.0158 36.2162 100.354 46.0736C100.547 47.4906 100.723 48.9164 100.89 50.3422C101.586 56.1422 102.307 62.1358 104.543 67.6102C107.87 75.7337 110.88 79.9319 119.012 82.0354C122.587 82.9045 126.318 82.9125 129.897 82.0587C133.475 81.2049 136.8 79.5138 139.598 77.1243C146.129 71.5092 149.737 62.3911 149.28 52.7449C148.848 46.246 146.956 39.9282 143.744 34.2624C143.268 33.3822 142.731 32.5021 142.203 31.7012C141.124 30.1259 140.238 28.4269 139.563 26.6405C139.128 25.2304 138.776 23.7964 138.507 22.3455C138.201 20.5057 137.712 18.7013 137.046 16.9591C134.854 11.8016 131.968 8.88842 128.456 8.31634C127.868 8.19105 127.26 8.20541 126.679 8.35828C126.098 8.51114 125.561 8.79824 125.111 9.19646C125.027 9.27315 124.917 9.31565 124.803 9.31565C124.689 9.31565 124.58 9.27315 124.495 9.19646C122.685 7.50192 120.294 6.56631 117.815 6.5825Z" fill="#1C1C1C"/>
<path d="M169.794 67.3812L145.793 45.2989C142.352 42.0865 138.233 41.9016 136.024 41.7784C133.216 41.6024 78.6837 41.7784 78.6837 41.7784L76.457 60.1994L95.6525 67.2404C95.6525 85.0365 95.2388 93.6441 95.2388 93.6441L141.313 97.7366C144.936 90.9397 147.748 83.7409 149.692 76.288L157.323 82.0969L169.794 67.3812Z" fill="white"/>
<path d="M141.311 98.0805H141.267L95.2281 93.988C95.1153 93.9747 95.0117 93.9192 94.9382 93.8327C94.8647 93.7461 94.8268 93.6349 94.832 93.5215C94.832 93.4423 95.2457 84.8523 95.2457 67.4787L76.3054 60.5521C76.212 60.5187 76.1329 60.454 76.0816 60.369C76.0303 60.284 76.0099 60.1839 76.0238 60.0856L78.2505 41.6647C78.2633 41.5588 78.3141 41.4612 78.3934 41.39C78.4727 41.3188 78.5752 41.2788 78.6818 41.2774C80.9085 41.2774 133.249 41.1542 136.048 41.2774H136.207C138.451 41.4094 142.614 41.6735 146.09 44.9211L170.083 67.0034C170.167 67.0794 170.218 67.1851 170.227 67.2982C170.235 67.4114 170.199 67.5233 170.127 67.6107L157.655 82.2207C157.582 82.3051 157.479 82.3583 157.368 82.3698C157.257 82.3812 157.146 82.35 157.057 82.2823L149.954 76.8784C147.995 84.1406 145.223 91.1585 141.69 97.7989C141.662 97.8782 141.611 97.9473 141.544 97.9975C141.476 98.0476 141.395 98.0766 141.311 98.0805ZM95.6945 93.1431L141.056 97.1828C144.592 90.4791 147.347 83.3918 149.268 76.0599C149.283 75.9888 149.317 75.9228 149.365 75.8682C149.413 75.8136 149.474 75.772 149.543 75.7474C149.611 75.7228 149.685 75.7159 149.757 75.7275C149.829 75.739 149.897 75.7686 149.954 75.8134L157.259 81.367L169.158 67.4259L145.492 45.6252C142.244 42.5888 138.451 42.3512 136.154 42.2103H135.995C133.355 42.0519 83.9889 42.1575 79.0778 42.2103L76.9391 59.892L95.8001 66.8098C95.8845 66.8416 95.9573 66.8981 96.0091 66.9718C96.0609 67.0456 96.0893 67.1333 96.0906 67.2234C96.1082 82.6168 95.7737 91.2068 95.6945 93.1431Z" fill="#1C1C1C"/>
<path d="M122.223 75.9811C122.162 75.9821 122.102 75.9701 122.045 75.9458C121.989 75.9215 121.939 75.8855 121.898 75.8403C121.857 75.7994 121.824 75.7507 121.801 75.6971C121.779 75.6435 121.768 75.586 121.768 75.5279C121.768 75.4698 121.779 75.4123 121.801 75.3586C121.824 75.305 121.857 75.2563 121.898 75.2154C125.225 72.0998 130.303 66.9511 130.611 65.5341C130.919 64.1171 128.604 62.392 127.68 61.864C127.619 61.8277 127.568 61.7778 127.53 61.7182C127.492 61.6586 127.468 61.5911 127.46 61.5207C127.456 61.4497 127.468 61.3787 127.495 61.3131C127.523 61.2476 127.565 61.1891 127.619 61.1423C129.114 59.9343 130.54 58.6413 131.887 57.2697C132.195 56.6889 131.28 52.6315 130.241 49.2166C130.224 49.1606 130.218 49.1016 130.223 49.0431C130.229 48.9847 130.246 48.928 130.274 48.8763C130.302 48.8246 130.34 48.7791 130.386 48.7423C130.431 48.7055 130.484 48.6782 130.541 48.6621C130.596 48.646 130.654 48.6409 130.712 48.6471C130.769 48.6534 130.825 48.671 130.875 48.6987C130.926 48.7265 130.971 48.764 131.007 48.8091C131.043 48.8541 131.07 48.9059 131.086 48.9614C131.79 51.2849 133.339 56.8033 132.591 57.7626C131.359 59.0457 130.048 60.2509 128.666 61.3711C129.713 62.0752 131.905 63.8178 131.5 65.6661C131.025 67.8312 123.394 75.0482 122.514 75.8579C122.435 75.9328 122.332 75.9766 122.223 75.9811Z" fill="#1C1C1C"/>
<path d="M111.687 75.9806C111.608 75.9808 111.53 75.9597 111.462 75.9194C111.394 75.8791 111.338 75.8212 111.3 75.7517C111.115 75.4085 106.662 67.241 106.019 64.2221C105.439 61.661 108.167 59.9271 109.54 59.223C108.376 58.5127 107.27 57.7123 106.231 56.8291C105.21 55.8082 108.114 52.3581 110.719 49.6385C110.758 49.5918 110.806 49.5536 110.86 49.5262C110.914 49.4988 110.973 49.4828 111.033 49.4793C111.093 49.4757 111.154 49.4847 111.211 49.5056C111.268 49.5266 111.319 49.559 111.363 49.6009C111.407 49.6427 111.441 49.6932 111.465 49.7491C111.488 49.8049 111.5 49.865 111.499 49.9256C111.498 49.9861 111.484 50.0458 111.459 50.1009C111.434 50.156 111.398 50.2053 111.353 50.2458C108.783 52.8861 106.732 55.6761 106.873 56.2394C108.086 57.2042 109.362 58.0863 110.693 58.8798C110.762 58.9228 110.818 58.9842 110.855 59.0572C110.891 59.1302 110.907 59.2119 110.899 59.2932C110.892 59.3744 110.862 59.452 110.813 59.5174C110.764 59.5827 110.698 59.6332 110.622 59.6631C110.578 59.6631 106.275 61.4233 106.864 64.0021C107.524 66.9065 112.057 75.2149 112.101 75.3029C112.138 75.37 112.156 75.4455 112.155 75.522C112.154 75.5985 112.132 75.6733 112.093 75.739C112.054 75.8048 111.999 75.8592 111.932 75.8969C111.866 75.9346 111.79 75.9544 111.714 75.9542L111.687 75.9806Z" fill="#1C1C1C"/>
<path d="M113.141 49.4002L114.769 78.9635L128.508 48.8545L113.141 49.4002Z" fill="#1C1C1C"/>
<path d="M114.768 79.4042H114.68C114.584 79.3864 114.497 79.3367 114.433 79.2632C114.369 79.1897 114.332 79.0967 114.328 78.9994L112.708 49.436C112.704 49.3782 112.712 49.32 112.732 49.2654C112.751 49.2109 112.782 49.161 112.823 49.1192C112.901 49.0306 113.012 48.9768 113.131 48.9696L128.489 48.4239C128.564 48.4225 128.638 48.4404 128.704 48.4759C128.771 48.5113 128.827 48.5631 128.867 48.6263C128.904 48.6906 128.924 48.7634 128.924 48.8376C128.924 48.9117 128.904 48.9846 128.867 49.0488L115.128 79.1578C115.096 79.2273 115.045 79.2868 114.982 79.3301C114.918 79.3734 114.844 79.399 114.768 79.4042ZM113.606 49.8233L115.102 77.1599L127.793 49.348L113.606 49.8233Z" fill="#1C1C1C"/>
<path d="M96.3223 41.1362C96.3223 41.1362 106.232 59.2931 119.355 59.9532C132.478 60.6133 149.728 48.0715 149.728 48.0715C149.728 48.0715 147.66 42.1747 136.896 40.5993C136.896 40.5993 124.768 56.3535 118.765 54.0476C112.763 51.7417 109.014 40.1152 109.014 40.1152L96.3223 41.1362Z" fill="url(#paint1_linear_870_110)"/>
<path d="M114.249 40.1156L113.14 49.4009C113.14 49.4009 114.706 54.7784 120.973 53.9599C127.239 53.1414 128.507 48.8552 128.507 48.8552L130.54 29.1933C130.54 29.1933 128.005 27.8819 125.937 17.25C125.937 17.25 121.254 21.6506 112.304 19.5383C112.304 19.5383 109.514 28.5332 109.602 33.3386C109.681 38.0033 114.178 40.0364 114.249 40.1156Z" fill="white"/>
<path d="M119.716 54.4882C118.175 54.5059 116.668 54.035 115.411 53.1433C114.154 52.2516 113.211 50.9847 112.719 49.5243C112.71 49.466 112.71 49.4067 112.719 49.3483L113.793 40.3535C112.226 39.4733 109.242 37.2466 109.172 33.3125C109.084 28.4894 111.812 19.741 111.892 19.3713C111.924 19.2655 111.996 19.1763 112.093 19.1222C112.19 19.0682 112.304 19.0534 112.411 19.0809C121.001 21.1228 125.613 16.9334 125.613 16.8894C125.672 16.8374 125.743 16.8013 125.82 16.7843C125.897 16.7674 125.977 16.7702 126.053 16.7926C126.127 16.8169 126.193 16.8608 126.244 16.9197C126.295 16.9786 126.33 17.0502 126.343 17.127C128.315 27.2484 130.744 28.7535 130.744 28.7711C130.818 28.8144 130.878 28.878 130.917 28.9545C130.956 29.0309 130.972 29.1169 130.964 29.2023L128.94 48.9083C128.869 49.1723 127.505 53.5465 121.018 54.4002C120.586 54.4535 120.151 54.4828 119.716 54.4882ZM113.555 49.3571C113.784 50.026 115.421 54.2418 120.886 53.5201C126.766 52.7544 127.998 48.8995 128.051 48.7322L130.04 29.3695C129.309 28.7623 127.329 26.4123 125.639 18.016C124.125 19.1161 119.733 21.5981 112.596 20.0314C112.068 21.7917 109.955 29.1847 110.035 33.3037C110.096 36.8242 112.772 38.7869 114.356 39.6406C114.43 39.6778 114.498 39.7252 114.558 39.7814C114.606 39.8277 114.642 39.8844 114.663 39.9471C114.684 40.0098 114.691 40.0766 114.682 40.1422L113.555 49.3571Z" fill="#1C1C1C"/>
<path d="M128.164 29.5275C128.456 28.8568 128.897 28.2617 129.454 27.7873C130.011 27.313 130.668 26.972 131.377 26.7903C131.834 26.6203 132.322 26.5511 132.808 26.5876C133.294 26.6241 133.767 26.7653 134.193 27.0015C134.713 27.3888 135.107 27.9215 135.325 28.5324C135.543 29.1433 135.574 29.805 135.416 30.434C135.23 31.3919 134.789 32.2821 134.14 33.0113C133.491 33.7405 132.658 34.2821 131.729 34.5794C130.474 34.9201 129.135 34.7492 128.006 34.1041" fill="white"/>
<path d="M130.434 35.1962C129.507 35.1913 128.598 34.9457 127.794 34.4833C127.738 34.458 127.688 34.4211 127.647 34.3752C127.606 34.3292 127.575 34.2751 127.556 34.2165C127.537 34.1579 127.531 34.0959 127.538 34.0347C127.544 33.9735 127.564 33.9144 127.595 33.8611C127.626 33.8079 127.668 33.7618 127.717 33.7257C127.767 33.6896 127.824 33.6644 127.884 33.6517C127.945 33.639 128.007 33.6391 128.067 33.652C128.127 33.6648 128.184 33.6902 128.234 33.7264C129.262 34.3042 130.474 34.4589 131.614 34.1577C132.468 33.8853 133.233 33.3876 133.827 32.7168C134.422 32.0461 134.825 31.2273 134.993 30.3467C135.139 29.7999 135.117 29.2222 134.932 28.6876C134.747 28.1529 134.407 27.6857 133.955 27.3455C133.583 27.1423 133.172 27.0228 132.749 26.9955C132.326 26.9681 131.903 27.0335 131.508 27.1871C130.865 27.3505 130.268 27.6571 129.761 28.0838C129.253 28.5105 128.849 29.0464 128.577 29.6514C128.538 29.7611 128.456 29.8505 128.35 29.9001C128.245 29.9496 128.124 29.9551 128.014 29.9155C127.905 29.8721 127.817 29.7886 127.768 29.6821C127.719 29.5757 127.712 29.4544 127.75 29.3434C128.065 28.606 128.547 27.9518 129.158 27.4325C129.769 26.9132 130.492 26.5429 131.27 26.351C131.787 26.156 132.34 26.077 132.891 26.1196C133.442 26.1622 133.976 26.3253 134.457 26.5974C135.056 27.0307 135.513 27.6336 135.767 28.3285C136.021 29.0233 136.061 29.7784 135.882 30.4964C135.679 31.5338 135.199 32.4973 134.495 33.2856C133.79 34.0738 132.886 34.6578 131.878 34.9762C131.41 35.1195 130.924 35.1937 130.434 35.1962Z" fill="#1C1C1C"/>
<path d="M119.355 26.2178C119.355 26.2178 115.491 30.5128 116.125 31.4457C116.759 32.3786 118.959 32.141 118.959 32.141" fill="white"/>
<path d="M118.333 32.6249C117.541 32.6249 116.3 32.4929 115.763 31.7448C115.042 30.6886 117.524 27.6698 119.029 25.9712C119.066 25.9244 119.113 25.8858 119.166 25.8577C119.219 25.8297 119.277 25.8128 119.337 25.808C119.397 25.8033 119.457 25.8108 119.514 25.8301C119.57 25.8495 119.623 25.8802 119.667 25.9205C119.712 25.9607 119.747 26.0097 119.772 26.0643C119.797 26.1188 119.811 26.1779 119.812 26.2379C119.813 26.2979 119.802 26.3575 119.779 26.413C119.757 26.4685 119.723 26.5188 119.68 26.5608C117.849 28.6027 116.362 30.803 116.503 31.2695C116.846 31.7712 118.166 31.8328 118.914 31.7536C119.03 31.7412 119.145 31.775 119.236 31.8475C119.327 31.92 119.385 32.0255 119.398 32.1408C119.411 32.2563 119.377 32.3719 119.304 32.4626C119.232 32.5533 119.126 32.6116 119.011 32.6249C118.785 32.6371 118.559 32.6371 118.333 32.6249Z" fill="#1C1C1C"/>
<path d="M123.998 26.8069C124.109 26.202 123.852 25.6477 123.423 25.569C122.994 25.4902 122.556 25.9168 122.445 26.5218C122.334 27.1268 122.592 27.681 123.02 27.7598C123.449 27.8385 123.887 27.4119 123.998 26.8069Z" fill="#1C1C1C"/>
<path d="M117.526 25.4703C117.642 24.864 117.387 24.3058 116.958 24.2236C116.528 24.1414 116.086 24.5663 115.97 25.1727C115.854 25.779 116.108 26.3371 116.538 26.4193C116.967 26.5015 117.41 26.0766 117.526 25.4703Z" fill="#1C1C1C"/>
<path d="M119.054 37.0263C116.044 37.0263 113.289 34.7731 113.157 34.6587C113.106 34.6244 113.062 34.5796 113.029 34.5272C112.996 34.4748 112.974 34.4159 112.965 34.3546C112.957 34.2932 112.961 34.2307 112.978 34.1711C112.995 34.1115 113.024 34.0562 113.064 34.0087C113.104 33.9613 113.154 33.9229 113.21 33.8959C113.265 33.869 113.326 33.8541 113.388 33.8523C113.45 33.8505 113.512 33.8619 113.569 33.8856C113.626 33.9093 113.678 33.9448 113.721 33.9898C113.721 33.9898 117.048 36.7094 120.075 36.0405C121.58 35.7061 122.795 34.5795 123.684 32.6961C123.708 32.6432 123.743 32.5958 123.786 32.5565C123.829 32.5172 123.88 32.4868 123.934 32.4672C123.989 32.4475 124.047 32.439 124.106 32.442C124.164 32.445 124.221 32.4596 124.273 32.4848C124.326 32.5085 124.373 32.5424 124.412 32.5846C124.452 32.6269 124.482 32.6765 124.502 32.7307C124.521 32.7848 124.53 32.8424 124.527 32.8999C124.524 32.9575 124.51 33.0138 124.485 33.0657C123.464 35.2132 122.047 36.507 120.26 36.903C119.864 36.9876 119.459 37.0289 119.054 37.0263Z" fill="#1C1C1C"/>
<path d="M114.251 40.1152C114.251 40.1152 119.875 42.1395 123.519 40.5993C123.519 40.5993 118.819 47.9395 113.494 46.4785L114.251 40.1152Z" fill="#1C1C1C"/>
<path d="M114.935 47.1125C114.409 47.1135 113.886 47.0454 113.377 46.9101C113.274 46.8814 113.185 46.8169 113.125 46.7282C113.066 46.6394 113.04 46.5323 113.052 46.426L113.818 40.0627C113.825 39.9969 113.847 39.9335 113.882 39.8772C113.917 39.8209 113.964 39.7731 114.02 39.7371C114.079 39.7089 114.144 39.6943 114.209 39.6943C114.275 39.6943 114.339 39.7089 114.398 39.7371C114.46 39.7371 119.899 41.691 123.34 40.23C123.427 40.192 123.524 40.1831 123.616 40.2044C123.708 40.2257 123.791 40.2761 123.852 40.3483C123.913 40.4204 123.95 40.5103 123.956 40.6047C123.962 40.6992 123.938 40.793 123.886 40.8725C123.701 41.1189 119.802 47.1125 114.935 47.1125ZM113.976 46.1444C117.584 46.8309 120.929 43.2576 122.381 41.4093C119.433 42.0342 115.939 41.1101 114.627 40.7052L113.976 46.1444Z" fill="#1C1C1C"/>
<path d="M155.96 80.8301C155.526 81.2559 155.263 81.8256 155.221 82.4319C155.29 82.8769 155.475 83.2959 155.758 83.6465L156.893 85.3011C157.119 85.6814 157.418 86.0133 157.773 86.278C158.908 86.9909 160.352 86.102 161.364 85.2307C165.951 81.2993 170.049 76.8315 173.571 71.9232C173.897 71.5322 174.121 71.0665 174.223 70.5678C174.328 69.6349 173.589 68.8076 172.902 68.1827C172.216 67.5578 171.309 66.1848 170.579 65.9648C169.611 65.6656 169.135 66.5017 168.414 67.197C166.929 68.6404 165.462 70.1072 164.013 71.5976C161.241 74.5724 158.6 77.6616 155.96 80.8301Z" fill="white"/>
<path d="M158.721 86.9724C158.316 86.9767 157.919 86.8636 157.577 86.6467C157.162 86.3577 156.813 85.9824 156.556 85.5466L155.421 83.8919C155.089 83.4782 154.877 82.9825 154.805 82.4573C154.831 81.7403 155.13 81.0603 155.641 80.5563C158.422 77.1502 161.08 74.1226 163.764 71.3062C165.164 69.8364 166.634 68.349 168.165 66.9056C168.297 66.7823 168.42 66.6415 168.543 66.5183C169.098 65.9198 169.723 65.2509 170.77 65.5678C171.526 65.9601 172.18 66.5237 172.68 67.2136C172.864 67.4387 173.061 67.6532 173.27 67.8561C174.097 68.6482 174.845 69.5283 174.722 70.6197C174.612 71.1934 174.358 71.7296 173.983 72.1775C170.45 77.1199 166.33 81.615 161.714 85.5642C160.918 86.378 159.856 86.8779 158.721 86.9724ZM156.327 81.1107C155.967 81.4526 155.74 81.911 155.685 82.4045C155.751 82.7709 155.912 83.1136 156.151 83.3991L157.278 85.0537C157.473 85.3943 157.733 85.6934 158.044 85.9338C158.924 86.4971 160.217 85.6962 161.115 84.9217C165.674 81.0249 169.746 76.5922 173.243 71.7198C173.526 71.3886 173.723 70.9925 173.815 70.5669C173.895 69.8628 173.296 69.1851 172.636 68.5514C172.41 68.3276 172.196 68.0926 171.993 67.8473C171.545 67.3368 170.876 66.5535 170.48 66.4391C170.084 66.3247 169.749 66.5183 169.159 67.1432L168.755 67.5657C167.258 69.0179 165.789 70.5053 164.398 71.9663C161.731 74.7211 159.091 77.7223 156.327 81.1107Z" fill="#1C1C1C"/>
<path d="M73.0955 59.1178C73.0072 59.3694 72.9739 59.6371 72.9977 59.9027C73.0216 60.1683 73.1021 60.4258 73.2339 60.6576C73.3657 60.8895 73.5457 61.0904 73.7617 61.2469C73.9777 61.4033 74.2247 61.5116 74.4861 61.5645L76.3432 62.3126C76.7454 62.506 77.1824 62.6168 77.6282 62.6383C78.9659 62.6383 79.6789 61.0628 80.0397 59.7691C81.6753 53.9552 82.6032 47.9652 82.8033 41.929C82.8614 41.424 82.7917 40.9126 82.6008 40.4416C82.1696 39.5614 81.1046 39.3414 80.1717 39.183C79.406 39.051 77.7426 38.4085 77.0121 38.6285C76.0439 38.9189 76.1319 39.8783 75.8943 40.8552C75.4601 42.8795 75.0641 44.9126 74.7061 46.9545C74.0108 50.9854 73.4916 55.0428 73.0955 59.1178Z" fill="white"/>
<path d="M77.6282 63.0773C77.1439 63.048 76.6693 62.9286 76.2288 62.7252L74.3717 61.9771C73.8605 61.8131 73.4059 61.508 73.0603 61.097C72.6791 60.4859 72.5497 59.7508 72.6995 59.0463C73.1219 54.6457 73.65 50.6763 74.3189 46.8478C74.671 44.8323 75.067 42.7816 75.5071 40.7398C75.5511 40.5549 75.5775 40.3789 75.6039 40.2029C75.7359 39.402 75.8855 38.4954 76.9329 38.1786C77.7866 38.0879 78.6496 38.2026 79.45 38.513C79.7757 38.6011 80.0749 38.6803 80.3302 38.7243C81.4567 38.9179 82.5657 39.2347 83.0673 40.2117C83.2957 40.75 83.3836 41.3375 83.3226 41.9191C83.098 48.0091 82.1375 54.0495 80.4622 59.9088C79.7405 62.4876 78.5259 63.0685 77.6458 63.0949L77.6282 63.0773ZM73.5708 59.1519C73.469 59.6402 73.5341 60.1485 73.7556 60.5953C74.0205 60.855 74.3433 61.0481 74.6974 61.1586L76.5544 61.9067C76.8984 62.0836 77.2769 62.1827 77.6634 62.1971C78.7283 62.1971 79.3356 60.7889 79.6613 59.6536C81.2819 53.873 82.2038 47.9191 82.4072 41.9191C82.4604 41.4872 82.406 41.0488 82.2488 40.6429C81.9232 40.0092 81.0431 39.7628 80.1453 39.6132C79.8989 39.6132 79.5733 39.4812 79.2124 39.3844C78.5604 39.1513 77.8716 39.038 77.1793 39.0499C76.7129 39.1907 76.616 39.5252 76.4752 40.3701C76.4752 40.5549 76.4136 40.7574 76.3696 40.951C75.9296 42.9753 75.4895 45.0259 75.1902 47.0238C74.4773 50.8348 73.9493 54.8041 73.5268 59.1519H73.5708Z" fill="#1C1C1C"/>
<path d="M95.6433 70.303C95.5273 70.2962 95.4185 70.2447 95.3397 70.1594C95.261 70.074 95.2183 69.9615 95.2208 69.8453L95.8809 52.8678C95.8917 52.7533 95.9444 52.6469 96.0289 52.569C96.1134 52.491 96.2236 52.447 96.3386 52.4453C96.3964 52.4476 96.4532 52.4612 96.5057 52.4855C96.5582 52.5097 96.6054 52.544 96.6447 52.5866C96.6839 52.6291 96.7144 52.6789 96.7343 52.7332C96.7543 52.7875 96.7634 52.8452 96.761 52.903L96.1097 69.8806C96.1075 69.9391 96.0936 69.9967 96.0688 70.0498C96.044 70.1029 96.0088 70.1506 95.9654 70.1899C95.9219 70.2293 95.8711 70.2596 95.8157 70.279C95.7604 70.2984 95.7018 70.3066 95.6433 70.303Z" fill="#1C1C1C"/>
<path d="M149.691 76.6312C149.592 76.6286 149.497 76.5947 149.419 76.5343L145.291 73.3043C145.241 73.2706 145.199 73.227 145.166 73.1764C145.134 73.1257 145.113 73.0689 145.103 73.0096C145.094 72.9503 145.096 72.8897 145.111 72.8314C145.126 72.7732 145.153 72.7187 145.189 72.6711C145.226 72.6236 145.272 72.584 145.325 72.555C145.377 72.5259 145.435 72.5079 145.495 72.5021C145.555 72.4963 145.615 72.5027 145.672 72.5211C145.73 72.5395 145.782 72.5694 145.828 72.609L149.964 75.839C150.056 75.9104 150.116 76.0153 150.131 76.1307C150.146 76.2462 150.114 76.3628 150.043 76.4551C150.002 76.5093 149.949 76.5533 149.888 76.5838C149.827 76.6143 149.76 76.6305 149.691 76.6312Z" fill="#1C1C1C"/>
<path d="M77.0811 10.9478C77.029 10.9602 76.9748 10.9602 76.9227 10.9478C76.8692 10.9274 76.8204 10.8965 76.779 10.8571C76.7376 10.8176 76.7044 10.7702 76.6815 10.7178C76.6586 10.6654 76.6463 10.6089 76.6454 10.5517C76.6445 10.4945 76.655 10.4377 76.6763 10.3845C76.9594 9.6393 77.5212 9.03333 78.2429 8.6947C77.3864 8.41575 76.6245 7.90375 76.0426 7.21609C75.9839 7.11278 75.9531 6.99603 75.9531 6.87724C75.9531 6.75846 75.9839 6.64171 76.0426 6.5384C76.5178 5.65827 79.8447 5.35023 81.781 5.25342C81.8391 5.24862 81.8975 5.25564 81.9528 5.27405C82.0081 5.29247 82.059 5.32189 82.1026 5.36055C82.1462 5.39921 82.1815 5.4463 82.2064 5.49899C82.2313 5.55167 82.2453 5.60885 82.2474 5.66708C82.2524 5.78327 82.212 5.89683 82.1348 5.98384C82.0577 6.07086 81.9497 6.12452 81.8338 6.13354C80.1666 6.15515 78.5105 6.40992 76.9139 6.89045C77.8369 7.60073 78.8981 8.11036 80.0295 8.38665C80.1462 8.40766 80.2498 8.47417 80.3175 8.57156C80.3852 8.66894 80.4114 8.78922 80.3904 8.90593C80.3694 9.02264 80.3029 9.12623 80.2055 9.1939C80.1081 9.26157 79.9878 9.28778 79.8711 9.26678C79.3762 9.23582 78.8837 9.35878 78.4614 9.61878C78.0391 9.87878 77.7076 10.2631 77.5124 10.719C77.4702 10.7947 77.4071 10.8566 77.3306 10.8972C77.2541 10.9378 77.1674 10.9554 77.0811 10.9478Z" fill="#1C1C1C"/>
<path d="M77.6984 6.59154H77.6279L73.9666 6.09867C73.9088 6.09116 73.8531 6.07234 73.8026 6.04328C73.7521 6.01422 73.7078 5.9755 73.6722 5.92933C73.6004 5.83607 73.5686 5.71811 73.5838 5.6014C73.599 5.48469 73.6599 5.37879 73.7531 5.30699C73.8464 5.23519 73.9643 5.20338 74.0811 5.21855L77.7424 5.71142C77.8591 5.71842 77.9682 5.7715 78.0458 5.85898C78.1234 5.94646 78.163 6.06117 78.156 6.17788C78.149 6.29459 78.0959 6.40374 78.0085 6.48132C77.921 6.5589 77.8063 6.59854 77.6896 6.59154H77.6984Z" fill="#1C1C1C"/>
<path d="M70.5851 173.577C70.4699 173.566 70.3636 173.51 70.2895 173.421C70.2154 173.332 70.1793 173.218 70.1891 173.102C70.2331 172.521 75.3026 115.208 88.6717 86.3484C88.723 86.2433 88.8134 86.1624 88.9236 86.123C89.0337 86.0835 89.1549 86.0886 89.2613 86.1372C89.3139 86.1609 89.3611 86.1948 89.4003 86.237C89.4395 86.2793 89.4699 86.3289 89.4896 86.3831C89.5093 86.4372 89.5179 86.4948 89.515 86.5523C89.5121 86.6098 89.4976 86.6662 89.4726 86.7181C76.1651 115.437 71.1132 172.6 71.0604 173.173C71.056 173.23 71.0401 173.287 71.0138 173.339C70.9875 173.39 70.9512 173.436 70.907 173.474C70.8628 173.511 70.8116 173.54 70.7564 173.558C70.7012 173.576 70.643 173.582 70.5851 173.577Z" fill="#1C1C1C"/>
<path d="M179.801 123.833L183.656 124.379L187.343 165.674L183.224 168.297L179.801 123.833Z" fill="white"/>
<path d="M183.244 168.736C183.177 168.735 183.111 168.72 183.05 168.692C182.983 168.657 182.925 168.605 182.882 168.542C182.839 168.48 182.812 168.407 182.804 168.331L179.38 123.859C179.376 123.793 179.386 123.728 179.41 123.667C179.435 123.606 179.472 123.551 179.521 123.507C179.569 123.463 179.626 123.429 179.688 123.41C179.751 123.39 179.817 123.384 179.882 123.392L183.736 123.938C183.834 123.953 183.925 124 183.993 124.072C184.062 124.143 184.104 124.236 184.115 124.334L187.803 165.629C187.808 165.71 187.791 165.79 187.756 165.863C187.721 165.936 187.667 165.998 187.6 166.043L183.481 168.683C183.408 168.722 183.326 168.74 183.244 168.736ZM180.304 124.343L183.631 167.531L186.896 165.445L183.244 124.765L180.304 124.343Z" fill="#1C1C1C"/>
<path d="M124.432 29.8977C122.17 29.8977 120.806 27.9791 120.199 26.4565C119.213 27.5038 116.925 29.5105 114.108 29.0968C110.412 28.604 107.472 22.8832 107.349 22.6367C107.309 22.5704 107.287 22.4943 107.287 22.4167C107.287 22.3391 107.309 22.2629 107.349 22.1967C107.392 22.1324 107.451 22.0807 107.521 22.0467C107.591 22.0127 107.668 21.9976 107.745 22.003L132.388 24.0449C132.47 24.054 132.547 24.0839 132.613 24.1317C132.68 24.1795 132.733 24.2436 132.767 24.3178C132.797 24.394 132.805 24.477 132.791 24.5576C132.777 24.6383 132.741 24.7136 132.688 24.7754C132.529 24.9514 128.842 29.176 125.136 29.8097C124.904 29.858 124.669 29.8874 124.432 29.8977ZM120.375 25.1363H120.463C120.544 25.1517 120.62 25.1908 120.679 25.2487C120.739 25.3066 120.78 25.3808 120.797 25.4619C120.797 25.6203 121.889 29.5017 125.031 28.9824C127.592 28.5335 130.311 26.0868 131.456 24.8898L108.572 22.9888C109.452 24.5026 111.741 27.9263 114.267 28.2695C117.462 28.692 120.04 25.3651 120.067 25.3299C120.102 25.2779 120.147 25.2338 120.2 25.2005C120.253 25.1671 120.313 25.1453 120.375 25.1363Z" fill="#1C1C1C"/>
<path d="M7.41129 189.287C7.33231 189.286 7.25492 189.265 7.18693 189.225C7.11893 189.184 7.06274 189.127 7.02403 189.058C6.97885 188.979 6.96043 188.888 6.97154 188.797C6.98264 188.707 7.02266 188.622 7.08564 188.557C7.34968 188.257 34.079 158.492 29.8016 146.883C27.0028 139.296 0.572734 130.935 0.308697 130.847C0.222454 130.821 0.146385 130.769 0.0911474 130.698C0.0359098 130.627 0.00426777 130.541 0.000651973 130.451C-0.00432396 130.359 0.0192785 130.269 0.068176 130.192C0.117074 130.114 0.188838 130.054 0.273491 130.02C7.42889 127.098 14.285 123.683 19.469 121.034L21.0092 120.25C27.7773 116.818 35.4608 112.936 37.7843 105.244C38.5623 102.848 38.6387 100.28 38.0044 97.8423C36.9834 94.2514 33.9734 91.0741 29.7576 89.1203C21.8365 85.4677 11.363 84.7813 3.68837 84.2796C3.57857 84.2751 3.47463 84.2289 3.39775 84.1504C3.32087 84.0719 3.27686 83.967 3.27471 83.8571C3.27148 83.7488 3.30831 83.6432 3.37814 83.5604C3.44797 83.4775 3.54589 83.4234 3.65316 83.4083C9.43433 82.5516 15.0218 80.6931 20.1643 77.9163C24.7233 75.4608 27.9886 72.7324 30.1449 69.5727C36.5346 60.261 31.5091 42.7994 23.1039 35.5736C23.06 35.536 23.0239 35.4902 22.9977 35.4387C22.9715 35.3871 22.9557 35.331 22.9512 35.2734C22.9421 35.157 22.9796 35.0418 23.0555 34.9531C23.1313 34.8644 23.2393 34.8095 23.3557 34.8004C23.472 34.7913 23.5873 34.8288 23.676 34.9047C30.3649 40.6343 41.9737 41.4616 45.679 39.719C48.9443 38.2139 51.2942 31.7098 49.4019 23.8768C49.3752 23.7648 49.3934 23.6468 49.4526 23.5481C49.5118 23.4493 49.6074 23.3778 49.7188 23.3487C49.8331 23.322 49.9533 23.3411 50.0536 23.402C50.154 23.4629 50.2265 23.5606 50.2557 23.6743C52.28 32.0795 49.7012 38.8652 46.0487 40.5551C42.3962 42.2449 33.3573 41.6376 26.5804 37.9587C29.6929 41.9548 31.9001 46.5794 33.0493 51.5126C34.8095 58.7648 33.9822 65.5242 30.8754 70.0568C28.631 73.3309 25.2602 76.1561 20.5867 78.682C16.3852 80.9614 11.8851 82.6411 7.21766 83.6723C14.4611 84.2004 23.2271 85.1685 30.1009 88.3545C34.5543 90.414 37.7315 93.8025 38.8229 97.6398C39.5099 100.247 39.4304 102.998 38.594 105.561C36.1649 113.614 28.3054 117.583 21.3788 121.095L19.8386 121.878C14.9187 124.396 8.46744 127.608 1.69049 130.442C6.97123 132.202 27.971 139.507 30.6025 146.645C32.5124 151.688 29.2207 160.419 20.8332 172.565C17.0238 178 12.9283 183.23 8.56425 188.231C13.7482 187.351 33.9294 183.892 41.7097 181.859C41.8264 181.83 41.9499 181.848 42.0531 181.91C42.1562 181.972 42.2306 182.072 42.2598 182.189C42.2889 182.306 42.2705 182.429 42.2087 182.532C42.1468 182.635 42.0464 182.71 41.9297 182.739C32.9789 185.08 7.73694 189.296 7.4817 189.34L7.41129 189.287Z" fill="#D1D3D4"/>
<path d="M220.533 182.862C220.472 182.874 220.409 182.874 220.348 182.862C212.66 179.196 204.219 177.387 195.705 177.581C195.648 177.583 195.592 177.573 195.539 177.552C195.486 177.531 195.438 177.501 195.397 177.461C195.356 177.422 195.323 177.375 195.301 177.323C195.278 177.271 195.266 177.216 195.265 177.159C195.262 177.101 195.271 177.043 195.291 176.989C195.311 176.935 195.342 176.885 195.381 176.842C195.42 176.8 195.467 176.766 195.52 176.741C195.572 176.717 195.629 176.704 195.687 176.701C203.86 176.508 211.975 178.125 219.45 181.436C216.731 177.036 214.513 172.265 215.182 167.354C215.974 161.572 220.876 156.476 227.662 154.364C233.022 152.692 238.848 152.894 244.173 153.272C234.709 148.06 225.795 141.906 217.567 134.904C212.797 130.847 206.539 124.598 207.155 117.047C207.709 110.226 213.659 105.235 218.781 101.644C228.321 94.9541 238.533 89.2788 249.251 84.7108C233.563 84.918 218.309 79.561 206.196 69.5903C204.189 67.9181 202.2 66.0698 201.311 63.5174C199.401 58.1575 203.247 52.4983 207.472 48.9866C210.526 46.4519 215.472 41.6464 217.857 39.3053C212.11 41.2767 194.34 47.0856 184.791 47.1384C183.817 47.1851 182.847 46.9939 181.964 46.5814C181.08 46.1689 180.311 45.5475 179.722 44.7708C175.867 39.7541 178.173 28.1453 179.061 24.3872C173.297 28.3037 165.155 29.5711 164.795 29.6679C164.737 29.6767 164.679 29.674 164.623 29.6602C164.567 29.6463 164.514 29.6215 164.467 29.5872C164.421 29.5529 164.381 29.5097 164.351 29.4601C164.321 29.4105 164.302 29.3555 164.293 29.2983C164.278 29.1831 164.308 29.0664 164.377 28.9728C164.446 28.8793 164.548 28.8161 164.663 28.7966C164.751 28.7966 173.922 27.3532 179.51 23.0142C179.585 22.9611 179.674 22.9326 179.766 22.9326C179.857 22.9326 179.946 22.9611 180.021 23.0142C180.098 23.0659 180.157 23.1402 180.19 23.2269C180.223 23.3136 180.229 23.4084 180.206 23.4983C180.162 23.6479 176.148 38.7332 180.426 44.2956C180.927 44.9545 181.583 45.481 182.334 45.8291C183.086 46.1773 183.911 46.3367 184.738 46.2934C196.021 46.2318 219.107 37.9587 219.345 37.8795C219.438 37.8457 219.541 37.8448 219.635 37.8767C219.729 37.9087 219.81 37.9717 219.864 38.0555C219.919 38.1394 219.942 38.2398 219.931 38.3394C219.92 38.439 219.874 38.5315 219.802 38.6012C219.732 38.6804 212.136 46.267 207.982 49.7083C203.969 53.0352 200.308 58.3423 202.068 63.2798C202.895 65.5857 204.77 67.3724 206.689 68.9654C219.262 79.3311 235.256 84.6236 251.531 83.8043C251.637 83.7915 251.743 83.8201 251.828 83.884C251.914 83.948 251.971 84.0424 251.988 84.1475C252.012 84.2489 251.999 84.3556 251.95 84.4478C251.902 84.5401 251.822 84.6116 251.724 84.6492C240.244 89.35 229.322 95.3128 219.16 102.428C214.196 105.904 208.44 110.727 207.912 117.179C207.322 124.325 213.395 130.38 218.016 134.288C226.713 141.676 236.176 148.114 246.241 153.492C246.331 153.539 246.401 153.616 246.439 153.709C246.478 153.803 246.483 153.907 246.452 154.003C246.426 154.1 246.367 154.184 246.285 154.242C246.203 154.3 246.104 154.327 246.004 154.32C240.221 153.88 233.682 153.378 227.776 155.2C222.496 156.846 216.757 161.281 215.903 167.478C215.208 172.573 217.857 177.581 220.823 182.228C220.883 182.303 220.916 182.396 220.916 182.492C220.916 182.588 220.883 182.682 220.823 182.756C220.742 182.824 220.639 182.862 220.533 182.862Z" fill="#D1D3D4"/>
<path d="M155.247 178.973C155.148 178.973 155.052 178.941 154.973 178.88C154.895 178.82 154.84 178.734 154.816 178.638L135.075 102.948C135.06 102.892 135.057 102.833 135.065 102.776C135.073 102.718 135.092 102.663 135.122 102.613C135.151 102.563 135.19 102.52 135.236 102.485C135.283 102.45 135.335 102.425 135.392 102.411C135.448 102.395 135.506 102.391 135.564 102.398C135.622 102.406 135.677 102.425 135.728 102.454C135.778 102.484 135.821 102.523 135.856 102.57C135.89 102.617 135.915 102.671 135.928 102.728L155.67 178.418C155.684 178.474 155.687 178.533 155.679 178.59C155.671 178.647 155.652 178.702 155.623 178.752C155.593 178.802 155.554 178.846 155.508 178.881C155.462 178.915 155.409 178.941 155.353 178.955L155.247 178.973Z" fill="white"/>
<defs>
<linearGradient id="paint0_linear_870_110" x1="132.264" y1="50.6055" x2="132.264" y2="184.393" gradientUnits="userSpaceOnUse">
<stop stop-color="#3D7FA1"/>
<stop offset="1" stop-color="#355F75"/>
</linearGradient>
<linearGradient id="paint1_linear_870_110" x1="123.025" y1="40.1152" x2="123.025" y2="59.9784" gradientUnits="userSpaceOnUse">
<stop stop-color="#3D7FA1"/>
<stop offset="1" stop-color="#355F75"/>
</linearGradient>
</defs>
</svg>
