<svg width="30" height="22" viewBox="0 0 30 22" fill="none" xmlns="http://www.w3.org/2000/svg">
<path d="M10.5 0.78125C12.06 0.78125 13.59 1.14125 15 1.80125C16.41 1.14125 17.94 0.78125 19.5 0.78125C22.2848 0.78125 24.9555 1.8875 26.9246 3.85663C28.8938 5.82576 30 8.49648 30 11.2813C30 14.066 28.8938 16.7367 26.9246 18.7059C24.9555 20.675 22.2848 21.7813 19.5 21.7813C17.94 21.7813 16.41 21.4213 15 20.7613C13.59 21.4213 12.06 21.7813 10.5 21.7813C7.71523 21.7813 5.04451 20.675 3.07538 18.7059C1.10625 16.7367 0 14.066 0 11.2813C0 8.49648 1.10625 5.82576 3.07538 3.85663C5.04451 1.8875 7.71523 0.78125 10.5 0.78125ZM9.75 11.2813C9.75 14.0863 10.935 16.6213 12.84 18.4063L14.34 17.7163C12.465 16.2163 11.25 13.8913 11.25 11.2813C11.25 8.67125 12.465 6.34625 14.34 4.84625L12.84 4.15625C10.935 5.94125 9.75 8.47625 9.75 11.2813ZM20.25 11.2813C20.25 8.47625 19.065 5.94125 17.16 4.15625L15.66 4.84625C17.535 6.34625 18.75 8.67125 18.75 11.2813C18.75 13.8913 17.535 16.2163 15.66 17.7163L17.16 18.4063C19.065 16.6213 20.25 14.0863 20.25 11.2813Z" fill="url(#paint0_linear_1175_429)"/>
<defs>
<linearGradient id="paint0_linear_1175_429" x1="15" y1="0.78125" x2="15" y2="21.7813" gradientUnits="userSpaceOnUse">
<stop stop-color="#3D7FA1"/>
<stop offset="1" stop-color="#355F75"/>
</linearGradient>
</defs>
</svg>
