<svg width="18" height="18" viewBox="0 0 18 18" fill="none" xmlns="http://www.w3.org/2000/svg">
<path d="M7.04178 15.4015C7.04178 15.3639 7.04178 15.3262 7.04178 15.2886C4.36816 14.4225 2.41002 11.9748 2.41002 8.99993C2.41002 5.38489 5.38489 2.41002 8.99993 2.41002C12.615 2.41002 15.5898 5.38489 15.5898 8.99993C15.5898 9.60243 15.5145 10.2049 15.3639 10.7698C15.4392 10.8451 15.5522 10.8828 15.6275 10.9581C15.7405 10.9581 15.8534 10.9204 15.9664 10.9204C16.5689 10.9204 17.1714 11.1087 17.6233 11.3723C17.8492 10.6192 17.9622 9.82837 17.9622 8.99993C17.9245 4.02926 13.8953 0 8.96227 0C4.02926 0 0 4.02926 0 8.96227C0 13.707 3.69035 17.5856 8.35976 17.8869C7.60663 17.3597 7.04178 16.4183 7.04178 15.4015Z" fill="url(#paint0_linear_801_965)"/>
<path d="M10.9959 10.054C11.5607 10.054 12.0879 10.2047 12.5775 10.4306C12.6904 10.3929 12.8034 10.3553 12.954 10.3553C13.1046 9.94106 13.18 9.48918 13.18 8.99965C13.18 6.7026 11.3348 4.85742 9.03773 4.85742C6.74068 4.85742 4.89551 6.7026 4.89551 8.99965C4.89551 10.8448 6.10052 12.3887 7.75741 12.9536C7.90804 11.2967 9.30133 10.054 10.9959 10.054Z" fill="url(#paint1_linear_801_965)"/>
<path d="M12.465 12.2395C12.7662 11.9382 13.1805 11.7499 13.67 11.7499C14.3102 11.7499 14.8374 12.0888 15.1386 12.5784C15.3646 12.5031 15.6658 12.3901 15.9671 12.3901C17.0591 12.3901 18.0005 13.3315 18.0005 14.3859C18.0005 15.4779 17.0591 16.3817 15.9671 16.3817C15.8541 16.3817 15.7035 16.3817 15.5905 16.344C15.3646 16.7959 14.8374 17.0972 14.3102 17.0972C14.0842 17.0972 13.8583 17.0218 13.67 16.9465C13.4064 17.549 12.8039 17.9633 12.1261 17.9633C11.373 17.9633 10.7704 17.5114 10.5445 16.8712C10.4692 16.8712 10.3186 16.9089 10.2056 16.9089C9.3395 16.9089 8.62402 16.2311 8.62402 15.365C8.62402 14.8001 8.92528 14.2729 9.41481 14.0093C9.3395 13.7834 9.26419 13.5574 9.26419 13.2938C9.26419 12.3148 10.0926 11.4863 11.0717 11.4863C11.5989 11.524 12.1261 11.8252 12.465 12.2395Z" fill="url(#paint2_linear_801_965)"/>
<defs>
<linearGradient id="paint0_linear_801_965" x1="8.9811" y1="0" x2="8.9811" y2="17.8869" gradientUnits="userSpaceOnUse">
<stop stop-color="#73D382"/>
<stop offset="1" stop-color="#3EA573"/>
</linearGradient>
<linearGradient id="paint1_linear_801_965" x1="9.03773" y1="4.85742" x2="9.03773" y2="12.9536" gradientUnits="userSpaceOnUse">
<stop stop-color="#73D382"/>
<stop offset="1" stop-color="#3EA573"/>
</linearGradient>
<linearGradient id="paint2_linear_801_965" x1="13.3123" y1="11.4863" x2="13.3123" y2="17.9633" gradientUnits="userSpaceOnUse">
<stop stop-color="#73D382"/>
<stop offset="1" stop-color="#3EA573"/>
</linearGradient>
</defs>
</svg>
