<svg width="144" height="143" viewBox="0 0 144 143" fill="none" xmlns="http://www.w3.org/2000/svg">
<path d="M55.9447 122.36C55.9447 122.061 55.9447 121.762 55.9447 121.463C34.7037 114.582 19.1469 95.136 19.1469 71.5016C19.1469 42.7813 42.7813 19.1469 71.5016 19.1469C100.222 19.1469 123.856 42.7813 123.856 71.5016C123.856 76.2883 123.258 81.075 122.061 85.5625C122.66 86.1609 123.557 86.46 124.155 87.0584C125.053 87.0584 125.95 86.7592 126.848 86.7592C131.635 86.7592 136.421 88.2551 140.011 90.3492C141.806 84.3659 142.704 78.0833 142.704 71.5016C142.405 32.0112 110.394 0 71.2024 0C32.0112 0 0 32.0112 0 71.2024C0 108.898 29.3186 139.712 66.4157 142.106C60.4323 137.917 55.9447 130.438 55.9447 122.36Z" fill="white"/>
<path d="M87.3502 79.8831C91.8378 79.8831 96.0262 81.0797 99.9154 82.8748C100.813 82.5756 101.71 82.2764 102.907 82.2764C104.104 78.9856 104.702 75.3955 104.702 71.5063C104.702 53.257 90.0428 38.5977 71.7934 38.5977C53.5441 38.5977 38.8848 53.257 38.8848 71.5063C38.8848 86.1656 48.4582 98.4316 61.6217 102.919C62.8183 89.7557 73.8876 79.8831 87.3502 79.8831Z" fill="white"/>
<path d="M99.0231 97.2305C101.416 94.8371 104.707 93.3413 108.597 93.3413C113.682 93.3413 117.871 96.0338 120.264 99.923C122.059 99.3247 124.453 98.4271 126.846 98.4271C135.522 98.4271 143.001 105.906 143.001 114.283C143.001 122.959 135.522 130.139 126.846 130.139C125.948 130.139 124.752 130.139 123.854 129.84C122.059 133.43 117.871 135.823 113.682 135.823C111.887 135.823 110.092 135.225 108.597 134.627C106.502 139.413 101.716 142.704 96.3306 142.704C90.3472 142.704 85.5605 139.114 83.7655 134.028C83.1671 134.028 81.9705 134.328 81.0729 134.328C74.192 134.328 68.5078 128.942 68.5078 122.062C68.5078 117.574 70.9012 113.386 74.7904 111.291C74.192 109.496 73.5937 107.701 73.5937 105.607C73.5937 97.8288 80.1754 91.2471 87.9538 91.2471C92.1422 91.5462 96.3306 93.9396 99.0231 97.2305Z" fill="url(#paint0_linear_749_93)"/>
<defs>
<linearGradient id="paint0_linear_749_93" x1="105.754" y1="91.2471" x2="105.754" y2="142.704" gradientUnits="userSpaceOnUse">
<stop stop-color="#3D7FA1"/>
<stop offset="1" stop-color="#355F75"/>
</linearGradient>
</defs>
</svg>
