<svg width="55" height="56" viewBox="0 0 55 56" fill="none" xmlns="http://www.w3.org/2000/svg">
<path d="M25.8099 54.6544C40.0643 54.6544 51.6198 53.9139 51.6198 53.0005C51.6198 52.0871 40.0643 51.3467 25.8099 51.3467C11.5555 51.3467 0 52.0871 0 53.0005C0 53.9139 11.5555 54.6544 25.8099 54.6544Z" fill="url(#paint0_linear_759_402)"/>
<path d="M29.9536 26.9601C30.4656 26.654 30.9589 26.3176 31.4308 25.9529C32.443 25.1695 32.744 24.4955 33.0374 23.2793C33.2339 22.4586 32.6147 21.6852 32.0053 21.1008C31.396 20.5163 30.7022 19.8697 30.6922 19.0266C30.6922 18.3775 31.0976 17.8105 31.3438 17.2086C32.6445 14.0402 29.0284 12.6425 28.3047 9.99638C27.581 7.35023 26.728 5.17413 23.4874 6.01721C22.7015 6.21866 21.9231 6.48725 21.1148 6.51461C20.3688 6.55191 19.6376 6.39523 18.8965 6.38529C17.8603 6.38575 16.8434 6.66548 15.9528 7.19504C15.0622 7.72459 14.3307 8.48441 13.8355 9.39453C13.44 10.1406 13.6738 11.1354 13.3032 11.7248C12.3308 13.2717 10.0105 12.8937 10.5029 15.423C10.6795 16.3233 11.065 17.2708 10.7218 18.1238C10.284 19.2106 8.93361 19.5364 7.98607 20.2328C6.44166 21.3718 6.03877 23.6648 6.7774 25.438C7.51603 27.2113 9.18231 28.4722 10.9928 29.1163C12.8034 29.7604 14.7556 29.8624 16.6781 29.8624C21.2641 29.8798 26.0714 29.2904 29.9536 26.9601Z" fill="white"/>
<path d="M16.7505 29.9854H16.6833C14.7982 29.9854 12.8036 29.8909 10.9633 29.2393C8.92893 28.5156 7.36711 27.1527 6.6807 25.5088C5.8774 23.5789 6.41211 21.2809 7.92419 20.1668C8.24186 19.9447 8.57422 19.7445 8.91898 19.5674C9.64269 19.1769 10.3291 18.8213 10.6101 18.1075C10.8588 17.4759 10.6922 16.7621 10.5231 16.0732C10.4758 15.8717 10.4261 15.6703 10.3888 15.4713C10.063 13.8051 10.9086 13.3325 11.8039 12.8302C12.3212 12.5417 12.8534 12.2432 13.2041 11.6886C13.3591 11.3622 13.4398 11.0055 13.4403 10.6441C13.4511 10.2039 13.5491 9.77027 13.7288 9.36829C14.2288 8.44986 14.9645 7.68121 15.8601 7.14138C16.7557 6.60156 17.779 6.31006 18.8246 6.29687H18.8918C19.2176 6.29687 19.5434 6.33169 19.8592 6.36402C20.2717 6.41366 20.6873 6.43361 21.1027 6.42371C21.7219 6.37003 22.3332 6.24826 22.9257 6.06061L23.4554 5.91636C26.7656 5.06581 27.6559 7.25684 28.4095 9.98755C28.678 10.9649 29.3694 11.7856 30.0384 12.579C31.1377 13.8846 32.2767 15.2351 31.4436 17.2645C31.3739 17.4361 31.2869 17.6101 31.1949 17.7768C30.9632 18.1586 30.8251 18.5898 30.792 19.0352C30.792 19.8161 31.4585 20.4453 32.0355 21.0024L32.0678 21.0297C32.9507 21.8753 33.2964 22.6214 33.1297 23.3178C32.8313 24.5613 32.5229 25.2477 31.4834 26.0535C31.0065 26.4209 30.5082 26.7598 29.9912 27.0681C26.7258 29.0279 22.3885 29.9854 16.7505 29.9854ZM18.8296 6.51075C17.8256 6.52302 16.8429 6.80251 15.9827 7.32047C15.1225 7.83843 14.4158 8.57617 13.9352 9.45782C13.7701 9.83465 13.6805 10.2402 13.6716 10.6516C13.6703 11.0487 13.5775 11.4401 13.4005 11.7956C13.02 12.3974 12.4604 12.7108 11.9083 13.0142C11.0503 13.4942 10.3092 13.9095 10.6027 15.4117C10.6425 15.6081 10.6897 15.8046 10.737 16.0036C10.9135 16.7273 11.0951 17.4783 10.8141 18.1772C10.5007 18.9556 9.74715 19.361 9.01846 19.7539C8.68161 19.9249 8.35673 20.1185 8.04605 20.3334C6.61355 21.3904 6.11118 23.5665 6.87468 25.4068C7.53871 27.001 9.05079 28.3191 11.023 29.0204C12.8335 29.6645 14.8082 29.7665 16.6709 29.7665H16.7381C22.3338 29.7665 26.6338 28.819 29.8842 26.8692C30.3915 26.5664 30.8806 26.2342 31.3491 25.8744C32.3439 25.1109 32.6299 24.4518 32.9134 23.2631C33.0601 22.6537 32.7343 21.9773 31.9186 21.1939L31.8863 21.1665C31.2745 20.5796 30.5781 19.923 30.5706 19.0377C30.6026 18.5561 30.7484 18.0891 30.9959 17.6748C31.078 17.5107 31.1601 17.344 31.2297 17.1774C32.0081 15.2774 30.9636 14.0388 29.8594 12.7257C29.1754 11.915 28.4667 11.0744 28.1856 10.0472C27.4395 7.3414 26.6213 5.33689 23.5076 6.1377C23.331 6.18247 23.157 6.22972 22.9829 6.27946C22.374 6.47136 21.7461 6.59644 21.1102 6.65251C20.6831 6.66188 20.256 6.64111 19.8319 6.59033C19.521 6.558 19.2002 6.52816 18.8843 6.52318L18.8296 6.51075Z" fill="url(#paint1_radial_759_402)"/>
<path d="M7.55273 34.4476C7.55273 34.4476 9.58211 23.5049 11.6115 21.6521C13.6409 19.7993 19.0252 19.7993 21.8479 19.7098C24.6706 19.6202 28.8114 20.5927 30.6742 22.4455C32.5369 24.2983 34.4668 36.0318 34.4668 36.0318L30.5847 35.5892L33.0567 42.12C33.0567 42.12 24.4965 46.7259 20.5248 46.4498C16.5531 46.1737 10.2884 40.8019 10.2884 40.8019L10.6416 33.5647L7.55273 34.4476Z" fill="url(#paint2_linear_759_402)"/>
<path d="M29.5263 33.7652C29.5113 33.7645 29.4967 33.7609 29.4832 33.7545C29.4697 33.7482 29.4576 33.7391 29.4476 33.728C29.4377 33.7169 29.43 33.7039 29.4252 33.6898C29.4203 33.6756 29.4183 33.6607 29.4193 33.6458C29.5934 30.2585 28.3748 23.678 28.3624 23.6133C28.3596 23.5988 28.3597 23.5838 28.3627 23.5693C28.3657 23.5549 28.3715 23.5411 28.3798 23.5289C28.3881 23.5166 28.3988 23.5061 28.4111 23.498C28.4235 23.4899 28.4374 23.4843 28.4519 23.4815C28.4664 23.4787 28.4814 23.4788 28.4958 23.4818C28.5103 23.4848 28.5241 23.4906 28.5363 23.499C28.5486 23.5073 28.5591 23.5179 28.5672 23.5303C28.5753 23.5426 28.5809 23.5565 28.5837 23.571C28.5837 23.6382 29.8272 30.2436 29.6456 33.6582C29.645 33.6731 29.6414 33.6878 29.635 33.7013C29.6286 33.7148 29.6196 33.7269 29.6085 33.7369C29.5974 33.7468 29.5844 33.7545 29.5702 33.7593C29.5561 33.7642 29.5412 33.7662 29.5263 33.7652Z" fill="url(#paint3_radial_759_402)"/>
<path d="M14.4364 31.4724C14.4065 31.4724 14.3778 31.4607 14.3564 31.4398C14.335 31.4189 14.3227 31.3904 14.322 31.3605C14.322 31.3108 14.2449 26.4537 15.1204 23.2977C15.129 23.2692 15.1483 23.245 15.1742 23.2302C15.2001 23.2155 15.2306 23.2111 15.2596 23.2181C15.2741 23.2219 15.2877 23.2285 15.2996 23.2375C15.3115 23.2466 15.3214 23.258 15.3288 23.2709C15.3362 23.2839 15.341 23.2983 15.3428 23.3131C15.3446 23.328 15.3433 23.343 15.3392 23.3574C14.4713 26.4835 14.5484 31.3157 14.5484 31.3555C14.549 31.3854 14.538 31.4144 14.5175 31.4363C14.497 31.4581 14.4688 31.4711 14.4389 31.4724H14.4364Z" fill="url(#paint4_radial_759_402)"/>
<path d="M23.4488 21.1086L23.8641 25.242C23.8641 25.242 23.6627 27.5947 21.0787 27.1271C20.316 26.9821 19.5953 26.669 18.9689 26.2103C18.3425 25.7517 17.8263 25.1593 17.4577 24.476C17.3358 24.2273 17.4154 23.6852 17.4005 23.4116L17.2687 20.9868C17.204 19.7706 17.0324 18.4998 17.0697 17.2886C17.107 16.0775 17.0697 14.7867 17.117 13.5233C17.1105 13.4495 17.1318 13.3759 17.1766 13.3169C17.2211 13.2761 17.2781 13.2515 17.3383 13.2473C17.688 13.1842 18.0468 13.1935 18.3928 13.2747C18.4102 12.4166 18.3081 11.5603 18.0894 10.7305C18.819 11.2747 19.3843 12.0096 19.7233 12.8544C20.5809 12.8119 21.4406 12.8544 22.2899 12.9812C22.3994 12.3908 22.3175 11.7809 22.0561 11.2403C22.4188 11.6867 22.7512 12.157 23.0509 12.6479C23.0509 12.7201 24.2024 12.8817 24.2819 12.8096C24.4809 12.633 24.4162 11.4417 24.4411 11.1582C25.0299 11.8973 25.4294 12.7689 25.605 13.6974C25.804 14.5455 25.7816 18.0546 25.7866 18.94C25.7841 20.2457 24.8589 21.2927 23.4488 21.1086Z" fill="white"/>
<path d="M21.7238 27.2958C21.5001 27.2942 21.277 27.2725 21.0573 27.2311C20.278 27.0838 19.5417 26.7632 18.9029 26.2932C18.2641 25.8231 17.7391 25.2155 17.3666 24.5153C17.2848 24.2551 17.2594 23.9804 17.292 23.7096C17.292 23.5952 17.292 23.4907 17.292 23.4086L17.1626 20.9863C17.1403 20.5834 17.1054 20.1681 17.0731 19.7652C16.9899 18.9389 16.9525 18.1087 16.9612 17.2782C16.9786 16.6863 16.9811 16.077 16.9836 15.4901C16.9836 14.8435 16.9836 14.1745 17.0084 13.5005C17.0025 13.3982 17.0344 13.2973 17.098 13.217C17.161 13.1603 17.2401 13.1247 17.3243 13.115C17.6426 13.0578 17.9685 13.0578 18.2868 13.115C18.2912 12.3127 18.1901 11.5133 17.9858 10.7375C17.9802 10.7146 17.9818 10.6906 17.9903 10.6687C17.9988 10.6467 18.0139 10.628 18.0335 10.6149C18.053 10.6019 18.0762 10.5952 18.0997 10.5957C18.1232 10.5963 18.146 10.6041 18.1649 10.6181C18.8892 11.1585 19.4552 11.8834 19.8038 12.7171C20.6056 12.683 21.4088 12.7213 22.2037 12.8315C22.2764 12.2978 22.1899 11.7545 21.9551 11.2697C21.9432 11.2445 21.9409 11.2158 21.9486 11.1891C21.9564 11.1623 21.9736 11.1393 21.9971 11.1244C22.0206 11.1094 22.0487 11.1036 22.0763 11.1079C22.1038 11.1122 22.1288 11.1264 22.1466 11.1478C22.5042 11.5929 22.8316 12.0615 23.1264 12.5505C23.4807 12.6378 23.8435 12.6853 24.2083 12.6922C24.3052 12.5505 24.3102 11.8019 24.3102 11.5134C24.3102 11.3418 24.3102 11.205 24.3102 11.1254C24.3121 11.1035 24.3204 11.0826 24.3341 11.0653C24.3478 11.048 24.3663 11.0352 24.3873 11.0284C24.4086 11.0222 24.4313 11.0219 24.4528 11.0276C24.4742 11.0333 24.4937 11.0448 24.5092 11.0608C25.0513 11.6825 25.4269 12.5057 25.6955 13.6522C25.8745 14.3983 25.877 17.1638 25.8795 18.4894V18.9196C25.8923 19.2577 25.8323 19.5945 25.7036 19.9073C25.5749 20.2201 25.3804 20.5016 25.1334 20.7326C24.9209 20.9164 24.6726 21.0541 24.4043 21.1371C24.1359 21.2202 23.8532 21.2467 23.5741 21.2151L23.9745 25.2117C23.911 25.8526 23.5984 26.4429 23.104 26.8556C22.7061 27.1525 22.2201 27.3075 21.7238 27.2958ZM17.7968 13.3115C17.6492 13.3109 17.5018 13.3243 17.3566 13.3513C17.321 13.3542 17.2868 13.3662 17.2571 13.3861C17.2342 13.4269 17.2246 13.4739 17.2298 13.5204C17.2049 14.177 17.2049 14.846 17.2024 15.4901C17.2024 16.0795 17.2024 16.6888 17.18 17.2832C17.1727 18.1062 17.2101 18.9289 17.292 19.7478C17.3243 20.1507 17.3591 20.5685 17.3815 20.9739L17.5108 23.3962V23.717C17.4827 23.9518 17.4995 24.1899 17.5606 24.4184C17.9186 25.0871 18.4222 25.667 19.0343 26.1151C19.6464 26.5632 20.3513 26.8681 21.097 27.0073C21.8755 27.1491 22.5022 27.0396 22.9648 26.6865C23.4012 26.3165 23.6812 25.7948 23.7482 25.2266L23.3353 21.1107C23.3333 21.0937 23.3355 21.0764 23.3415 21.0604C23.3476 21.0444 23.3574 21.0301 23.3701 21.0186C23.3826 21.0068 23.3975 20.9977 23.4139 20.9921C23.4302 20.9865 23.4475 20.9846 23.4647 20.9863C23.7325 21.0337 24.0075 21.0214 24.2702 20.9505C24.5328 20.8796 24.7766 20.7517 24.9842 20.576C25.2077 20.3661 25.3837 20.1108 25.5004 19.8273C25.6171 19.5437 25.6717 19.2385 25.6607 18.9321V18.5018C25.6607 17.2882 25.6607 14.448 25.4816 13.7169C25.3238 12.9084 25.0022 12.1407 24.5365 11.4612V11.5258C24.5365 12.2048 24.5166 12.7345 24.3475 12.8862C24.1784 13.0379 23.1811 12.829 23.0369 12.7718C23.015 12.7656 22.9946 12.7548 22.977 12.7403C22.9594 12.7257 22.9451 12.7077 22.9349 12.6873C22.7633 12.4037 22.5793 12.1252 22.3853 11.8566C22.4648 12.2308 22.4699 12.617 22.4002 12.9932C22.3953 13.022 22.3793 13.0479 22.3556 13.0651C22.3319 13.0823 22.3024 13.0895 22.2734 13.0852C21.4306 12.9605 20.5776 12.9188 19.7267 12.9608C19.703 12.9631 19.6792 12.9572 19.6593 12.9441C19.6394 12.9309 19.6246 12.9114 19.6173 12.8887C19.3283 12.1667 18.8693 11.5251 18.2793 11.0185C18.443 11.753 18.5189 12.5044 18.5056 13.2568C18.5049 13.2737 18.5005 13.2902 18.4928 13.3052C18.485 13.3202 18.4742 13.3334 18.4608 13.3438C18.4475 13.3548 18.4318 13.3625 18.415 13.3664C18.3981 13.3703 18.3806 13.3702 18.3639 13.3662C18.1777 13.3256 17.9873 13.3072 17.7968 13.3115Z" fill="url(#paint5_radial_759_402)"/>
<path d="M23.6164 23.1336C23.6164 23.1336 21.9427 23.3649 20.7589 22.3477C19.5751 21.3305 19.6273 20.1865 19.6273 20.1865C19.6273 20.1865 21.5572 21.2335 23.4473 21.0992L23.6164 23.1336Z" fill="url(#paint6_radial_759_402)"/>
<path d="M23.178 23.2661C22.2768 23.2868 21.3969 22.9911 20.691 22.4305C19.4799 21.391 19.5197 20.232 19.5221 20.1922C19.5228 20.1736 19.5283 20.1555 19.5379 20.1396C19.5476 20.1237 19.5612 20.1105 19.5774 20.1012C19.5935 20.092 19.6118 20.0871 19.6304 20.0869C19.6491 20.0867 19.6674 20.0913 19.6838 20.1002C19.7037 20.1002 21.6087 21.1323 23.4441 21.0005C23.4727 20.9984 23.5011 21.0077 23.5229 21.0263C23.5448 21.0449 23.5585 21.0714 23.561 21.1L23.7301 23.1343C23.7317 23.1621 23.7229 23.1894 23.7054 23.211C23.6879 23.2326 23.6631 23.247 23.6356 23.2512C23.4835 23.2656 23.3307 23.2705 23.178 23.2661ZM19.746 20.3638C19.8536 21.109 20.2403 21.7855 20.8278 22.2564C21.7952 23.0871 23.1208 23.0548 23.4963 23.0274L23.3471 21.2069C21.7903 21.294 20.2533 20.6125 19.746 20.3638Z" fill="url(#paint7_radial_759_402)"/>
<path d="M22.1035 17.8755C21.9654 17.8749 21.8275 17.8649 21.6907 17.8457C21.6618 17.8408 21.636 17.8248 21.6188 17.8011C21.6016 17.7773 21.5944 17.7478 21.5987 17.7188C21.6008 17.7044 21.6058 17.6905 21.6133 17.678C21.6209 17.6655 21.6309 17.6547 21.6427 17.6461C21.6545 17.6375 21.6679 17.6314 21.6822 17.6281C21.6964 17.6248 21.7111 17.6244 21.7255 17.6268C21.9593 17.6641 22.6109 17.7039 22.8123 17.4403C22.9491 17.2563 22.2876 16.1968 21.5688 15.3363C21.5599 15.3251 21.5532 15.3121 21.5492 15.2983C21.5452 15.2844 21.544 15.2699 21.5456 15.2556C21.5472 15.2413 21.5517 15.2274 21.5586 15.2148C21.5656 15.2022 21.575 15.1911 21.5863 15.1821C21.5975 15.1731 21.6104 15.1665 21.6243 15.1625C21.6381 15.1585 21.6526 15.1573 21.667 15.1589C21.6813 15.1605 21.6951 15.1649 21.7077 15.1719C21.7204 15.1789 21.7315 15.1883 21.7404 15.1995C22.1085 15.6522 23.2898 17.1618 22.9839 17.5721C22.7999 17.8208 22.407 17.8755 22.1035 17.8755Z" fill="url(#paint8_radial_759_402)"/>
<path d="M18.2497 15.0244C18.044 14.5232 17.7366 14.0702 17.3469 13.6938C16.9316 13.3481 16.3049 13.1964 15.8547 13.4775C15.3573 13.7883 15.233 14.4723 15.2902 15.0741C15.3698 15.7486 15.5544 16.4065 15.8373 17.0239C15.971 17.402 16.1997 17.7394 16.5014 18.0038C16.6549 18.1319 16.8462 18.2063 17.0459 18.2157C17.2457 18.2252 17.4431 18.1691 17.6081 18.056" fill="white"/>
<path d="M17.1186 18.3321C16.8645 18.3252 16.619 18.2382 16.4173 18.0834C16.1001 17.8067 15.8594 17.453 15.7185 17.0563C15.4289 16.4267 15.2409 15.7552 15.1614 15.0667C15.1266 14.6887 15.1141 13.7685 15.7806 13.3607C16.3203 13.0299 17.0067 13.2463 17.4146 13.587C17.8171 13.9732 18.1348 14.439 18.3472 14.9548C18.3562 14.9684 18.3621 14.9837 18.3647 14.9998C18.3672 15.0158 18.3663 15.0323 18.362 15.048C18.3578 15.0637 18.3502 15.0782 18.3398 15.0908C18.3294 15.1033 18.3165 15.1135 18.3019 15.1206C18.2872 15.1277 18.2713 15.1317 18.255 15.1321C18.2387 15.1326 18.2226 15.1296 18.2076 15.1233C18.1926 15.117 18.1791 15.1076 18.168 15.0957C18.1569 15.0838 18.1485 15.0697 18.1433 15.0543C17.9431 14.5678 17.6451 14.1277 17.2679 13.7611C16.9197 13.4701 16.3427 13.2811 15.9 13.5546C15.3255 13.9053 15.3628 14.7832 15.3877 15.0468C15.4645 15.7098 15.6467 16.3563 15.9274 16.9618C16.0539 17.3221 16.2705 17.644 16.5566 17.8969C16.6901 18.0088 16.8561 18.0745 17.03 18.0844C17.2039 18.0942 17.3763 18.0477 17.5215 17.9516C17.5329 17.942 17.5461 17.9348 17.5603 17.9303C17.5745 17.9258 17.5894 17.9243 17.6043 17.9256C17.6191 17.927 17.6335 17.9314 17.6466 17.9384C17.6597 17.9454 17.6713 17.955 17.6807 17.9665C17.6998 17.9895 17.7092 18.0189 17.7068 18.0487C17.7045 18.0784 17.6907 18.106 17.6683 18.1257C17.5155 18.2578 17.3206 18.331 17.1186 18.3321Z" fill="url(#paint9_radial_759_402)"/>
<path d="M20.107 15.7599C20.2416 15.7599 20.3507 15.4838 20.3507 15.1431C20.3507 14.8025 20.2416 14.5264 20.107 14.5264C19.9724 14.5264 19.8633 14.8025 19.8633 15.1431C19.8633 15.4838 19.9724 15.7599 20.107 15.7599Z" fill="url(#paint10_radial_759_402)"/>
<path d="M23.7906 15.6281C23.9252 15.6281 24.0343 15.3519 24.0343 15.0113C24.0343 14.6707 23.9252 14.3945 23.7906 14.3945C23.656 14.3945 23.5469 14.6707 23.5469 15.0113C23.5469 15.3519 23.656 15.6281 23.7906 15.6281Z" fill="url(#paint11_radial_759_402)"/>
<path d="M21.002 25.125C21.002 25.125 22.0689 22.1207 21.5566 21.2901C21.0443 20.4594 19.6192 19.671 19.3432 18.92C19.0671 18.1689 19.5396 16.3509 18.9477 16.152C18.3558 15.953 17.9206 17.6442 18.3558 18.9971C18.3558 18.9971 17.6819 18.1689 17.6819 17.378C17.6819 16.5872 18.1967 15.5999 17.6421 15.3611C17.0875 15.1224 16.2195 16.9428 16.4185 18.4052C16.6174 19.8675 18.4727 21.9218 18.3558 22.3172C18.2389 22.7126 8.07963 32.566 7.16442 34.1801C6.31387 35.6723 6.8436 39.0372 9.76829 38.6815C12.693 38.3259 19.0273 30.2233 21.002 25.125Z" fill="white"/>
<path d="M9.33553 38.8227C8.91858 38.8378 8.50486 38.7444 8.13478 38.5517C7.76471 38.359 7.45092 38.0737 7.22409 37.7235C6.89736 37.186 6.71087 36.575 6.68176 35.9467C6.65265 35.3183 6.78183 34.6927 7.05746 34.1273C7.62947 33.1325 11.5614 29.1534 14.7198 25.9476C16.4856 24.157 18.1544 22.4659 18.2489 22.2793C18.2762 22.1699 17.9281 21.6302 17.647 21.195C17.1024 20.3544 16.4234 19.3049 16.3065 18.422C16.1449 17.2308 16.6771 15.7684 17.2242 15.3531C17.2847 15.2956 17.3602 15.2562 17.442 15.2395C17.5238 15.2228 17.6086 15.2294 17.6868 15.2586C18.137 15.4526 18.0226 16.0047 17.9106 16.5618C17.8457 16.8301 17.8074 17.1042 17.7962 17.38C17.8161 17.742 17.9218 18.094 18.1046 18.4071C17.9753 17.4695 18.1817 16.517 18.5249 16.1688C18.5802 16.105 18.6531 16.0587 18.7344 16.0357C18.8157 16.0127 18.902 16.014 18.9825 16.0395C19.4103 16.1813 19.3904 16.8851 19.3705 17.6262C19.3302 18.0423 19.3571 18.4621 19.4501 18.8697C19.5869 19.2427 20.0669 19.6606 20.5319 20.0634C20.9583 20.3943 21.3359 20.7836 21.6536 21.2199C22.1883 22.0854 21.1562 25.0275 21.1089 25.1518C20.1564 27.6065 18.1245 30.8967 15.8241 33.7394C13.3595 36.776 11.1535 38.6138 9.77324 38.7805C9.6284 38.804 9.48219 38.8181 9.33553 38.8227ZM17.5426 15.4576C17.4765 15.463 17.4139 15.4891 17.3635 15.5322C16.9183 15.8704 16.3687 17.2208 16.5329 18.3922C16.6448 19.2228 17.3362 20.2922 17.841 21.0732C18.3061 21.7919 18.5274 22.1475 18.4652 22.3515C18.4031 22.5554 17.4431 23.5129 14.884 26.1068C11.8996 29.126 7.8135 33.2643 7.25642 34.2392C7.00072 34.7683 6.88156 35.3529 6.9098 35.9398C6.93803 36.5266 7.11277 37.0971 7.41807 37.5992C7.77122 38.1289 8.4626 38.7282 9.75086 38.5716C12.6333 38.2209 18.9527 30.1158 20.9 25.0872C21.1935 24.264 21.8625 21.9933 21.4645 21.3567C21.1584 20.9405 20.796 20.5689 20.3877 20.2525C19.8903 19.8123 19.3929 19.3945 19.2412 18.9642C19.1368 18.5289 19.1049 18.0794 19.1467 17.6337C19.1641 17.0343 19.184 16.3554 18.9154 16.2683C18.888 16.2683 18.8035 16.2285 18.6916 16.3429C18.3235 16.706 18.1419 17.9595 18.4677 18.9692C18.4751 18.9943 18.4737 19.0211 18.4637 19.0453C18.4537 19.0695 18.4357 19.0895 18.4127 19.102C18.3897 19.1145 18.3631 19.1188 18.3374 19.1141C18.3117 19.1093 18.2883 19.096 18.2713 19.0761C18.2439 19.0413 17.5749 18.2057 17.5749 17.385C17.5856 17.094 17.6256 16.8049 17.6943 16.522C17.8112 15.945 17.8634 15.5844 17.6047 15.4725C17.5844 15.4632 17.5624 15.4581 17.5401 15.4576H17.5426Z" fill="url(#paint12_radial_759_402)"/>
<path d="M23.3797 24.9487C23.3797 24.9487 22.3128 21.9444 22.8375 21.1088C23.3076 20.3627 24.1457 19.915 24.7177 19.246C25.322 18.5372 25.2375 17.3037 25.5807 16.4283C25.6503 16.2492 25.802 16.0353 25.9836 16.1025C26.059 16.1395 26.1189 16.2021 26.1527 16.2791C26.4197 16.8198 26.5977 17.4001 26.6799 17.9976C26.7948 18.5106 26.8582 19.0338 26.8689 19.5594C26.8615 20.0335 26.767 20.5021 26.5904 20.9421C26.481 21.2207 25.9463 21.8275 26.0383 22.1359C26.1576 22.5313 26.8291 24.5483 27.9358 25.931C29.0425 27.3138 34.6979 32.7429 35.4913 36.1849C35.9116 37.9979 35.638 40.1789 32.7133 39.8233C29.7886 39.4677 25.3568 30.047 23.3797 24.9487Z" fill="white"/>
<path d="M33.3031 39.9809C33.0977 39.9802 32.8926 39.9678 32.6888 39.9436C29.6845 39.578 25.2278 29.9957 23.2755 24.9894C23.2308 24.8651 22.1962 21.9255 22.7334 21.0575C23.034 20.6248 23.4017 20.2428 23.8227 19.9259C24.1101 19.7001 24.378 19.4506 24.6235 19.1798C24.9741 18.7695 25.0861 18.1428 25.1905 17.5384C25.2458 17.15 25.3382 16.7677 25.4666 16.3969C25.5611 16.1482 25.76 15.8995 26.0162 16.004C26.1174 16.0504 26.1986 16.1316 26.245 16.2328C26.5182 16.7797 26.6997 17.3678 26.7822 17.9736C26.9013 18.4944 26.9654 19.0262 26.9737 19.5603C26.9675 20.0479 26.8714 20.5302 26.6902 20.9829C26.6272 21.1136 26.554 21.2392 26.4713 21.3584C26.3196 21.5922 26.0933 21.9454 26.1405 22.1045C26.1679 22.1965 26.8294 24.3776 28.0157 25.8599C28.2495 26.1508 28.6847 26.6209 29.2368 27.2178C31.3781 29.5381 34.9569 33.4178 35.596 36.1584C35.7776 36.9443 35.9616 38.3967 35.1683 39.2796C34.748 39.7472 34.1238 39.9809 33.3031 39.9809ZM23.4869 24.9098C25.7252 30.6846 30.0302 39.3915 32.7161 39.7173C33.7656 39.8442 34.5316 39.6477 34.9967 39.1304C35.7229 38.3246 35.5438 36.9593 35.3722 36.2157C34.753 33.5446 31.0449 29.5282 29.0553 27.3794C28.5007 26.7776 28.0605 26.3025 27.8267 26.0066C26.6131 24.4895 25.9366 22.2761 25.9093 22.1742C25.8322 21.9255 26.0634 21.5574 26.2674 21.2415C26.3424 21.1359 26.409 21.0245 26.4663 20.9083C26.6367 20.4798 26.7277 20.0239 26.7349 19.5628C26.7238 19.0448 26.6613 18.5291 26.5484 18.0234C26.4693 17.439 26.2963 16.8713 26.0361 16.3422C26.0038 16.2875 25.9665 16.2303 25.9242 16.2153C25.8247 16.178 25.7128 16.3546 25.6755 16.4765C25.5525 16.8336 25.4643 17.2017 25.4119 17.5757C25.2999 18.2099 25.1855 18.8665 24.7926 19.3166C24.5396 19.5971 24.2634 19.8559 23.9669 20.0901C23.563 20.3886 23.211 20.7516 22.9249 21.1644C22.527 21.816 23.196 24.0941 23.4869 24.9098Z" fill="url(#paint13_radial_759_402)"/>
<path d="M19.379 43.1843C19.379 43.1843 8.52335 32.9478 3.93487 34.9772C-0.653612 37.0066 -0.56408 42.8311 1.90549 46.1836C4.37507 49.536 13.5545 52.2717 21.1448 51.5679C28.735 50.8641 39.2326 48.0364 41.2645 45.3902C43.2963 42.7441 41.7917 38.3297 38.1756 37.1832C34.5596 36.0367 25.2906 43.4479 19.379 43.1843Z" fill="url(#paint14_radial_759_402)"/>
<path d="M18.7128 51.7844C11.8338 51.7844 4.10423 49.3521 1.81869 46.2484C0.309096 44.2016 -0.260425 41.359 0.363808 39.0088C0.592025 38.0937 1.02955 37.2441 1.64193 36.5268C2.25432 35.8095 3.02484 35.2442 3.89283 34.8754C8.41914 32.8858 18.6655 42.3662 19.424 43.0824C22.4084 43.1993 26.3204 41.3241 29.7798 39.6703C33.1795 38.0463 36.3877 36.5069 38.2082 37.0863C39.1063 37.3757 39.9217 37.8767 40.5856 38.5471C41.2496 39.2176 41.7426 40.0378 42.0232 40.9387C42.5405 42.5825 42.2943 44.2314 41.3517 45.465C39.3323 48.0962 28.8373 50.9686 21.155 51.6824C20.3517 51.7496 19.5434 51.7844 18.7128 51.7844ZM5.31788 34.8207C4.85943 34.8095 4.40369 34.8942 3.97988 35.0694C3.14358 35.4246 2.40095 35.9687 1.81024 36.6591C1.21953 37.3495 0.796795 38.1674 0.575203 39.0486C-0.0316207 41.3391 0.525463 44.1096 1.99527 46.1041C4.51707 49.5287 13.8184 52.1226 21.1326 51.4437C28.7726 50.7324 39.1906 47.8972 41.1777 45.3083C42.0779 44.1344 42.3092 42.5577 41.8143 40.9834C41.5447 40.1156 41.0702 39.3254 40.4309 38.6795C39.7915 38.0337 39.0061 37.5512 38.1411 37.2728C36.4002 36.7232 33.2342 38.2403 29.8743 39.8469C26.3751 41.5181 22.4134 43.4132 19.3743 43.2789C19.3483 43.2774 19.3237 43.2668 19.3047 43.2491C19.2052 43.1695 10.2869 34.8207 5.31788 34.8207Z" fill="url(#paint15_radial_759_402)"/>
<path d="M12.6571 50.3849L19.6778 53.7722L22.8214 45.8313C22.8214 45.8313 12.7615 38.7682 10.2895 40.8026C7.81742 42.8369 11.8613 49.7682 12.6571 50.3849Z" fill="url(#paint16_radial_759_402)"/>
<path d="M19.6773 53.881C19.6618 53.8847 19.6456 53.8847 19.6301 53.881L12.6093 50.4937L12.5894 50.4812C11.9553 49.9839 9.42849 45.8007 9.39119 42.9084C9.37627 41.9136 9.6573 41.1899 10.2194 40.7273C12.7262 38.6681 22.4702 45.4526 22.8831 45.751C22.9029 45.7653 22.9175 45.7856 22.9247 45.809C22.9319 45.8323 22.9312 45.8574 22.9229 45.8803L19.7793 53.8138C19.7706 53.8337 19.7564 53.8506 19.7383 53.8625C19.7202 53.8744 19.699 53.8808 19.6773 53.881ZM12.7138 50.2922L19.6177 53.6223L22.6866 45.8729C21.7838 45.2486 12.6317 39.0188 10.3586 40.8989C9.86123 41.3167 9.59761 41.9932 9.61253 42.9084C9.6573 45.654 12.102 49.7948 12.7138 50.2922Z" fill="url(#paint17_radial_759_402)"/>
<path d="M22.4678 53.0676C22.4678 53.0676 27.2652 54.6593 31.7318 53.9928C36.7629 53.2467 38.2626 50.9935 35.7109 48.9641C33.1593 46.9347 22.7389 48.6557 22.7389 48.6557L22.4678 53.0676Z" fill="url(#paint18_linear_759_402)"/>
<path d="M29.4316 54.2687C27.0582 54.2344 24.7014 53.866 22.4308 53.1744C22.4072 53.1663 22.387 53.1508 22.373 53.1301C22.3591 53.1095 22.3523 53.0849 22.3537 53.06L22.6198 48.6481C22.6212 48.6225 22.6313 48.5981 22.6485 48.5791C22.6658 48.5601 22.689 48.5476 22.7143 48.5436C23.1396 48.4715 33.2069 46.8376 35.7759 48.8744C36.7881 49.6777 37.2084 50.5382 36.9896 51.3614C36.6414 52.6596 34.7314 53.6618 31.7495 54.0971C30.9821 54.211 30.2074 54.2683 29.4316 54.2687ZM22.5899 52.9854C23.2465 53.1893 27.6485 54.4776 31.7221 53.8807C34.6095 53.4505 36.4474 52.5104 36.7732 51.3017C36.9697 50.573 36.5767 49.7971 35.6391 49.0634C33.2715 47.1857 23.8683 48.6008 22.8461 48.7625L22.5899 52.9854Z" fill="url(#paint19_radial_759_402)"/>
<path d="M20.0869 52.7311C20.0869 52.7311 24.2302 54.0368 25.0261 51.6543C25.8219 49.2717 24.0984 49.0504 21.9372 48.5654L20.0869 52.7311Z" fill="white"/>
<path d="M22.4147 53.1915H22.2555C21.5098 53.1626 20.7705 53.0415 20.0545 52.8309C20.0391 52.8263 20.0248 52.8184 20.0128 52.8076C20.0007 52.7969 19.9912 52.7836 19.9849 52.7687C19.9775 52.7545 19.9736 52.7387 19.9736 52.7227C19.9736 52.7067 19.9775 52.6909 19.9849 52.6767L21.8427 48.521C21.8531 48.4966 21.8718 48.4768 21.8955 48.4649C21.9192 48.4531 21.9463 48.45 21.972 48.4563L22.3451 48.5384C23.6184 48.8194 24.7201 49.0606 25.1529 49.8216C25.4016 50.2793 25.4016 50.8911 25.1529 51.6894C24.8022 52.6941 23.8646 53.1915 22.4147 53.1915ZM20.2436 52.6493C20.9275 52.8359 24.2426 53.6441 24.9166 51.6098C25.1653 50.8637 25.1653 50.3215 24.9464 49.9236C24.5634 49.2521 23.5065 49.0184 22.2854 48.7498L22.0019 48.6876L20.2436 52.6493Z" fill="url(#paint20_radial_759_402)"/>
<path d="M11.6462 49.9396C11.6253 49.9385 11.6049 49.9325 11.5866 49.9222C11.5343 49.8874 6.19727 46.5996 3.13082 45.2293C3.11717 45.2233 3.10484 45.2147 3.09455 45.204C3.08426 45.1933 3.07622 45.1806 3.07089 45.1667C3.06557 45.1528 3.06306 45.138 3.06353 45.1231C3.064 45.1082 3.06743 45.0936 3.07362 45.08C3.07955 45.0664 3.08814 45.0541 3.09889 45.0438C3.10964 45.0335 3.12233 45.0254 3.13622 45.0201C3.15012 45.0148 3.16493 45.0123 3.17981 45.0128C3.19468 45.0132 3.20931 45.0167 3.22284 45.0228C6.3067 46.3981 11.6537 49.6959 11.7084 49.7282C11.7214 49.7359 11.7326 49.746 11.7415 49.7581C11.7505 49.7702 11.7569 49.784 11.7603 49.7986C11.7638 49.8133 11.7643 49.8284 11.7618 49.8432C11.7593 49.8581 11.7538 49.8722 11.7457 49.8849C11.7352 49.9017 11.7205 49.9156 11.7031 49.9251C11.6857 49.9347 11.6661 49.9397 11.6462 49.9396Z" fill="white"/>
<path d="M8.83388 48.0353C8.83388 48.0353 6.59559 47.5951 6.00867 49.2788C5.42174 50.9625 6.00867 54.2527 7.50085 54.8372C8.99304 55.4216 11.296 53.0292 12.1789 52.8078C13.0617 52.5865 15.3299 51.6862 15.3299 51.6862L8.83388 48.0353Z" fill="url(#paint21_linear_759_402)"/>
<path d="M8.01786 55.0344C7.83026 55.036 7.64397 55.0031 7.46823 54.9374C5.86413 54.3232 5.31948 50.9334 5.90143 49.2348C6.5008 47.4939 8.8311 47.9217 8.85348 47.9242L8.8883 47.9366L15.3918 51.58C15.4112 51.5897 15.4272 51.6052 15.4375 51.6243C15.4477 51.6435 15.4517 51.6654 15.449 51.687C15.4477 51.7081 15.4405 51.7284 15.4282 51.7455C15.4158 51.7627 15.3989 51.776 15.3793 51.784C15.2848 51.8213 13.0938 52.6917 12.2134 52.913C11.9423 52.9802 11.5046 53.2836 10.9948 53.6368C10.0796 54.2709 8.97534 55.0344 8.01786 55.0344ZM8.20189 48.1007C7.52294 48.1007 6.46101 48.2773 6.11531 49.3094C5.84423 50.1077 5.83428 51.3363 6.09293 52.4405C6.37396 53.6467 6.90617 54.4798 7.5503 54.7261C8.50033 55.0892 9.81097 54.1789 10.8654 53.4477C11.3927 53.0846 11.8478 52.7688 12.1587 52.7016C12.8625 52.5251 14.479 51.9033 15.0709 51.6696L8.79379 48.1554C8.59821 48.1219 8.40031 48.1036 8.20189 48.1007Z" fill="url(#paint22_radial_759_402)"/>
<path d="M21.9381 48.681H21.9008C21.8866 48.6763 21.8736 48.6688 21.8624 48.6589C21.8512 48.649 21.8421 48.637 21.8356 48.6236C21.8291 48.6101 21.8254 48.5955 21.8246 48.5806C21.8238 48.5657 21.8261 48.5508 21.8311 48.5368L22.5474 46.4527C22.0301 45.9205 17.5237 41.2922 14.4647 39.0465C14.4406 39.0287 14.4246 39.002 14.4202 38.9724C14.4158 38.9428 14.4233 38.9126 14.4411 38.8885C14.4589 38.8645 14.4855 38.8484 14.5152 38.844C14.5448 38.8396 14.5749 38.8471 14.599 38.8649C17.847 41.2474 22.709 46.2935 22.7588 46.3458C22.7733 46.3605 22.7834 46.3791 22.7878 46.3993C22.7922 46.4196 22.7908 46.4407 22.7837 46.4601L22.0376 48.6114C22.0294 48.6313 22.0157 48.6485 21.9981 48.6609C21.9804 48.6732 21.9596 48.6802 21.9381 48.681Z" fill="white"/>
<path d="M22.1356 18.9623C21.5643 18.9599 21.0036 18.8082 20.5091 18.5221C20.4967 18.5145 20.486 18.5045 20.4776 18.4927C20.4693 18.4808 20.4634 18.4674 20.4604 18.4532C20.4573 18.439 20.4572 18.4243 20.46 18.4101C20.4629 18.3959 20.4686 18.3824 20.4768 18.3704C20.4846 18.3583 20.4947 18.3478 20.5066 18.3397C20.5184 18.3315 20.5318 18.3257 20.5459 18.3227C20.56 18.3197 20.5746 18.3195 20.5887 18.3222C20.6029 18.3248 20.6164 18.3302 20.6285 18.3381C21.0659 18.5919 21.5613 18.7289 22.067 18.7358C22.5726 18.7428 23.0716 18.6195 23.5159 18.3779C23.5284 18.3708 23.5423 18.3664 23.5566 18.3647C23.5709 18.363 23.5854 18.3642 23.5992 18.3681C23.6131 18.372 23.626 18.3786 23.6373 18.3876C23.6486 18.3965 23.6581 18.4076 23.6651 18.4201C23.6721 18.4327 23.6766 18.4466 23.6783 18.4609C23.6799 18.4752 23.6788 18.4897 23.6748 18.5035C23.6709 18.5174 23.6643 18.5303 23.6554 18.5416C23.6464 18.5529 23.6354 18.5623 23.6228 18.5694C23.1693 18.8264 22.6569 18.9618 22.1356 18.9623Z" fill="url(#paint23_radial_759_402)"/>
<path d="M34.0509 3.26784C33.53 3.48785 33.0738 3.83708 32.7254 4.28253C31.0989 6.35418 32.1484 8.7019 33.4391 10.6492C34.8269 12.7432 38.0848 12.5517 40.3057 11.7261C41.3502 13.0964 43.4716 13.6584 45.317 13.2183C46.1628 13.0057 46.9524 12.6121 47.6312 12.0647C48.3101 11.5172 48.862 10.8289 49.2489 10.0474C49.6766 10.7934 50.8555 11.0745 51.798 10.8283C55.0883 9.97274 55.5758 5.82446 53.0962 4.02637C52.4148 3.52897 51.2882 3.39219 50.654 3.93186C50.4949 3.0266 49.6294 2.03679 48.6072 1.69358C48.3113 1.59659 45.598 1.50457 45.8293 1.82788C45.0583 0.748529 43.5487 0.134245 42.059 0.109375C40.5889 0.118692 39.1524 0.550321 37.9207 1.35287C37.2294 1.75503 36.635 2.30438 36.1798 2.96194C35.4559 2.89188 34.7258 2.99679 34.0509 3.26784Z" fill="white"/>
<path d="M44.05 13.4869C42.5454 13.4869 41.0856 12.89 40.2649 11.8753C37.8525 12.7433 34.6816 12.7508 33.3361 10.7189C32.1946 8.99292 30.8765 6.43631 32.6298 4.19802C32.9897 3.73552 33.4624 3.37327 34.0026 3.14603C34.6754 2.87637 35.4019 2.76819 36.124 2.83018C36.5871 2.18546 37.1801 1.64494 37.8649 1.24349C39.1207 0.439091 40.5791 0.0078658 42.0704 0C43.6198 0.0273568 45.0423 0.644129 45.8282 1.624C45.9625 1.55934 46.2983 1.4897 47.1911 1.49219C47.6812 1.48273 48.1713 1.51518 48.6559 1.58918C49.1452 1.75905 49.5883 2.0402 49.9504 2.41049C50.3125 2.78078 50.5836 3.23008 50.7425 3.72301C51.4563 3.27038 52.5282 3.4569 53.1797 3.92943C53.7863 4.37961 54.2533 4.99198 54.5269 5.69598C54.8006 6.39998 54.8698 7.16697 54.7266 7.9086C54.5926 8.64237 54.2481 9.32131 53.7349 9.86269C53.2218 10.4041 52.5623 10.7845 51.8368 10.9576C50.9638 11.184 49.8198 10.99 49.2727 10.2986C48.868 11.0507 48.3105 11.7099 47.6359 12.2337C46.9613 12.7575 46.1846 13.1344 45.3557 13.3402C44.928 13.4413 44.4896 13.4906 44.05 13.4869ZM40.3071 11.6018C40.3264 11.602 40.3454 11.6065 40.3626 11.6152C40.3799 11.6238 40.3949 11.6362 40.4066 11.6515C41.3865 12.9348 43.4382 13.5416 45.2886 13.0915C46.1168 12.8855 46.8902 12.5016 47.555 11.9664C48.2199 11.4313 48.7602 10.7578 49.1384 9.99269C49.1485 9.97214 49.164 9.95476 49.1833 9.94248C49.2026 9.93019 49.2249 9.92347 49.2478 9.92305C49.2703 9.92256 49.2925 9.92806 49.3122 9.93899C49.3319 9.94991 49.3483 9.96587 49.3597 9.98523C49.7726 10.7114 50.9315 10.9253 51.7671 10.7089C52.447 10.5479 53.0651 10.1919 53.5457 9.68483C54.0263 9.17771 54.3486 8.54141 54.473 7.85389C54.6082 7.15886 54.544 6.43976 54.2879 5.77965C54.0318 5.11954 53.5942 4.54535 53.0256 4.12342C52.3988 3.6683 51.3294 3.51908 50.7375 4.02394C50.7206 4.03821 50.7002 4.04779 50.6783 4.05171C50.6565 4.05564 50.6341 4.05378 50.6132 4.04632C50.5928 4.03887 50.5748 4.02623 50.5608 4.00965C50.5469 3.99307 50.5375 3.97313 50.5336 3.95181C50.3769 3.06396 49.5139 2.12637 48.5714 1.82047C48.2804 1.72348 46.2908 1.68369 45.9551 1.82047C45.957 1.84767 45.95 1.87475 45.935 1.89755C45.92 1.92035 45.898 1.9376 45.8723 1.94664C45.8466 1.95569 45.8186 1.95603 45.7926 1.94761C45.7667 1.93919 45.7443 1.92248 45.7288 1.90005C45.0249 0.905261 43.585 0.258647 42.058 0.233777C40.6125 0.2479 39.201 0.674101 37.9893 1.46235C37.316 1.85622 36.737 2.39269 36.2931 3.03412C36.2805 3.05258 36.2634 3.06752 36.2433 3.07752C36.2233 3.08753 36.2011 3.09228 36.1787 3.09132C35.4724 3.01841 34.7588 3.11827 34.0996 3.38229C33.5979 3.5927 33.1592 3.92942 32.8263 4.35968C31.1899 6.44377 32.3513 8.77904 33.545 10.5771C34.8308 12.5195 37.9296 12.4722 40.2599 11.6043C40.2754 11.6008 40.2913 11.5999 40.3071 11.6018Z" fill="url(#paint24_linear_759_402)"/>
<path d="M38.7945 14.2011C39.0852 14.1008 39.3963 14.0743 39.6998 14.124C39.8816 14.1295 40.0602 14.174 40.2233 14.2547C40.3864 14.3354 40.5302 14.4503 40.6448 14.5916C40.8388 14.8975 40.6747 15.4173 40.3116 15.4222C40.809 15.1735 41.4879 15.5466 41.6297 16.0937C41.9256 17.2352 40.4533 17.9465 39.4933 17.8744C39.0134 17.8396 38.5483 17.6108 38.0708 17.6779C37.1979 17.7998 36.5786 17.8918 35.922 17.1084C35.4495 16.5414 35.6137 15.7555 36.0016 15.1885C36.1209 14.9973 36.2795 14.8336 36.4669 14.7084C36.6543 14.5832 36.8661 14.4993 37.0884 14.4623C37.2277 14.4424 38.2946 14.5791 38.2175 14.8353C38.2592 14.6927 38.3328 14.5615 38.4328 14.4516C38.5327 14.3417 38.6565 14.256 38.7945 14.2011Z" fill="white"/>
<path d="M39.6228 18.0022C39.5764 18.0047 39.5299 18.0047 39.4835 18.0022C39.2862 17.9819 39.0908 17.9462 38.8991 17.8953C38.6369 17.8142 38.3619 17.783 38.0883 17.8032C37.2054 17.9276 36.519 18.0246 35.8276 17.1914C35.283 16.5374 35.5267 15.6694 35.8998 15.1223C36.0281 14.9162 36.199 14.7398 36.401 14.6052C36.603 14.4705 36.8315 14.3805 37.0711 14.3414C37.4576 14.3443 37.839 14.429 38.1903 14.5901C38.3127 14.3647 38.5096 14.1889 38.7474 14.0927C39.0577 13.9841 39.3906 13.9558 39.7148 14.0106C40.2122 14.0728 40.5678 14.2593 40.7494 14.5329C40.8115 14.6389 40.8466 14.7586 40.8513 14.8813C40.8561 15.0041 40.8305 15.1262 40.7767 15.2367C40.8911 15.2498 41.0028 15.2809 41.1075 15.3287C41.2626 15.3985 41.4004 15.5015 41.5113 15.6304C41.6221 15.7593 41.7033 15.911 41.7492 16.0748C41.8017 16.2725 41.8047 16.4801 41.7579 16.6792C41.711 16.8783 41.6158 17.0628 41.4806 17.2163C41.2397 17.4655 40.951 17.6636 40.6318 17.7986C40.3126 17.9337 39.9694 18.0029 39.6228 18.0022ZM38.2574 17.5396C38.4964 17.5477 38.7335 17.5844 38.9637 17.649C39.1423 17.6969 39.3244 17.7302 39.5084 17.7485C39.8398 17.7677 40.1715 17.7145 40.4803 17.5925C40.7891 17.4706 41.0677 17.2828 41.2965 17.0422C41.4077 16.9198 41.4861 16.7712 41.5243 16.6103C41.5626 16.4494 41.5595 16.2814 41.5154 16.122C41.4786 15.9959 41.4152 15.879 41.3294 15.7795C41.2436 15.68 41.1374 15.6 41.018 15.5451C40.8803 15.4795 40.7267 15.4545 40.5753 15.4729C40.501 15.5203 40.4147 15.5453 40.3266 15.5451C40.2984 15.5463 40.2707 15.5374 40.2484 15.5201C40.226 15.5028 40.2106 15.4782 40.2047 15.4506C40.1988 15.4228 40.2022 15.3939 40.2144 15.3683C40.2265 15.3427 40.2467 15.3218 40.2719 15.3088C40.3365 15.2768 40.4051 15.2533 40.4758 15.2392C40.5095 15.2098 40.5373 15.1744 40.5579 15.1347C40.5979 15.0615 40.6189 14.9794 40.6189 14.896C40.6189 14.8125 40.5979 14.7304 40.5579 14.6572C40.4161 14.4359 40.1301 14.2991 39.7024 14.2469C39.4194 14.1974 39.1284 14.2205 38.8568 14.314C38.7378 14.3643 38.6315 14.4403 38.5455 14.5367C38.4595 14.633 38.3959 14.7472 38.3594 14.8711C38.3472 14.899 38.3251 14.9215 38.2974 14.9342C38.2697 14.947 38.2383 14.9491 38.2092 14.9402C38.18 14.9313 38.1551 14.912 38.1393 14.886C38.1234 14.8599 38.1177 14.829 38.1231 14.799C38.0485 14.6945 37.2726 14.5677 37.1283 14.5826C36.9244 14.6184 36.7302 14.6969 36.5588 14.8131C36.3873 14.9292 36.2424 15.0804 36.1335 15.2566C35.8102 15.7316 35.5914 16.4802 36.0465 17.0273C36.6508 17.7535 37.2154 17.6739 38.0684 17.5545C38.1311 17.5457 38.1942 17.5407 38.2574 17.5396Z" fill="url(#paint25_linear_759_402)"/>
<path d="M34.0764 17.9414C33.8406 17.8396 33.5766 17.8238 33.3303 17.8967C33.2096 17.9345 33.1033 18.008 33.0252 18.1074C32.947 18.2068 32.9008 18.3276 32.8926 18.4538C32.8928 18.5165 32.9064 18.5784 32.9322 18.6355C32.9581 18.6926 32.9958 18.7437 33.0427 18.7852C33.0897 18.8268 33.1449 18.8579 33.2047 18.8767C33.2646 18.8954 33.3277 18.9013 33.39 18.8939C32.808 19.2745 34.0565 20.2668 34.6086 19.2073C34.6714 19.0914 34.7073 18.9629 34.7138 18.8313C34.7203 18.6996 34.6972 18.5682 34.6461 18.4467C34.595 18.3252 34.5173 18.2168 34.4187 18.1293C34.3201 18.0418 34.2031 17.9776 34.0764 17.9414Z" fill="white"/>
<path d="M33.9333 19.8062C33.8977 19.8087 33.862 19.8087 33.8264 19.8062C33.6693 19.7895 33.5202 19.7285 33.3965 19.6303C33.2728 19.5321 33.1795 19.4008 33.1276 19.2516C33.1087 19.1686 33.1157 19.0818 33.1475 19.0029C33.0933 18.9822 33.0429 18.9528 32.9982 18.9159C32.9301 18.862 32.8746 18.7937 32.8359 18.7159C32.7972 18.638 32.7762 18.5526 32.7744 18.4657C32.7822 18.3135 32.8364 18.1673 32.9298 18.0468C33.0232 17.9263 33.1512 17.8373 33.2967 17.7918C33.568 17.7114 33.8588 17.7272 34.1199 17.8365C34.2652 17.8878 34.3984 17.9687 34.5109 18.074C34.6235 18.1793 34.713 18.3067 34.7739 18.4483C34.8229 18.5808 34.8425 18.7224 34.8313 18.8633C34.8202 19.0041 34.7785 19.1409 34.7093 19.264C34.6438 19.4181 34.5363 19.5506 34.3991 19.6464C34.2619 19.7423 34.1005 19.7976 33.9333 19.8062ZM33.3912 18.7691C33.4155 18.7687 33.4394 18.7756 33.4598 18.7889C33.4802 18.8022 33.4961 18.8213 33.5056 18.8437C33.5166 18.8706 33.518 18.9004 33.5094 18.9281C33.5007 18.9558 33.4827 18.9796 33.4583 18.9954C33.4242 19.0128 33.3968 19.0411 33.3806 19.0758C33.3644 19.1105 33.3602 19.1496 33.3688 19.1869C33.4101 19.2877 33.4783 19.3752 33.5661 19.4397C33.6538 19.5042 33.7577 19.5433 33.8662 19.5525C34.0019 19.5632 34.1375 19.5298 34.2526 19.4572C34.3678 19.3846 34.4565 19.2767 34.5054 19.1496C34.5584 19.0577 34.5905 18.9553 34.5996 18.8496C34.6086 18.7438 34.5943 18.6374 34.5576 18.5378C34.5105 18.4254 34.44 18.3242 34.3508 18.241C34.2616 18.1578 34.1558 18.0945 34.0403 18.0554C33.8322 17.9687 33.6012 17.9539 33.3837 18.0131C33.2872 18.0421 33.2017 18.0996 33.1387 18.1783C33.0756 18.2569 33.0379 18.3528 33.0306 18.4533C33.0332 18.5018 33.0464 18.5492 33.0692 18.5921C33.0919 18.6351 33.1237 18.6725 33.1624 18.702C33.1902 18.7275 33.2235 18.7464 33.2597 18.7572C33.2959 18.768 33.334 18.7703 33.3713 18.7642L33.3912 18.7691Z" fill="url(#paint26_linear_759_402)"/>
<path d="M48.0217 34.6383C48.0623 34.0736 47.9424 33.5089 47.676 33.0094C47.4572 32.6463 47.1239 32.3603 46.9449 31.9773C46.6365 31.3157 46.8528 30.5373 46.7807 29.8111C46.7151 29.2023 46.4471 28.633 46.0197 28.1946C45.6392 27.8116 45.1492 27.5479 44.7762 27.1475C44.1818 26.491 44.0102 25.5658 43.672 24.7476C43.1923 23.5882 42.3606 22.6087 41.2944 21.9473C41.9435 23.2529 40.4663 24.9117 41.1353 26.2075C41.3467 26.6178 41.752 26.9163 41.9087 27.3515C42.2842 28.401 41.0308 29.54 41.4337 30.5846C41.6327 31.1043 42.1798 31.4053 42.4484 31.9002C42.799 32.5642 42.523 33.37 42.5528 34.121C42.5926 35.1556 43.2218 36.0833 43.9704 36.7995C44.4355 37.2472 44.9652 37.6327 45.4626 38.043C46.0645 38.5404 46.3181 39.0378 46.8503 38.2594C47.5843 37.1918 47.9913 35.9335 48.0217 34.6383Z" fill="url(#paint27_linear_759_402)"/>
<path d="M48.7011 35.23C48.5071 34.4292 48.3678 33.5588 48.7011 32.8028C49.0691 31.9472 49.9893 31.3429 50.0987 30.4177C50.1684 29.8134 49.85 29.1991 49.9818 28.5998C50.1137 28.0004 50.5912 27.5925 50.994 27.1523C51.9221 26.1322 52.474 24.8257 52.5584 23.4492C53.1403 24.2177 53.7297 25.0036 54.0506 25.9138C54.3714 26.8241 54.3739 27.9034 53.8342 28.6918C53.6788 28.8778 53.5514 29.0856 53.4562 29.3085C53.2746 29.898 53.7795 30.4501 54.0406 31.0096C54.1951 31.3293 54.2596 31.6851 54.2272 32.0387C54.1948 32.3923 54.0666 32.7304 53.8566 33.0166C53.3268 33.6782 52.3047 33.9343 52.046 34.7401C51.9803 35.0398 51.9494 35.3461 51.954 35.6528C51.8987 36.1845 51.6856 36.6874 51.3421 37.0969C50.9986 37.5064 50.5405 37.8038 50.0266 37.9508C49.3999 38.1025 49.4123 37.8538 49.3004 37.3291C49.1363 36.6203 48.8652 35.9364 48.7011 35.23Z" fill="url(#paint28_linear_759_402)"/>
<path d="M46.7132 29.4679C46.268 27.9285 46.0915 26.3194 45.6214 24.7874C45.2209 23.593 44.7339 22.4293 44.1641 21.3057L46.0741 22.1114C46.6859 22.3601 47.3499 22.6735 47.6384 23.2729C48.1358 24.3149 47.238 25.6479 47.7652 26.6775C47.9517 27.0382 48.2875 27.2968 48.5113 27.6276C49.0734 28.4184 48.9888 29.5028 48.6779 30.4205C48.5461 30.8159 47.9691 32.8577 47.4519 32.2907C47.2429 32.0643 47.2255 31.2163 47.1385 30.9079C47.0067 30.418 46.8425 29.9479 46.7132 29.4679Z" fill="url(#paint29_linear_759_402)"/>
<path d="M47.7434 49.9151C47.3654 47.4008 46.1716 38.5322 46.1592 38.4427L46.4875 38.4004C46.4875 38.4899 47.6912 47.3535 48.0717 49.8679L47.7434 49.9151Z" fill="url(#paint30_linear_759_402)"/>
<path d="M48.2038 52.2944H47.873C47.8954 49.3101 49.1414 37.8898 49.8626 37.1064L50.1113 37.3278C49.6164 37.8451 48.2237 48.2034 48.2038 52.2944Z" fill="url(#paint31_linear_759_402)"/>
<path d="M48.8401 51.7253L48.5093 51.7103C48.7953 45.269 47.43 31.7424 47.415 31.6081L47.7433 31.5732C47.7582 31.71 49.1261 45.2591 48.8401 51.7253Z" fill="url(#paint32_linear_759_402)"/>
<path d="M44.4756 43.8535H51.5834L51.086 51.0484C51.045 51.6483 50.7777 52.2103 50.3382 52.6208C49.8987 53.0312 49.3197 53.2594 48.7184 53.2593H47.3431C46.7415 53.2595 46.1622 53.0313 45.7223 52.6209C45.2824 52.2106 45.0146 51.6485 44.973 51.0484L44.4756 43.8535Z" fill="white"/>
<path d="M48.7172 53.3823H47.3419C46.7109 53.3784 46.1046 53.1369 45.6437 52.706C45.1828 52.275 44.9012 51.6863 44.8549 51.057L44.3575 43.8622C44.3562 43.8273 44.3687 43.7933 44.3923 43.7677C44.4155 43.749 44.4447 43.7393 44.4744 43.7403H51.5822C51.5994 43.7402 51.6164 43.7438 51.6322 43.7506C51.648 43.7575 51.6622 43.7675 51.6738 43.7802C51.6855 43.7928 51.6945 43.8077 51.7001 43.824C51.7057 43.8402 51.7079 43.8575 51.7065 43.8746L51.2092 51.0694C51.1604 51.6976 50.8769 52.2843 50.4152 52.7129C49.9534 53.1415 49.3472 53.3805 48.7172 53.3823ZM44.6087 43.989L45.1061 51.052C45.1474 51.6186 45.4007 52.1488 45.8156 52.537C46.2304 52.9251 46.7763 53.1426 47.3444 53.1461H48.7197C49.2879 53.1431 49.8342 52.9258 50.2491 52.5376C50.6641 52.1494 50.9173 51.6188 50.958 51.052L51.4554 43.989H44.6087Z" fill="url(#paint33_linear_759_402)"/>
<defs>
<linearGradient id="paint0_linear_759_402" x1="25.8099" y1="51.3467" x2="25.8099" y2="54.6544" gradientUnits="userSpaceOnUse">
<stop stop-color="#3D7FA1"/>
<stop offset="1" stop-color="#355F75"/>
</linearGradient>
<radialGradient id="paint1_radial_759_402" cx="0" cy="0" r="1" gradientUnits="userSpaceOnUse" gradientTransform="translate(19.7394 17.8579) rotate(90) scale(12.1274 13.4308)">
<stop stop-color="#1A2327"/>
<stop offset="1" stop-color="#0F0F0F"/>
</radialGradient>
<linearGradient id="paint2_linear_759_402" x1="21.0098" y1="19.7041" x2="21.0098" y2="46.4617" gradientUnits="userSpaceOnUse">
<stop stop-color="#3D7FA1"/>
<stop offset="1" stop-color="#355F75"/>
</linearGradient>
<radialGradient id="paint3_radial_759_402" cx="0" cy="0" r="1" gradientUnits="userSpaceOnUse" gradientTransform="translate(29.012 28.6225) rotate(90) scale(5.14296 0.651694)">
<stop stop-color="#1A2327"/>
<stop offset="1" stop-color="#0F0F0F"/>
</radialGradient>
<radialGradient id="paint4_radial_759_402" cx="0" cy="0" r="1" gradientUnits="userSpaceOnUse" gradientTransform="translate(14.8319 27.3436) rotate(90) scale(4.12878 0.51163)">
<stop stop-color="#1A2327"/>
<stop offset="1" stop-color="#0F0F0F"/>
</radialGradient>
<radialGradient id="paint5_radial_759_402" cx="0" cy="0" r="1" gradientUnits="userSpaceOnUse" gradientTransform="translate(21.4206 18.9461) rotate(90) scale(8.35035 4.46062)">
<stop stop-color="#1A2327"/>
<stop offset="1" stop-color="#0F0F0F"/>
</radialGradient>
<radialGradient id="paint6_radial_759_402" cx="0" cy="0" r="1" gradientUnits="userSpaceOnUse" gradientTransform="translate(21.6217 21.6714) rotate(90) scale(1.48484 1.99473)">
<stop stop-color="#1A2327"/>
<stop offset="1" stop-color="#0F0F0F"/>
</radialGradient>
<radialGradient id="paint7_radial_759_402" cx="0" cy="0" r="1" gradientUnits="userSpaceOnUse" gradientTransform="translate(21.6259 21.6773) rotate(90) scale(1.59039 2.1044)">
<stop stop-color="#1A2327"/>
<stop offset="1" stop-color="#0F0F0F"/>
</radialGradient>
<radialGradient id="paint8_radial_759_402" cx="0" cy="0" r="1" gradientUnits="userSpaceOnUse" gradientTransform="translate(22.2895 16.5169) rotate(90) scale(1.35866 0.744531)">
<stop stop-color="#1A2327"/>
<stop offset="1" stop-color="#0F0F0F"/>
</radialGradient>
<radialGradient id="paint9_radial_759_402" cx="0" cy="0" r="1" gradientUnits="userSpaceOnUse" gradientTransform="translate(16.7573 15.7642) rotate(90) scale(2.56792 1.60883)">
<stop stop-color="#1A2327"/>
<stop offset="1" stop-color="#0F0F0F"/>
</radialGradient>
<radialGradient id="paint10_radial_759_402" cx="0" cy="0" r="1" gradientUnits="userSpaceOnUse" gradientTransform="translate(20.107 15.1431) rotate(90) scale(0.616771 0.243725)">
<stop stop-color="#1A2327"/>
<stop offset="1" stop-color="#0F0F0F"/>
</radialGradient>
<radialGradient id="paint11_radial_759_402" cx="0" cy="0" r="1" gradientUnits="userSpaceOnUse" gradientTransform="translate(23.7906 15.0113) rotate(90) scale(0.616771 0.243723)">
<stop stop-color="#1A2327"/>
<stop offset="1" stop-color="#0F0F0F"/>
</radialGradient>
<radialGradient id="paint12_radial_759_402" cx="0" cy="0" r="1" gradientUnits="userSpaceOnUse" gradientTransform="translate(14.2423 27.0274) rotate(90) scale(11.7969 7.56455)">
<stop stop-color="#1A2327"/>
<stop offset="1" stop-color="#0F0F0F"/>
</radialGradient>
<radialGradient id="paint13_radial_759_402" cx="0" cy="0" r="1" gradientUnits="userSpaceOnUse" gradientTransform="translate(29.1664 27.9802) rotate(90) scale(12.0007 6.58731)">
<stop stop-color="#1A2327"/>
<stop offset="1" stop-color="#0F0F0F"/>
</radialGradient>
<radialGradient id="paint14_radial_759_402" cx="0" cy="0" r="1" gradientUnits="userSpaceOnUse" gradientTransform="translate(21.1999 43.195) rotate(90) scale(8.48409 20.9772)">
<stop stop-color="#1A2327"/>
<stop offset="1" stop-color="#0F0F0F"/>
</radialGradient>
<radialGradient id="paint15_radial_759_402" cx="0" cy="0" r="1" gradientUnits="userSpaceOnUse" gradientTransform="translate(21.2015 43.193) rotate(90) scale(8.59141 21.0873)">
<stop stop-color="#1A2327"/>
<stop offset="1" stop-color="#0F0F0F"/>
</radialGradient>
<radialGradient id="paint16_radial_759_402" cx="0" cy="0" r="1" gradientUnits="userSpaceOnUse" gradientTransform="translate(16.1602 47.1034) rotate(90) scale(6.66882 6.66118)">
<stop stop-color="#1A2327"/>
<stop offset="1" stop-color="#0F0F0F"/>
</radialGradient>
<radialGradient id="paint17_radial_759_402" cx="0" cy="0" r="1" gradientUnits="userSpaceOnUse" gradientTransform="translate(16.1601 47.1113) rotate(90) scale(6.77243 6.76952)">
<stop stop-color="#1A2327"/>
<stop offset="1" stop-color="#0F0F0F"/>
</radialGradient>
<linearGradient id="paint18_linear_759_402" x1="29.7004" y1="47.9746" x2="29.7004" y2="54.1559" gradientUnits="userSpaceOnUse">
<stop stop-color="#3D7FA1"/>
<stop offset="1" stop-color="#355F75"/>
</linearGradient>
<radialGradient id="paint19_radial_759_402" cx="0" cy="0" r="1" gradientUnits="userSpaceOnUse" gradientTransform="translate(29.6998 51.0621) rotate(90) scale(3.2066 7.34625)">
<stop stop-color="#1A2327"/>
<stop offset="1" stop-color="#0F0F0F"/>
</radialGradient>
<radialGradient id="paint20_radial_759_402" cx="0" cy="0" r="1" gradientUnits="userSpaceOnUse" gradientTransform="translate(22.6565 50.8223) rotate(90) scale(2.36919 2.68287)">
<stop stop-color="#1A2327"/>
<stop offset="1" stop-color="#0F0F0F"/>
</radialGradient>
<linearGradient id="paint21_linear_759_402" x1="10.557" y1="47.9834" x2="10.557" y2="54.9289" gradientUnits="userSpaceOnUse">
<stop stop-color="#3D7FA1"/>
<stop offset="1" stop-color="#355F75"/>
</linearGradient>
<radialGradient id="paint22_radial_759_402" cx="0" cy="0" r="1" gradientUnits="userSpaceOnUse" gradientTransform="translate(10.5623 51.4552) rotate(90) scale(3.57926 4.8875)">
<stop stop-color="#1A2327"/>
<stop offset="1" stop-color="#0F0F0F"/>
</radialGradient>
<radialGradient id="paint23_radial_759_402" cx="0" cy="0" r="1" gradientUnits="userSpaceOnUse" gradientTransform="translate(22.0685 18.6413) rotate(90) scale(0.320997 1.6105)">
<stop stop-color="#1A2327"/>
<stop offset="1" stop-color="#0F0F0F"/>
</radialGradient>
<linearGradient id="paint24_linear_759_402" x1="43.2888" y1="0" x2="43.2888" y2="13.4871" gradientUnits="userSpaceOnUse">
<stop stop-color="#3D7FA1"/>
<stop offset="1" stop-color="#355F75"/>
</linearGradient>
<linearGradient id="paint25_linear_759_402" x1="38.6503" y1="13.9834" x2="38.6503" y2="18.0041" gradientUnits="userSpaceOnUse">
<stop stop-color="#3D7FA1"/>
<stop offset="1" stop-color="#355F75"/>
</linearGradient>
<linearGradient id="paint26_linear_759_402" x1="33.8044" y1="17.7412" x2="33.8044" y2="19.8081" gradientUnits="userSpaceOnUse">
<stop stop-color="#3D7FA1"/>
<stop offset="1" stop-color="#355F75"/>
</linearGradient>
<linearGradient id="paint27_linear_759_402" x1="44.4932" y1="21.9473" x2="44.4932" y2="38.6641" gradientUnits="userSpaceOnUse">
<stop stop-color="#3D7FA1"/>
<stop offset="1" stop-color="#355F75"/>
</linearGradient>
<linearGradient id="paint28_linear_759_402" x1="51.385" y1="23.4492" x2="51.385" y2="37.9948" gradientUnits="userSpaceOnUse">
<stop stop-color="#3D7FA1"/>
<stop offset="1" stop-color="#355F75"/>
</linearGradient>
<linearGradient id="paint29_linear_759_402" x1="46.5434" y1="21.3057" x2="46.5434" y2="32.3894" gradientUnits="userSpaceOnUse">
<stop stop-color="#3D7FA1"/>
<stop offset="1" stop-color="#355F75"/>
</linearGradient>
<linearGradient id="paint30_linear_759_402" x1="47.1154" y1="38.4004" x2="47.1154" y2="49.9151" gradientUnits="userSpaceOnUse">
<stop stop-color="#3D7FA1"/>
<stop offset="1" stop-color="#355F75"/>
</linearGradient>
<linearGradient id="paint31_linear_759_402" x1="48.9922" y1="37.1064" x2="48.9922" y2="52.2944" gradientUnits="userSpaceOnUse">
<stop stop-color="#3D7FA1"/>
<stop offset="1" stop-color="#355F75"/>
</linearGradient>
<linearGradient id="paint32_linear_759_402" x1="48.1472" y1="31.5732" x2="48.1472" y2="51.7253" gradientUnits="userSpaceOnUse">
<stop stop-color="#3D7FA1"/>
<stop offset="1" stop-color="#355F75"/>
</linearGradient>
<linearGradient id="paint33_linear_759_402" x1="48.0322" y1="43.7402" x2="48.0322" y2="53.3823" gradientUnits="userSpaceOnUse">
<stop stop-color="#3D7FA1"/>
<stop offset="1" stop-color="#355F75"/>
</linearGradient>
</defs>
</svg>
