<svg width="25" height="27" viewBox="0 0 25 27" fill="none" xmlns="http://www.w3.org/2000/svg">
<path d="M11.6097 15.7328C11.0607 15.7328 10.6055 15.2776 10.6055 14.7286V8.03355C10.6055 7.48456 11.0607 7.0293 11.6097 7.0293C12.1587 7.0293 12.614 7.48456 12.614 8.03355V14.7286C12.614 15.2776 12.1587 15.7328 11.6097 15.7328Z" fill="url(#paint0_linear_778_746)"/>
<path d="M15.4808 1.94155H7.74143C7.20582 1.94155 6.77734 1.51307 6.77734 0.977472C6.77734 0.441871 7.20582 0 7.74143 0H15.4808C16.0164 0 16.4449 0.428481 16.4449 0.964082C16.4449 1.49968 16.0164 1.94155 15.4808 1.94155Z" fill="url(#paint1_linear_778_746)"/>
<path opacity="0.4" d="M15.6262 24.0626V20.126C15.6262 18.4254 16.6438 17.4078 18.3444 17.4078H22.281C22.5354 17.4078 22.7631 17.4346 22.9907 17.4881C23.138 16.7383 23.2183 15.9617 23.2183 15.1716C23.2183 8.77122 18.0096 3.5625 11.6092 3.5625C5.20872 3.5625 0 8.77122 0 15.1716C0 21.5721 5.20872 26.7808 11.6092 26.7808C13.2294 26.7808 14.7692 26.4461 16.1752 25.8435C15.827 25.3882 15.6262 24.7991 15.6262 24.0626Z" fill="url(#paint2_linear_778_746)"/>
<path d="M22.2818 17.4072H18.3451C16.6446 17.4072 15.627 18.4249 15.627 20.1254V24.0621C15.627 25.7626 16.6446 26.7802 18.3451 26.7802H22.2818C23.9823 26.7802 25 25.7626 25 24.0621V20.1254C25 18.4249 23.9823 17.4072 22.2818 17.4072ZM21.9069 23.3792L20.3269 24.2897C20.0055 24.4772 19.6841 24.5709 19.3896 24.5709C19.1619 24.5709 18.9611 24.5173 18.7736 24.4102C18.3451 24.1558 18.1041 23.6604 18.1041 23.0043V21.1832C18.1041 20.5271 18.3451 20.0317 18.7736 19.7773C19.2021 19.5229 19.7511 19.5764 20.3269 19.8978L21.9069 20.8083C22.4693 21.143 22.7906 21.5983 22.7906 22.0937C22.7906 22.5892 22.4826 23.0444 21.9069 23.3792Z" fill="url(#paint3_linear_778_746)"/>
<defs>
<linearGradient id="paint0_linear_778_746" x1="11.6097" y1="7.0293" x2="11.6097" y2="15.7328" gradientUnits="userSpaceOnUse">
<stop stop-color="#3D7FA1"/>
<stop offset="1" stop-color="#355F75"/>
</linearGradient>
<linearGradient id="paint1_linear_778_746" x1="11.6111" y1="0" x2="11.6111" y2="1.94155" gradientUnits="userSpaceOnUse">
<stop stop-color="#3D7FA1"/>
<stop offset="1" stop-color="#355F75"/>
</linearGradient>
<linearGradient id="paint2_linear_778_746" x1="11.6092" y1="3.5625" x2="11.6092" y2="26.7808" gradientUnits="userSpaceOnUse">
<stop stop-color="#3D7FA1"/>
<stop offset="1" stop-color="#355F75"/>
</linearGradient>
<linearGradient id="paint3_linear_778_746" x1="20.3135" y1="17.4072" x2="20.3135" y2="26.7802" gradientUnits="userSpaceOnUse">
<stop stop-color="#3D7FA1"/>
<stop offset="1" stop-color="#355F75"/>
</linearGradient>
</defs>
</svg>
