<svg width="137" height="147" viewBox="0 0 137 147" fill="none" xmlns="http://www.w3.org/2000/svg">
<path d="M63.6186 86.2194C60.6101 86.2194 58.1152 83.7245 58.1152 80.716V44.0268C58.1152 41.0183 60.6101 38.5234 63.6186 38.5234C66.6271 38.5234 69.122 41.0183 69.122 44.0268V80.716C69.122 83.7245 66.6271 86.2194 63.6186 86.2194Z" fill="url(#paint0_linear_871_116)"/>
<path d="M84.8286 10.6399H42.4161C39.4809 10.6399 37.1328 8.29176 37.1328 5.35663C37.1328 2.42149 39.4809 0 42.4161 0H84.8286C87.7638 0 90.1119 2.34811 90.1119 5.28325C90.1119 8.21838 87.7638 10.6399 84.8286 10.6399Z" fill="url(#paint1_linear_871_116)"/>
<path opacity="0.4" d="M85.6328 131.862V110.289C85.6328 100.97 91.2095 95.3928 100.529 95.3928H122.102C123.496 95.3928 124.743 95.5395 125.991 95.833C126.798 91.7238 127.238 87.4679 127.238 83.1386C127.238 48.0637 98.6941 19.5195 63.6192 19.5195C28.5442 19.5195 0 48.0637 0 83.1386C0 118.213 28.5442 146.758 63.6192 146.758C72.498 146.758 80.9366 144.923 88.6413 141.621C86.7335 139.126 85.6328 135.898 85.6328 131.862Z" fill="url(#paint2_linear_871_116)"/>
<path d="M122.102 95.3916H100.529C91.2096 95.3916 85.6328 100.968 85.6328 110.287V131.861C85.6328 141.18 91.2096 146.756 100.529 146.756H122.102C131.421 146.756 136.998 141.18 136.998 131.861V110.287C136.998 100.968 131.421 95.3916 122.102 95.3916ZM120.047 128.118L111.389 133.108C109.628 134.135 107.866 134.649 106.252 134.649C105.005 134.649 103.904 134.356 102.877 133.769C100.529 132.374 99.2078 129.659 99.2078 126.064V116.084C99.2078 112.489 100.529 109.774 102.877 108.38C105.225 106.985 108.233 107.279 111.389 109.04L120.047 114.03C123.129 115.864 124.89 118.359 124.89 121.074C124.89 123.789 123.203 126.284 120.047 128.118Z" fill="url(#paint3_linear_871_116)"/>
<defs>
<linearGradient id="paint0_linear_871_116" x1="63.6186" y1="38.5234" x2="63.6186" y2="86.2194" gradientUnits="userSpaceOnUse">
<stop stop-color="#F05C5C"/>
<stop offset="1" stop-color="#A53E3E"/>
</linearGradient>
<linearGradient id="paint1_linear_871_116" x1="63.6224" y1="0" x2="63.6224" y2="10.6399" gradientUnits="userSpaceOnUse">
<stop stop-color="#F05C5C"/>
<stop offset="1" stop-color="#A53E3E"/>
</linearGradient>
<linearGradient id="paint2_linear_871_116" x1="63.6192" y1="19.5195" x2="63.6192" y2="146.758" gradientUnits="userSpaceOnUse">
<stop stop-color="#F05C5C"/>
<stop offset="1" stop-color="#A53E3E"/>
</linearGradient>
<linearGradient id="paint3_linear_871_116" x1="111.315" y1="95.3916" x2="111.315" y2="146.757" gradientUnits="userSpaceOnUse">
<stop stop-color="#F05C5C"/>
<stop offset="1" stop-color="#A53E3E"/>
</linearGradient>
</defs>
</svg>
