<svg width="18" height="20" viewBox="0 0 18 20" fill="none" xmlns="http://www.w3.org/2000/svg">
<path d="M8.35881 11.3271C7.96353 11.3271 7.63574 10.9993 7.63574 10.604V5.78361C7.63574 5.38834 7.96353 5.06055 8.35881 5.06055C8.75408 5.06055 9.08187 5.38834 9.08187 5.78361V10.604C9.08187 10.9993 8.75408 11.3271 8.35881 11.3271Z" fill="white"/>
<path d="M11.1454 1.39792H5.57305C5.18741 1.39792 4.87891 1.08942 4.87891 0.703782C4.87891 0.318148 5.18741 0 5.57305 0H11.1454C11.5311 0 11.8396 0.308507 11.8396 0.694141C11.8396 1.07977 11.5311 1.39792 11.1454 1.39792Z" fill="white"/>
<path opacity="0.4" d="M11.2509 17.3246V14.4902C11.2509 13.2658 11.9836 12.5331 13.208 12.5331H16.0424C16.2256 12.5331 16.3895 12.5524 16.5534 12.5909C16.6594 12.051 16.7172 11.4919 16.7172 10.9231C16.7172 6.31474 12.967 2.56445 8.35863 2.56445C3.75029 2.56445 0 6.31474 0 10.9231C0 15.5314 3.75029 19.2817 8.35863 19.2817C9.52518 19.2817 10.6339 19.0407 11.6462 18.6068C11.3955 18.279 11.2509 17.8548 11.2509 17.3246Z" fill="white"/>
<path d="M16.0435 12.5332H13.209C11.9847 12.5332 11.252 13.2659 11.252 14.4903V17.3247C11.252 18.5491 11.9847 19.2818 13.209 19.2818H16.0435C17.2678 19.2818 18.0005 18.5491 18.0005 17.3247V14.4903C18.0005 13.2659 17.2678 12.5332 16.0435 12.5332ZM15.7735 16.833L14.6359 17.4886C14.4045 17.6236 14.1731 17.6911 13.961 17.6911C13.7971 17.6911 13.6525 17.6525 13.5176 17.5754C13.209 17.3922 13.0355 17.0355 13.0355 16.5631V15.2519C13.0355 14.7795 13.209 14.4228 13.5176 14.2396C13.8261 14.0565 14.2213 14.095 14.6359 14.3264L15.7735 14.982C16.1784 15.223 16.4098 15.5508 16.4098 15.9075C16.4098 16.2642 16.1881 16.592 15.7735 16.833Z" fill="white"/>
</svg>
