<svg width="97" height="97" viewBox="0 0 97 97" fill="none" xmlns="http://www.w3.org/2000/svg">
<path d="M48.5 0C21.7077 0 0 21.7077 0 48.5C0 75.2923 21.7077 97 48.5 97C75.2923 97 97 75.2923 97 48.5C97 21.7077 75.2923 0 48.5 0ZM48.5 18.7742C58.0044 18.7742 65.7097 26.4794 65.7097 35.9839C65.7097 45.4883 58.0044 53.1936 48.5 53.1936C38.9956 53.1936 31.2903 45.4883 31.2903 35.9839C31.2903 26.4794 38.9956 18.7742 48.5 18.7742ZM48.5 86.0484C37.0204 86.0484 26.7337 80.8464 19.8498 72.7109C23.5264 65.7879 30.7232 61.0161 39.1129 61.0161C39.5823 61.0161 40.0516 61.0944 40.5014 61.2313C43.0438 62.0526 45.7034 62.5806 48.5 62.5806C51.2966 62.5806 53.9758 62.0526 56.4986 61.2313C56.9484 61.0944 57.4177 61.0161 57.8871 61.0161C66.2768 61.0161 73.4736 65.7879 77.1502 72.7109C70.2663 80.8464 59.9796 86.0484 48.5 86.0484Z" fill="white"/>
</svg>
