<svg width="54" height="54" viewBox="0 0 54 54" fill="none" xmlns="http://www.w3.org/2000/svg">
<path d="M35.2076 0H18.7918C8.41338 0 0 8.41338 0 18.7918V35.2076C0 45.5861 8.41338 53.9995 18.7918 53.9995H35.2076C45.5861 53.9995 53.9995 45.5861 53.9995 35.2076V18.7918C53.9995 8.41338 45.5861 0 35.2076 0Z" fill="url(#paint0_linear_769_1468)"/>
<path d="M14.8613 15.4961C14.0129 15.4951 13.1833 15.7459 12.4774 16.2165C11.7716 16.6872 11.2212 17.3567 10.8959 18.1403C10.5707 18.9239 10.4852 19.7864 10.6503 20.6186C10.8154 21.4508 11.2237 22.2153 11.8234 22.8154C12.4232 23.4155 13.1875 23.8242 14.0195 23.9897C14.8516 24.1553 15.7142 24.0703 16.4979 23.7455C17.2817 23.4208 17.9515 22.8708 18.4226 22.1652C18.8937 21.4596 19.1449 20.6301 19.1445 19.7817C19.1438 18.6457 18.6924 17.5564 17.8894 16.7529C17.0864 15.9494 15.9973 15.4974 14.8613 15.4961Z" fill="white"/>
<path d="M14.8612 18.4326C14.594 18.4321 14.3327 18.511 14.1103 18.6591C13.8879 18.8073 13.7145 19.0181 13.612 19.2649C13.5095 19.5116 13.4826 19.7833 13.5346 20.0454C13.5866 20.3075 13.7152 20.5482 13.9042 20.7372C14.0931 20.9261 14.3339 21.0548 14.596 21.1068C14.8581 21.1588 15.1297 21.1318 15.3765 21.0294C15.6233 20.9269 15.8341 20.7535 15.9823 20.5311C16.1304 20.3087 16.2092 20.0474 16.2088 19.7802C16.2088 19.4228 16.0668 19.08 15.8141 18.8273C15.5614 18.5746 15.2186 18.4326 14.8612 18.4326Z" fill="url(#paint1_radial_769_1468)"/>
<path d="M39.1695 15.4961C38.3207 15.4937 37.4904 15.7432 36.7836 16.213C36.0767 16.6828 35.5252 17.3518 35.1988 18.1352C34.8725 18.9187 34.786 19.7814 34.9502 20.6141C35.1145 21.4467 35.5222 22.2119 36.1216 22.8128C36.7211 23.4136 37.4853 23.823 38.3176 23.9892C39.1499 24.1554 40.0128 24.0708 40.797 23.7463C41.5812 23.4217 42.2515 22.8717 42.7229 22.166C43.1943 21.4602 43.4457 20.6304 43.4452 19.7817C43.4446 18.647 42.9942 17.5588 42.1928 16.7555C41.3913 15.9522 40.3042 15.4994 39.1695 15.4961Z" fill="white"/>
<path d="M53.9994 31.7578C50.6622 36.7562 46.1283 40.8411 40.8101 43.6408C35.4919 46.4405 29.5582 47.8662 23.5486 47.7883C9.94565 47.7883 7.43958 45.3338 1.10938 41.5808C2.42186 45.218 4.82389 48.3621 7.98814 50.5847C11.1524 52.8072 14.9249 54 18.7917 54.0007H35.2076C40.1915 54.0007 44.9712 52.0208 48.4954 48.4967C52.0195 44.9725 53.9994 40.1928 53.9994 35.2089V31.7578Z" fill="url(#paint2_linear_769_1468)"/>
<path d="M31.1928 29.6084H22.8032C22.0963 29.6084 21.5244 29.9496 21.5244 30.3742C21.5244 30.7988 22.0963 31.14 22.8032 31.14H31.1928C31.8997 31.14 32.4716 30.7988 32.4716 30.3742C32.4716 29.9496 31.907 29.6084 31.1928 29.6084Z" fill="url(#paint3_radial_769_1468)"/>
<path d="M39.1644 18.4336C38.8973 18.4336 38.6362 18.5128 38.4142 18.6613C38.1921 18.8097 38.0191 19.0207 37.917 19.2675C37.8149 19.5144 37.7883 19.7859 37.8406 20.0479C37.8929 20.3098 38.0217 20.5503 38.2107 20.739C38.3998 20.9277 38.6405 21.0561 38.9026 21.1079C39.1646 21.1597 39.4361 21.1327 39.6828 21.0301C39.9294 20.9275 40.1401 20.7541 40.2881 20.5318C40.4361 20.3095 40.5149 20.0482 40.5144 19.7811C40.5138 19.4235 40.3713 19.0808 40.1182 18.8281C39.8651 18.5755 39.5221 18.4336 39.1644 18.4336Z" fill="url(#paint4_radial_769_1468)"/>
<defs>
<linearGradient id="paint0_linear_769_1468" x1="26.9997" y1="0" x2="26.9997" y2="53.9995" gradientUnits="userSpaceOnUse">
<stop stop-color="#3D7FA1"/>
<stop offset="1" stop-color="#355F75"/>
</linearGradient>
<radialGradient id="paint1_radial_769_1468" cx="0" cy="0" r="1" gradientUnits="userSpaceOnUse" gradientTransform="translate(14.8588 19.7826) rotate(90) scale(1.34999)">
<stop stop-color="#1A2327"/>
<stop offset="1" stop-color="#0F0F0F"/>
</radialGradient>
<linearGradient id="paint2_linear_769_1468" x1="27.5544" y1="31.7578" x2="27.5544" y2="54.0007" gradientUnits="userSpaceOnUse">
<stop stop-color="#3D7FA1"/>
<stop offset="1" stop-color="#355F75"/>
</linearGradient>
<radialGradient id="paint3_radial_769_1468" cx="0" cy="0" r="1" gradientUnits="userSpaceOnUse" gradientTransform="translate(26.998 30.3742) rotate(90) scale(0.765811 5.47358)">
<stop stop-color="#1A2327"/>
<stop offset="1" stop-color="#0F0F0F"/>
</radialGradient>
<radialGradient id="paint4_radial_769_1468" cx="0" cy="0" r="1" gradientUnits="userSpaceOnUse" gradientTransform="translate(39.1644 19.7836) rotate(90) scale(1.34999)">
<stop stop-color="#1A2327"/>
<stop offset="1" stop-color="#0F0F0F"/>
</radialGradient>
</defs>
</svg>
